<!DOCTYPE svg PUBLIC "-//W3C//DTD SVG 20010904//EN" "http://www.w3.org/TR/2001/REC-SVG-20010904/DTD/svg10.dtd">
<svg version="1.0" xmlns="http://www.w3.org/2000/svg" width="274px" height="256px" viewBox="0 0 2740 2560" preserveAspectRatio="xMidYMid meet">
<g id="layer101" fill="#7c4823" stroke="none">
 <path d="M451 2389 c-122 -94 -221 -173 -219 -174 2 -2 91 7 198 21 107 13 199 23 203 21 4 -1 -136 -222 -312 -490 -177 -269 -321 -493 -321 -498 0 -5 10 -7 23 -4 91 21 671 124 675 120 3 -3 -41 -311 -97 -685 -57 -374 -101 -685 -99 -691 2 -7 177 172 387 397 211 225 393 419 405 432 l22 22 194 -402 c209 -436 198 -413 204 -407 3 3 51 225 107 494 56 270 104 492 106 494 3 4 70 -38 446 -279 114 -73 209 -131 211 -129 2 2 -72 209 -165 459 -92 250 -167 455 -166 456 1 1 110 -27 242 -62 132 -35 241 -64 243 -64 11 -1 -24 69 -214 426 -118 223 -213 408 -210 411 3 3 76 0 162 -6 85 -7 158 -11 160 -8 3 2 -107 75 -243 161 l-247 156 -736 0 -736 0 -223 -171z"/>
 </g>
<g id="layer102" fill="#946f54" stroke="none">
 <path d="M452 2389 c-123 -94 -222 -172 -220 -174 2 -2 92 8 201 22 109 13 201 23 203 20 3 -2 -139 -223 -316 -491 -176 -268 -320 -492 -320 -497 0 -5 10 -7 23 -4 78 18 671 124 675 120 3 -3 -41 -311 -97 -685 -57 -374 -101 -685 -99 -692 2 -6 172 169 377 388 206 219 388 414 405 432 l32 33 194 -403 c212 -440 198 -413 204 -407 3 2 51 226 108 497 57 270 106 492 109 492 3 0 147 -90 319 -201 172 -111 320 -203 327 -206 10 -4 9 8 -6 48 -175 467 -320 863 -318 865 1 1 110 -27 242 -62 132 -35 241 -64 243 -64 10 -1 -24 68 -214 425 -119 224 -213 409 -210 412 3 3 76 0 162 -6 85 -7 158 -11 160 -8 3 2 -107 75 -243 161 l-247 156 -123 0 c-68 0 -123 -2 -123 -3 0 -2 81 -172 180 -377 99 -205 178 -375 176 -377 -2 -2 -92 24 -200 58 -108 34 -199 59 -203 55 -4 -3 10 -153 31 -332 20 -179 36 -328 33 -330 -2 -2 -102 89 -222 202 l-218 206 -22 -24 c-18 -18 -509 -581 -522 -597 -10 -13 -6 44 29 438 21 239 36 437 33 439 -3 3 -84 -18 -180 -45 -96 -28 -175 -46 -175 -42 0 5 81 171 180 369 l180 360 -162 0 -163 0 -223 -171z"/>
 <path d="M1106 2508 c-13 -29 -65 -140 -115 -247 -51 -106 -91 -195 -89 -196 2 -2 64 30 138 70 74 41 136 71 138 66 1 -4 -20 -187 -47 -406 -28 -220 -48 -401 -46 -404 7 -7 2 -14 204 257 100 134 186 242 190 240 5 -2 68 -68 141 -148 73 -80 136 -146 140 -148 3 -1 -17 119 -45 268 -28 148 -50 270 -48 270 2 0 80 -39 174 -86 94 -47 173 -83 176 -81 2 3 -71 138 -163 301 l-166 296 -279 0 -279 0 -24 -52z"/>
 </g>
<g id="layer103" fill="#cc976f" stroke="none">
 <path d="M1017 2313 c-64 -135 -116 -247 -114 -248 1 -2 61 30 132 71 72 40 136 73 142 73 8 1 11 -9 8 -26 -13 -71 -95 -759 -93 -772 2 -8 88 99 192 237 103 139 190 252 191 252 2 0 65 -68 140 -150 76 -83 139 -149 141 -147 2 1 -19 119 -46 262 -28 142 -50 263 -50 267 0 4 81 -33 180 -82 180 -90 181 -90 164 -58 -33 64 -287 513 -306 541 l-19 27 -273 0 -272 0 -117 -247z"/>
 </g>

</svg>