<!DOCTYPE svg PUBLIC "-//W3C//DTD SVG 20010904//EN" "http://www.w3.org/TR/2001/REC-SVG-20010904/DTD/svg10.dtd">
<svg version="1.0" xmlns="http://www.w3.org/2000/svg" width="200px" height="200px" viewBox="0 0 2000 2000" preserveAspectRatio="xMidYMid meet">
<g id="layer101" fill="#020202" stroke="none">
 <path d="M750 1816 l0 -94 -70 -57 c-145 -118 -313 -314 -375 -436 -50 -98 -59 -419 -16 -584 42 -158 124 -289 240 -380 84 -66 109 -77 140 -60 52 27 80 77 87 156 l7 72 24 -49 c99 -198 169 -294 214 -294 41 0 97 71 168 213 40 81 71 132 74 124 3 -8 9 -36 12 -61 9 -58 60 -137 97 -149 22 -7 35 -3 70 21 115 79 225 214 269 331 62 165 65 542 4 660 -62 122 -231 318 -375 436 l-70 57 0 94 0 94 -250 0 -250 0 0 -94z"/>
 </g>
<g id="layer102" fill="#595a64" stroke="none">
 <path d="M750 1818 l0 -93 -47 -44 -48 -43 53 42 52 42 0 89 0 89 240 0 240 0 0 -89 0 -89 53 -42 52 -42 -48 43 -47 44 0 93 0 92 -250 0 -250 0 0 -92z"/>
 <path d="M880 1693 l0 -88 -73 -47 c-182 -119 -304 -242 -373 -378 -26 -51 -28 -65 -32 -202 l-4 -148 120 0 119 0 7 63 c12 104 27 156 52 186 27 32 96 76 136 86 23 6 26 3 31 -32 4 -21 7 -67 7 -103 0 -36 3 -95 7 -132 l6 -68 117 0 117 0 8 173 c3 94 8 173 10 175 5 5 108 -49 142 -75 39 -30 62 -93 70 -195 l6 -78 125 0 125 0 -7 139 c-7 158 -13 181 -71 271 -77 120 -173 210 -347 325 l-58 38 0 88 0 89 -120 0 -120 0 0 -87z"/>
 <path d="M609 1603 l-34 -38 38 34 c34 33 42 41 34 41 -2 0 -19 -17 -38 -37z"/>
 <path d="M1380 1605 c19 -19 36 -35 39 -35 3 0 -10 16 -29 35 -19 19 -36 35 -39 35 -3 0 10 -16 29 -35z"/>
 <path d="M1500 1485 c19 -19 36 -35 39 -35 3 0 -10 16 -29 35 -19 19 -36 35 -39 35 -3 0 10 -16 29 -35z"/>
 <path d="M484 1478 l-29 -33 33 29 c17 17 32 31 32 33 0 8 -8 1 -36 -29z"/>
 <path d="M434 1418 c-44 -51 -57 -68 -52 -68 3 0 22 20 42 45 38 46 45 63 10 23z"/>
 <path d="M1574 1397 c21 -26 40 -47 43 -47 7 0 -56 78 -70 87 -6 4 6 -14 27 -40z"/>
 <path d="M273 1095 c0 -22 2 -30 4 -17 2 12 2 30 0 40 -3 9 -5 -1 -4 -23z"/>
 <path d="M1723 1095 c0 -22 2 -30 4 -17 2 12 2 30 0 40 -3 9 -5 -1 -4 -23z"/>
 <path d="M264 905 c0 -71 1 -99 3 -62 2 37 2 96 0 130 -2 34 -3 4 -3 -68z"/>
 <path d="M1734 905 c0 -71 1 -99 3 -62 2 37 2 96 0 130 -2 34 -3 4 -3 -68z"/>
 <path d="M1722 740 c0 -19 2 -27 5 -17 2 9 2 25 0 35 -3 9 -5 1 -5 -18z"/>
 <path d="M400 682 c0 -39 35 -139 64 -182 30 -46 126 -140 143 -140 26 0 33 42 33 194 l0 156 -120 0 -120 0 0 -28z"/>
 <path d="M883 623 c4 -49 16 -121 27 -162 20 -72 75 -191 89 -191 12 0 80 145 96 205 8 33 18 99 22 148 l6 87 -123 0 -123 0 6 -87z"/>
 <path d="M1357 703 c-2 -5 -2 -81 1 -170 5 -170 10 -186 51 -163 29 15 120 119 142 161 24 48 52 156 44 169 -7 12 -232 14 -238 3z"/>
 <path d="M1712 670 c0 -19 2 -27 5 -17 2 9 2 25 0 35 -3 9 -5 1 -5 -18z"/>
 <path d="M1226 444 c-4 -9 -4 -19 -1 -22 3 -3 5 1 5 9 0 11 2 11 10 -1 8 -12 10 -11 10 8 0 26 -15 29 -24 6z"/>
 <path d="M1567 378 c-38 -47 -43 -57 -16 -28 41 45 84 100 77 100 -2 0 -30 -33 -61 -72z"/>
 <path d="M751 388 c1 -55 5 -50 11 15 2 20 0 37 -4 37 -4 0 -7 -24 -7 -52z"/>
 <path d="M440 347 c0 -3 27 -28 60 -57 33 -29 60 -50 60 -47 0 3 -27 28 -60 57 -33 29 -60 50 -60 47z"/>
 <path d="M1157 295 c-15 -30 -25 -55 -22 -55 7 0 57 101 53 106 -2 2 -16 -21 -31 -51z"/>
 <path d="M737 293 c-4 -10 -18 -34 -33 -53 -22 -29 -21 -28 9 5 20 22 36 46 37 53 0 18 -7 15 -13 -5z"/>
 <path d="M1301 261 c14 -19 32 -37 40 -39 8 -3 5 3 -6 14 -11 10 -29 28 -40 39 -10 11 -8 4 6 -14z"/>
 <path d="M1050 128 c-25 -22 -36 -36 -25 -30 19 10 84 72 74 72 -2 -1 -24 -19 -49 -42z"/>
 <path d="M910 157 c0 -2 15 -16 33 -33 l32 -29 -29 33 c-28 30 -36 37 -36 29z"/>
 </g>
<g id="layer103" fill="#6b72b5" stroke="none">
 <path d="M752 1820 c-1 -53 -6 -101 -12 -108 -5 -7 -3 -6 5 1 13 11 15 32 12 108 l-3 94 -2 -95z"/>
 <path d="M1242 1819 c-2 -82 1 -99 16 -110 15 -12 16 -12 5 2 -7 8 -14 56 -16 110 l-3 94 -2 -96z"/>
 <path d="M880 1693 l0 -88 -38 -24 c-20 -13 -88 -62 -150 -109 -119 -90 -202 -185 -259 -296 -25 -47 -27 -63 -31 -198 l-4 -148 119 0 120 0 12 98 c15 119 32 155 93 192 59 36 116 61 121 52 2 -4 5 -50 7 -102 2 -52 4 -107 5 -122 2 -16 3 -48 4 -73 l1 -45 119 0 118 0 8 173 c3 94 8 173 10 175 2 2 35 -13 73 -32 95 -48 117 -79 132 -186 19 -138 10 -130 146 -130 l117 0 -7 142 c-6 136 -8 146 -41 214 -62 128 -199 263 -392 389 l-43 28 0 88 0 89 -120 0 -120 0 0 -87z"/>
 <path d="M262 1000 c0 -19 2 -27 5 -17 2 9 2 25 0 35 -3 9 -5 1 -5 -18z"/>
 <path d="M400 682 c0 -39 35 -139 64 -182 30 -46 126 -140 143 -140 26 0 33 42 33 194 l0 156 -120 0 -120 0 0 -28z"/>
 <path d="M883 623 c4 -49 16 -121 27 -162 20 -72 75 -191 89 -191 12 0 80 145 96 205 8 33 18 99 22 148 l6 87 -123 0 -123 0 6 -87z"/>
 <path d="M1357 703 c-2 -5 -2 -81 1 -170 5 -170 10 -186 51 -163 29 15 120 119 142 161 24 48 52 156 44 169 -7 12 -232 14 -238 3z"/>
 <path d="M752 370 c0 -19 2 -27 5 -17 2 9 2 25 0 35 -3 9 -5 1 -5 -18z"/>
 <path d="M1534 338 l-29 -33 33 29 c30 28 37 36 29 36 -2 0 -16 -15 -33 -32z"/>
 <path d="M440 347 c0 -2 15 -16 33 -33 l32 -29 -29 33 c-28 30 -36 37 -36 29z"/>
 </g>
<g id="layer104" fill="#df4a6b" stroke="none">
 <path d="M752 1820 c-1 -53 -6 -101 -12 -108 -5 -7 -3 -6 5 1 13 11 15 32 12 108 l-3 94 -2 -95z"/>
 <path d="M1242 1819 c-2 -82 1 -99 16 -110 15 -12 16 -12 5 2 -7 8 -14 56 -16 110 l-3 94 -2 -96z"/>
 <path d="M262 1000 c0 -19 2 -27 5 -17 2 9 2 25 0 35 -3 9 -5 1 -5 -18z"/>
 <path d="M400 682 c0 -39 35 -139 64 -182 30 -46 126 -140 143 -140 26 0 33 42 33 194 l0 156 -120 0 -120 0 0 -28z"/>
 <path d="M883 623 c4 -49 16 -121 27 -162 20 -72 75 -191 89 -191 12 0 80 145 96 205 8 33 18 99 22 148 l6 87 -123 0 -123 0 6 -87z"/>
 <path d="M1357 703 c-2 -5 -2 -81 1 -170 5 -170 10 -186 51 -163 29 15 120 119 142 161 24 48 52 156 44 169 -7 12 -232 14 -238 3z"/>
 <path d="M752 370 c0 -19 2 -27 5 -17 2 9 2 25 0 35 -3 9 -5 1 -5 -18z"/>
 <path d="M1534 338 l-29 -33 33 29 c30 28 37 36 29 36 -2 0 -16 -15 -33 -32z"/>
 <path d="M440 347 c0 -2 15 -16 33 -33 l32 -29 -29 33 c-28 30 -36 37 -36 29z"/>
 </g>
<g id="layer105" fill="#a1a1a1" stroke="none">
 <path d="M752 1820 c-1 -53 -6 -101 -12 -108 -5 -7 -3 -6 5 1 13 11 15 32 12 108 l-3 94 -2 -95z"/>
 <path d="M1242 1819 c-2 -82 1 -99 16 -110 15 -12 16 -12 5 2 -7 8 -14 56 -16 110 l-3 94 -2 -96z"/>
 <path d="M262 1000 c0 -19 2 -27 5 -17 2 9 2 25 0 35 -3 9 -5 1 -5 -18z"/>
 <path d="M752 370 c0 -19 2 -27 5 -17 2 9 2 25 0 35 -3 9 -5 1 -5 -18z"/>
 <path d="M1534 338 l-29 -33 33 29 c30 28 37 36 29 36 -2 0 -16 -15 -33 -32z"/>
 <path d="M440 347 c0 -2 15 -16 33 -33 l32 -29 -29 33 c-28 30 -36 37 -36 29z"/>
 </g>
<g id="layer106" fill="#d1d1d1" stroke="none">
 <path d="M1534 338 l-29 -33 33 29 c30 28 37 36 29 36 -2 0 -16 -15 -33 -32z"/>
 <path d="M440 347 c0 -2 15 -16 33 -33 l32 -29 -29 33 c-28 30 -36 37 -36 29z"/>
 </g>

</svg>