<!DOCTYPE svg PUBLIC "-//W3C//DTD SVG 20010904//EN" "http://www.w3.org/TR/2001/REC-SVG-20010904/DTD/svg10.dtd">
<svg version="1.0" xmlns="http://www.w3.org/2000/svg" width="200px" height="200px" viewBox="0 0 2000 2000" preserveAspectRatio="xMidYMid meet">
<g id="layer101" fill="#010202" stroke="none">
 <path d="M1167 1767 l-157 -152 0 -130 0 -130 159 -159 158 -158 69 60 c38 33 112 103 164 156 l95 96 4 127 3 126 -158 158 c-87 88 -163 159 -169 158 -5 0 -81 -68 -168 -152z"/>
 <path d="M611 1184 l-211 -177 0 -276 0 -276 204 -175 c112 -96 209 -175 215 -175 6 0 103 78 216 173 l205 174 0 278 0 278 -200 174 c-111 95 -205 174 -209 176 -5 2 -104 -77 -220 -174z"/>
 </g>
<g id="layer102" fill="#394958" stroke="none">
 <path d="M1167 1767 l-157 -152 0 -130 0 -130 160 -160 c88 -88 160 -156 160 -152 0 4 -70 78 -155 165 l-154 157 -1 120 0 120 153 153 c84 83 156 152 161 152 5 0 19 -8 30 -17 21 -18 21 -18 2 5 -11 12 -24 22 -30 21 -6 0 -82 -68 -169 -152z"/>
 <path d="M1475 1780 c49 -49 92 -90 95 -90 2 0 -36 41 -85 90 -49 50 -92 90 -95 90 -2 0 36 -40 85 -90z"/>
 <path d="M1236 1669 l-96 -101 0 -81 0 -82 91 -100 c51 -55 98 -100 105 -100 8 0 55 45 104 100 l90 100 0 81 0 82 -91 98 c-51 55 -95 100 -99 102 -4 1 -51 -43 -104 -99z"/>
 <path d="M1654 1495 c0 -66 1 -92 3 -57 2 34 2 88 0 120 -2 31 -3 3 -3 -63z"/>
 <path d="M1490 1198 c-85 -83 -128 -128 -95 -100 59 50 264 252 255 251 -3 0 -75 -68 -160 -151z"/>
 <path d="M880 1317 c0 -2 15 -16 33 -33 l32 -29 -29 33 c-28 30 -36 37 -36 29z"/>
 <path d="M730 1153 c-41 -36 -108 -95 -147 -130 l-73 -64 0 -229 0 -229 150 -130 c83 -72 156 -131 163 -131 13 1 283 229 305 257 9 12 12 77 12 240 l0 222 -152 131 c-83 71 -158 130 -167 129 -9 0 -50 -30 -91 -66z"/>
 <path d="M1180 1057 c0 -2 15 -16 33 -33 l32 -29 -29 33 c-28 30 -36 37 -36 29z"/>
 <path d="M417 1022 c-15 -16 -17 -52 -17 -293 l0 -274 203 -174 c112 -96 210 -177 218 -179 8 -2 0 7 -18 19 -17 13 -113 94 -212 179 l-180 155 -1 274 c0 242 2 277 17 293 9 10 14 18 11 18 -3 0 -12 -8 -21 -18z"/>
 </g>
<g id="layer103" fill="#3c6099" stroke="none">
 <path d="M1167 1767 l-157 -152 0 -130 0 -130 162 -160 163 -160 -158 161 -157 160 0 125 0 124 153 153 c84 83 156 152 161 152 5 0 19 -8 30 -17 21 -18 21 -18 2 5 -11 12 -24 22 -30 21 -6 0 -82 -68 -169 -152z"/>
 <path d="M1390 1867 c0 -1 35 -36 78 -77 l77 -75 -75 78 c-69 71 -80 82 -80 74z"/>
 <path d="M1237 1669 l-97 -103 0 -79 0 -78 91 -102 c51 -56 97 -102 104 -102 7 0 53 45 104 100 l91 100 0 81 0 81 -98 103 -97 103 -98 -104z"/>
 <path d="M1654 1495 c0 -66 1 -92 3 -57 2 34 2 88 0 120 -2 31 -3 3 -3 -63z"/>
 <path d="M1520 1223 l-125 -128 128 125 c70 69 127 126 127 127 0 8 -14 -6 -130 -124z"/>
 <path d="M880 1317 c0 -2 15 -16 33 -33 l32 -29 -29 33 c-28 30 -36 37 -36 29z"/>
 <path d="M658 1089 l-148 -130 0 -230 0 -229 148 -126 c81 -69 153 -128 159 -131 7 -3 30 10 52 29 117 100 257 223 263 232 4 6 8 111 8 232 l0 222 -151 128 c-82 71 -158 130 -167 131 -10 2 -81 -54 -164 -128z"/>
 <path d="M417 1022 c-15 -16 -17 -52 -17 -294 0 -251 2 -277 18 -289 14 -11 15 -11 5 1 -10 10 -13 83 -13 289 0 241 2 277 17 293 9 10 14 18 11 18 -3 0 -12 -8 -21 -18z"/>
 <path d="M590 297 c0 -2 15 -16 33 -33 l32 -29 -29 33 c-28 30 -36 37 -36 29z"/>
 <path d="M660 237 c0 -2 30 -31 67 -63 37 -33 64 -54 60 -48 -9 15 -127 118 -127 111z"/>
 </g>
<g id="layer104" fill="#899eb8" stroke="none">
 <path d="M1167 1767 l-157 -152 0 -130 0 -130 163 -160 162 -160 -158 160 -157 160 0 128 0 128 151 147 c83 81 155 149 161 151 5 1 19 -5 31 -15 l22 -19 -19 23 c-11 12 -24 22 -30 21 -6 0 -82 -68 -169 -152z"/>
 <path d="M1425 1830 c21 -22 41 -40 44 -40 3 0 -13 18 -34 40 -21 22 -41 40 -44 40 -3 0 13 -18 34 -40z"/>
 <path d="M1231 1661 l-91 -99 0 -76 0 -76 97 -107 97 -106 98 104 97 104 0 80 0 80 -90 98 c-50 53 -97 97 -104 97 -7 0 -53 -45 -104 -99z"/>
 <path d="M1520 1223 l-125 -128 128 125 c70 69 127 126 127 127 0 8 -14 -6 -130 -124z"/>
 <path d="M663 1089 l-153 -130 0 -228 0 -227 154 -132 c85 -73 157 -132 160 -132 7 0 297 249 308 265 14 18 9 428 -5 452 -13 23 -290 263 -304 263 -4 0 -77 -59 -160 -131z m243 -125 l74 -66 0 -151 c0 -84 -4 -157 -8 -162 -18 -25 -142 -127 -151 -123 -6 1 -42 29 -81 62 l-70 59 0 161 0 161 73 63 c39 34 76 62 81 62 5 0 42 -30 82 -66z"/>
 <path d="M791 884 l-31 -26 0 -112 c0 -112 0 -112 30 -141 l30 -29 28 21 c27 20 27 22 30 146 l3 125 -30 21 -29 21 -31 -26z"/>
 <path d="M417 1022 c-15 -16 -17 -52 -17 -294 0 -251 2 -277 18 -289 14 -11 15 -11 5 1 -10 10 -13 83 -13 289 0 241 2 277 17 293 9 10 14 18 11 18 -3 0 -12 -8 -21 -18z"/>
 </g>
<g id="layer105" fill="#adcef7" stroke="none">
 <path d="M1260 1690 c-126 -137 -120 -126 -120 -205 l0 -70 90 -100 c49 -55 97 -100 105 -100 9 0 56 45 105 99 l90 100 0 75 -1 76 -92 98 c-51 53 -97 97 -102 97 -6 0 -39 -32 -75 -70z"/>
 <path d="M1062 1667 l-52 -53 0 -129 0 -130 163 -160 162 -160 -157 160 -158 160 0 132 0 131 58 51 c31 28 52 51 47 51 -6 0 -34 -24 -63 -53z"/>
 <path d="M1520 1223 l-125 -128 128 125 c70 69 127 126 127 127 0 8 -14 -6 -130 -124z"/>
 <path d="M663 1087 l-153 -132 0 -220 0 -221 38 -36 c66 -64 273 -238 282 -238 5 0 10 4 12 9 2 7 158 144 276 242 22 18 22 23 22 228 0 115 -3 217 -6 226 -7 17 -302 276 -313 274 -3 0 -75 -60 -158 -132z m243 -123 l74 -66 0 -151 c0 -84 -4 -157 -8 -162 -18 -25 -142 -127 -151 -123 -6 1 -42 29 -81 62 l-70 59 0 161 0 161 73 63 c39 34 76 62 81 62 5 0 42 -30 82 -66z"/>
 <path d="M791 884 l-31 -26 0 -112 c0 -112 0 -112 30 -141 l30 -29 28 21 c27 20 27 22 30 146 l3 125 -30 21 -29 21 -31 -26z"/>
 </g>

</svg>