<!DOCTYPE svg PUBLIC "-//W3C//DTD SVG 20010904//EN" "http://www.w3.org/TR/2001/REC-SVG-20010904/DTD/svg10.dtd">
<svg version="1.0" xmlns="http://www.w3.org/2000/svg" width="320px" height="320px" viewBox="0 0 3200 3200" preserveAspectRatio="xMidYMid meet">
<g id="layer101" fill="#000000" stroke="none">
 <path d="M1020 3113 c0 -4 55 -173 122 -376 l123 -367 -403 -402 c-221 -221 -402 -407 -402 -412 0 -6 128 -139 285 -296 l285 -285 -410 -410 c-226 -225 -410 -413 -410 -417 0 -4 386 -8 858 -8 l857 0 413 413 c226 226 412 417 412 422 0 6 -131 141 -290 300 l-290 290 335 335 c184 184 335 340 335 345 0 6 -195 205 -433 443 l-432 432 -133 0 c-72 0 -132 -3 -132 -8 0 -4 45 -142 100 -307 55 -164 98 -300 97 -301 -2 -2 -142 136 -312 306 l-310 310 -132 0 c-73 0 -133 -3 -133 -7z"/>
 </g>
<g id="layer102" fill="#ffff03" stroke="none">
 <path d="M2043 2645 c52 -154 97 -293 101 -309 7 -28 -10 -46 -373 -410 l-381 -381 280 -280 280 -280 -337 -337 -338 -338 300 0 300 0 333 333 332 332 -295 295 -295 295 340 340 340 340 -340 340 -340 340 93 -280z"/>
 <path d="M1270 2890 c0 -3 41 -127 90 -275 50 -148 90 -272 90 -274 0 -3 -175 -181 -390 -396 l-390 -390 285 -285 285 -285 -337 -337 -338 -338 270 0 270 0 338 338 337 337 -280 280 -280 280 350 350 350 350 -325 325 c-179 179 -325 323 -325 320z"/>
 </g>

</svg>