<!DOCTYPE svg PUBLIC "-//W3C//DTD SVG 20010904//EN" "http://www.w3.org/TR/2001/REC-SVG-20010904/DTD/svg10.dtd">
<svg version="1.0" xmlns="http://www.w3.org/2000/svg" width="320px" height="320px" viewBox="0 0 3200 3200" preserveAspectRatio="xMidYMid meet">
<g id="layer101" fill="#010001" stroke="none">
 <path d="M1850 3029 c-289 -75 -516 -303 -590 -593 -15 -58 -20 -112 -20 -201 0 -142 20 -238 75 -354 28 -58 32 -72 18 -66 -105 40 -330 48 -459 15 -291 -74 -519 -302 -594 -594 -28 -110 -28 -292 0 -402 74 -291 302 -519 594 -594 110 -28 292 -28 402 0 292 75 520 303 594 594 15 58 20 112 20 201 0 142 -20 238 -75 354 -28 58 -32 72 -18 66 105 -40 331 -48 459 -15 292 75 520 303 594 594 28 110 28 292 0 402 -74 291 -302 519 -594 594 -108 27 -300 27 -406 -1z"/>
 </g>
<g id="layer102" fill="#772074" stroke="none">
 <path d="M1892 2860 c-226 -59 -404 -239 -462 -466 -88 -344 121 -696 466 -784 344 -88 696 121 784 466 88 344 -121 696 -466 784 -99 26 -224 25 -322 0z"/>
 <path d="M912 1660 c-226 -59 -404 -239 -462 -466 -88 -344 121 -696 466 -784 344 -88 696 121 784 466 88 344 -121 696 -466 784 -99 26 -224 25 -322 0z"/>
 </g>
<g id="layer103" fill="#cd04c5" stroke="none">
 <path d="M1951 2870 c-251 -53 -432 -210 -507 -440 -39 -122 -39 -268 0 -390 65 -199 217 -351 416 -416 72 -23 102 -27 195 -27 93 0 123 4 195 27 199 65 351 217 416 416 23 72 27 102 27 195 0 93 -4 123 -27 195 -65 200 -219 353 -416 415 -94 29 -226 40 -299 25z m235 -363 c105 -53 167 -154 168 -273 1 -62 -3 -79 -34 -140 -41 -80 -103 -133 -187 -159 -136 -43 -298 27 -365 158 -30 58 -37 181 -14 241 35 91 102 158 193 192 60 22 176 13 239 -19z"/>
 <path d="M971 1670 c-251 -53 -432 -210 -507 -440 -39 -122 -39 -268 0 -390 65 -199 217 -351 416 -416 72 -23 102 -27 195 -27 93 0 123 4 195 27 199 65 351 217 416 416 23 72 27 102 27 195 0 93 -4 123 -27 195 -65 200 -219 353 -416 415 -94 29 -226 40 -299 25z m235 -363 c105 -53 167 -154 168 -273 1 -62 -3 -79 -34 -140 -41 -80 -103 -133 -187 -159 -136 -43 -298 27 -365 158 -30 58 -37 181 -14 241 35 91 102 158 193 192 60 22 176 13 239 -19z"/>
 </g>

</svg>