<!DOCTYPE svg PUBLIC "-//W3C//DTD SVG 20010904//EN" "http://www.w3.org/TR/2001/REC-SVG-20010904/DTD/svg10.dtd">
<svg version="1.0" xmlns="http://www.w3.org/2000/svg" width="320px" height="320px" viewBox="0 0 3200 3200" preserveAspectRatio="xMidYMid meet">
<g id="layer101" fill="#000000" stroke="none">
 <path d="M650 2966 l0 -164 176 -171 177 -171 -177 0 -176 0 0 -255 0 -255 353 0 352 0 100 -100 100 -100 -578 0 -577 0 0 -193 0 -193 292 -280 291 -279 -291 -3 -292 -2 0 -300 0 -300 790 0 790 0 0 292 0 293 -97 97 -98 98 468 0 467 0 0 262 0 263 -142 142 -143 143 105 0 c58 0 122 3 143 6 l37 7 0 273 0 274 -435 0 -435 0 0 32 c0 28 -15 48 -102 135 l-103 103 103 0 102 0 0 255 0 255 -600 0 -600 0 0 -164z"/>
 </g>
<g id="layer102" fill="#49a0ff" stroke="none">
 <path d="M810 2932 l0 -48 278 -267 277 -266 153 -1 c122 0 151 3 145 13 -4 7 -101 103 -215 212 l-208 200 225 3 225 2 0 100 0 100 -440 0 -440 0 0 -48z"/>
 <path d="M810 2205 l0 -95 255 0 255 0 0 95 0 95 -255 0 -255 0 0 -95z"/>
 <path d="M1490 2127 l0 -53 169 -162 169 -162 76 0 76 0 0 -74 0 -74 123 -116 122 -116 -122 0 -123 0 0 -110 0 -110 285 0 285 0 0 133 0 133 -158 154 c-86 85 -210 206 -275 269 -64 63 -117 116 -117 118 0 1 124 3 275 3 l275 0 0 110 0 110 -530 0 -530 0 0 -53z"/>
 <path d="M570 1516 l0 -64 58 -52 c31 -29 225 -213 429 -409 l373 -356 -430 -3 -430 -2 0 -130 0 -130 620 0 620 0 0 163 0 163 -322 310 -321 309 321 3 322 2 0 130 0 130 -620 0 -620 0 0 -64z"/>
 </g>

</svg>