<!DOCTYPE svg PUBLIC "-//W3C//DTD SVG 20010904//EN" "http://www.w3.org/TR/2001/REC-SVG-20010904/DTD/svg10.dtd">
<svg version="1.0" xmlns="http://www.w3.org/2000/svg" width="200px" height="200px" viewBox="0 0 2000 2000" preserveAspectRatio="xMidYMid meet">
<g id="layer101" fill="#030303" stroke="none">
 <path d="M300 1854 c-12 -13 0 -29 81 -112 52 -53 173 -178 269 -277 l175 -180 -270 -5 c-253 -5 -270 -6 -273 -24 -3 -13 92 -114 345 -365 l348 -346 -115 -5 -116 -5 -151 -135 c-125 -111 -152 -139 -150 -160 l2 -25 657 -3 658 -2 0 500 c0 441 -2 501 -15 507 -10 3 -39 -14 -78 -48 -34 -29 -69 -59 -79 -67 -14 -12 -55 27 -384 377 l-368 391 -262 0 c-225 0 -263 -2 -274 -16z m1146 -986 c-3 -29 -6 -90 -6 -135 0 -80 -1 -83 -24 -83 -17 0 -53 33 -140 130 -64 71 -116 132 -116 135 0 3 66 5 146 5 l147 0 -7 -52z"/>
 </g>
<g id="layer102" fill="#3e441e" stroke="none">
 <path d="M300 1855 c-10 -13 18 -46 178 -212 105 -109 212 -218 238 -243 26 -25 -55 62 -182 193 -126 131 -229 244 -229 250 0 9 70 13 265 15 l264 2 129 -132 129 -133 -128 138 -128 137 -262 0 c-220 0 -264 -2 -274 -15z"/>
 <path d="M808 1462 c160 -158 292 -291 292 -295 0 -4 -131 -8 -292 -9 l-292 -3 360 -360 359 -360 -216 -5 -215 -5 -72 -55 -72 -55 147 -5 c82 -3 307 -4 501 -2 l352 3 0 365 0 365 -60 -52 -60 -52 0 -193 0 -194 -93 0 -92 0 -233 233 c-127 127 -232 235 -232 239 0 4 129 9 287 10 l287 3 -349 358 -348 357 -126 -1 -126 0 293 -287z"/>
 <path d="M1240 1430 c84 -88 158 -164 164 -167 6 -4 -60 68 -148 160 -87 92 -161 167 -163 167 -3 0 63 -72 147 -160z"/>
 <path d="M794 1313 l30 -33 -267 0 c-146 0 -268 -3 -270 -7 -5 -7 204 -7 461 0 l93 2 -38 35 c-37 34 -37 34 -9 3z"/>
 <path d="M1485 1170 c44 -46 81 -87 83 -89 1 -3 11 5 22 17 11 12 12 15 3 7 -16 -14 -25 -8 -103 67 l-85 83 80 -85z"/>
 <path d="M1670 1169 l-55 -51 56 46 c31 25 61 46 68 46 8 0 11 -131 11 -495 l0 -495 -649 0 c-434 0 -651 3 -654 10 -3 6 -4 5 -3 -2 2 -10 137 -14 659 -16 l657 -2 -2 502 c-3 438 -5 503 -18 505 -8 2 -40 -20 -70 -48z"/>
 <path d="M330 1187 c0 -2 15 -16 33 -33 l32 -29 -29 33 c-28 30 -36 37 -36 29z"/>
 <path d="M410 1107 c0 -2 15 -16 33 -33 l32 -29 -29 33 c-28 30 -36 37 -36 29z"/>
 <path d="M580 941 c0 -10 39 -46 43 -40 2 2 -7 14 -20 26 -13 12 -23 19 -23 14z"/>
 <path d="M1149 913 c6 -10 49 -58 97 -108 l86 -90 -86 96 c-47 53 -86 99 -86 103 0 3 66 7 148 9 l147 3 -158 2 c-148 2 -157 1 -148 -15z"/>
 <path d="M660 861 c0 -10 39 -46 43 -40 2 2 -7 14 -20 26 -13 12 -23 19 -23 14z"/>
 <path d="M1440 750 c0 -96 -1 -100 -22 -100 -12 0 -38 15 -58 33 l-35 32 34 -37 c25 -27 43 -38 63 -38 l28 0 0 105 c0 58 -2 105 -5 105 -3 0 -5 -45 -5 -100z"/>
 <path d="M964 551 c5 -8 -24 -11 -104 -11 l-111 0 -52 -52 -52 -51 52 46 52 47 121 0 c90 0 121 3 118 12 -2 6 -10 14 -18 16 -7 3 -10 0 -6 -7z"/>
 <path d="M595 398 l-40 -43 43 40 c39 36 47 45 39 45 -2 0 -21 -19 -42 -42z"/>
 <path d="M500 315 c-24 -25 -42 -45 -39 -45 3 0 25 20 49 45 24 25 42 45 39 45 -3 0 -25 -20 -49 -45z"/>
 </g>
<g id="layer103" fill="#6e6e6e" stroke="none">
 <path d="M299 1854 c-11 -13 -3 -24 52 -77 l64 -62 -59 62 c-32 34 -55 66 -52 72 5 8 89 11 269 11 l261 0 51 -47 50 -48 -50 53 -49 52 -262 0 c-225 0 -263 -2 -275 -16z"/>
 <path d="M808 1462 c160 -158 292 -291 292 -295 0 -4 -130 -8 -290 -9 l-289 -3 357 -360 357 -360 -214 -3 -214 -2 -66 -52 c-36 -28 -70 -55 -75 -60 -6 -4 216 -8 492 -8 l502 0 0 366 0 365 -60 -52 -60 -52 0 -193 0 -194 -93 0 -92 0 -233 233 c-127 127 -232 235 -232 239 0 4 129 9 287 10 l287 3 -349 358 -348 357 -126 -1 -126 0 293 -287z"/>
 <path d="M1025 1660 c33 -33 62 -60 64 -60 3 0 -21 27 -54 60 -33 33 -62 60 -64 60 -3 0 21 -27 54 -60z"/>
 <path d="M580 1538 c97 -100 110 -113 110 -105 0 1 -48 50 -107 107 l-108 105 105 -107z"/>
 <path d="M1185 1490 c33 -33 62 -60 64 -60 3 0 -21 27 -54 60 -33 33 -62 60 -64 60 -3 0 21 -27 54 -60z"/>
 <path d="M1350 1315 c30 -30 57 -55 59 -55 3 0 -19 25 -49 55 -30 30 -57 55 -59 55 -3 0 19 -25 49 -55z"/>
 <path d="M794 1313 l30 -33 -267 0 c-146 0 -268 -3 -270 -7 -5 -7 204 -7 461 0 l93 2 -38 35 c-37 34 -37 34 -9 3z"/>
 <path d="M1750 712 l5 -507 3 499 c1 275 -1 503 -5 507 -5 5 -6 -220 -3 -499z"/>
 <path d="M1510 1145 c30 -30 57 -55 59 -55 3 0 -19 25 -49 55 -30 30 -57 55 -59 55 -3 0 19 -25 49 -55z"/>
 <path d="M330 1187 c0 -2 15 -16 33 -33 l32 -29 -29 33 c-28 30 -36 37 -36 29z"/>
 <path d="M410 1107 c0 -2 15 -16 33 -33 l32 -29 -29 33 c-28 30 -36 37 -36 29z"/>
 <path d="M1143 924 c7 -7 299 -5 306 1 2 3 -67 5 -154 5 -87 0 -156 -3 -152 -6z"/>
 <path d="M1210 845 c19 -19 36 -35 39 -35 3 0 -10 16 -29 35 -19 19 -36 35 -39 35 -3 0 10 -16 29 -35z"/>
 <path d="M1440 750 c0 -96 -1 -100 -22 -100 -12 0 -31 8 -42 18 -21 17 -21 17 -2 -5 12 -14 30 -23 48 -23 l28 0 0 105 c0 58 -2 105 -5 105 -3 0 -5 -45 -5 -100z"/>
 <path d="M1270 777 c0 -2 15 -16 33 -33 l32 -29 -29 33 c-28 30 -36 37 -36 29z"/>
 <path d="M965 550 c3 -6 -38 -11 -107 -13 l-113 -3 124 -2 c109 -2 122 0 111 13 -14 17 -25 20 -15 5z"/>
 <path d="M704 498 l-29 -33 33 29 c17 17 32 31 32 33 0 8 -8 1 -36 -29z"/>
 <path d="M604 408 l-29 -33 33 29 c30 28 37 36 29 36 -2 0 -16 -15 -33 -32z"/>
 <path d="M514 328 l-29 -33 33 29 c30 28 37 36 29 36 -2 0 -16 -15 -33 -32z"/>
 </g>
<g id="layer104" fill="#9e9e9e" stroke="none">
 <path d="M443 1863 c76 -2 198 -2 270 0 73 1 11 3 -138 3 -148 0 -208 -2 -132 -3z"/>
 <path d="M885 1810 c21 -22 41 -40 44 -40 3 0 -13 18 -34 40 -21 22 -41 40 -44 40 -3 0 13 -18 34 -40z"/>
 <path d="M808 1462 c160 -158 292 -291 292 -295 0 -4 -130 -8 -290 -9 l-289 -3 357 -360 357 -360 -214 -3 -214 -2 -66 -52 c-36 -28 -70 -55 -75 -60 -6 -4 216 -8 492 -8 l502 0 0 366 0 365 -60 -52 -60 -52 0 -193 0 -194 -93 0 -92 0 -233 233 c-127 127 -232 235 -232 239 0 4 129 9 287 10 l287 3 -349 358 -348 357 -126 -1 -126 0 293 -287z"/>
 <path d="M1045 1640 c21 -22 41 -40 44 -40 3 0 -13 18 -34 40 -21 22 -41 40 -44 40 -3 0 13 -18 34 -40z"/>
 <path d="M545 1570 c38 -38 72 -70 74 -70 3 0 -26 32 -64 70 -38 39 -72 70 -74 70 -3 0 26 -31 64 -70z"/>
 <path d="M1205 1470 c21 -22 41 -40 44 -40 3 0 -13 18 -34 40 -21 22 -41 40 -44 40 -3 0 13 -18 34 -40z"/>
 <path d="M794 1313 l29 -33 -269 -3 -269 -2 273 -3 c149 -1 272 2 272 6 0 5 -15 21 -32 38 l-33 29 29 -32z"/>
 <path d="M1365 1300 c21 -22 41 -40 44 -40 3 0 -13 18 -34 40 -21 22 -41 40 -44 40 -3 0 13 -18 34 -40z"/>
 <path d="M330 1187 c0 -2 15 -16 33 -33 l32 -29 -29 33 c-28 30 -36 37 -36 29z"/>
 <path d="M1530 1125 c19 -19 36 -35 39 -35 3 0 -10 16 -29 35 -19 19 -36 35 -39 35 -3 0 10 -16 29 -35z"/>
 <path d="M410 1107 c0 -2 15 -16 33 -33 l32 -29 -29 33 c-28 30 -36 37 -36 29z"/>
 <path d="M1150 923 c0 -5 46 -7 102 -5 187 4 205 8 51 10 -84 1 -153 -1 -153 -5z"/>
 <path d="M1442 751 l-2 -103 -29 4 c-17 2 -28 1 -25 -4 8 -13 54 -9 60 5 3 8 3 56 1 108 l-3 94 -2 -104z"/>
 <path d="M965 550 c3 -6 -38 -11 -107 -13 l-113 -3 124 -2 c109 -2 122 0 111 13 -14 17 -25 20 -15 5z"/>
 </g>
<g id="layer105" fill="#fefd04" stroke="none">
 <path d="M443 1863 c76 -2 198 -2 270 0 73 1 11 3 -138 3 -148 0 -208 -2 -132 -3z"/>
 <path d="M808 1462 c160 -158 292 -291 292 -295 0 -4 -130 -8 -290 -9 l-289 -3 357 -360 357 -360 -214 -3 -214 -2 -66 -52 c-36 -28 -70 -55 -75 -60 -6 -4 216 -8 492 -8 l502 0 0 366 0 365 -60 -52 -60 -52 0 -193 0 -194 -93 0 -92 0 -233 233 c-127 127 -232 235 -232 239 0 4 129 9 287 10 l287 3 -349 358 -348 357 -126 -1 -126 0 293 -287z"/>
 <path d="M510 1605 c19 -19 36 -35 39 -35 3 0 -10 16 -29 35 -19 19 -36 35 -39 35 -3 0 10 -16 29 -35z"/>
 <path d="M770 1337 c0 -2 15 -16 33 -33 l32 -29 -29 33 c-28 30 -36 37 -36 29z"/>
 <path d="M330 1187 c0 -2 15 -16 33 -33 l32 -29 -29 33 c-28 30 -36 37 -36 29z"/>
 <path d="M410 1107 c0 -2 15 -16 33 -33 l32 -29 -29 33 c-28 30 -36 37 -36 29z"/>
 <path d="M1443 800 c0 -30 2 -43 4 -27 2 15 2 39 0 55 -2 15 -4 2 -4 -28z"/>
 <path d="M964 552 c5 -8 -26 -12 -106 -15 l-113 -3 118 -2 c108 -2 137 5 105 24 -7 4 -8 3 -4 -4z"/>
 </g>
<g id="layer106" fill="#d1d1d1" stroke="none">
 <path d="M443 1863 c76 -2 198 -2 270 0 73 1 11 3 -138 3 -148 0 -208 -2 -132 -3z"/>
 <path d="M510 1605 c19 -19 36 -35 39 -35 3 0 -10 16 -29 35 -19 19 -36 35 -39 35 -3 0 10 -16 29 -35z"/>
 <path d="M770 1337 c0 -2 15 -16 33 -33 l32 -29 -29 33 c-28 30 -36 37 -36 29z"/>
 <path d="M330 1187 c0 -2 15 -16 33 -33 l32 -29 -29 33 c-28 30 -36 37 -36 29z"/>
 <path d="M410 1107 c0 -2 15 -16 33 -33 l32 -29 -29 33 c-28 30 -36 37 -36 29z"/>
 <path d="M1443 800 c0 -30 2 -43 4 -27 2 15 2 39 0 55 -2 15 -4 2 -4 -28z"/>
 <path d="M964 552 c5 -8 -26 -12 -106 -15 l-113 -3 118 -2 c108 -2 137 5 105 24 -7 4 -8 3 -4 -4z"/>
 </g>

</svg>