<!DOCTYPE svg PUBLIC "-//W3C//DTD SVG 20010904//EN" "http://www.w3.org/TR/2001/REC-SVG-20010904/DTD/svg10.dtd">
<svg version="1.0" xmlns="http://www.w3.org/2000/svg" width="277px" height="246px" viewBox="0 0 2770 2460" preserveAspectRatio="xMidYMid meet">
<g id="layer101" fill="#030303" stroke="none">
 <path d="M1947 2453 c-2 -5 -21 -79 -42 -165 l-37 -158 -169 0 c-93 0 -169 -4 -169 -8 0 -4 35 -37 77 -72 43 -36 110 -93 150 -126 l72 -62 -227 -118 c-125 -66 -231 -118 -237 -116 -5 2 -248 131 -539 288 -291 156 -531 284 -533 284 -11 0 29 -82 149 -300 l30 -55 -36 34 c-20 19 -39 31 -43 28 -9 -10 -73 53 -73 73 0 9 -24 39 -53 68 l-52 52 -110 -110 -110 -110 203 -203 202 -202 -87 -88 -88 -87 73 -72 72 -73 87 86 88 85 142 -141 141 -140 -270 -503 c-149 -276 -268 -505 -265 -508 2 -3 219 110 482 251 262 141 488 261 501 267 22 10 40 -5 303 -273 l280 -284 1 173 c0 94 2 172 4 172 2 0 133 -70 292 -155 159 -85 292 -155 297 -155 10 0 21 -20 -308 565 -157 281 -287 512 -288 515 -1 3 59 116 133 252 128 235 136 246 155 234 19 -13 43 6 320 250 165 146 302 269 303 274 2 6 -59 10 -166 10 l-169 0 -40 163 -39 162 -201 3 c-111 1 -204 -1 -206 -5z"/>
 </g>
<g id="layer102" fill="#413837" stroke="none">
 <path d="M1947 2453 c-2 -5 -21 -79 -42 -165 l-37 -158 -169 0 c-93 0 -169 -4 -169 -8 0 -4 35 -37 77 -72 43 -36 110 -93 150 -126 l72 -62 -227 -118 c-125 -66 -231 -118 -237 -116 -5 2 -248 131 -539 288 -291 156 -531 284 -533 284 -11 0 29 -82 149 -300 l30 -55 -34 33 -34 32 -110 -109 -110 -110 53 -53 53 -52 103 101 102 102 55 -61 54 -61 -189 -183 -190 -183 73 -73 73 -73 184 190 183 190 173 -175 c96 -96 266 -265 379 -374 113 -110 287 -281 388 -380 177 -175 182 -181 182 -221 l0 -41 283 -152 c155 -83 290 -154 301 -158 23 -9 51 -61 -299 561 -157 281 -287 512 -288 515 -1 3 59 116 133 252 128 235 136 246 155 234 19 -13 43 6 320 250 165 146 302 269 303 274 2 6 -59 10 -166 10 l-169 0 -40 163 -39 162 -201 3 c-111 1 -204 -1 -206 -5z"/>
 <path d="M105 1990 l-109 -110 49 -50 c27 -28 55 -49 62 -48 14 3 213 197 213 207 0 4 -24 30 -53 59 l-52 52 -110 -110z"/>
 <path d="M775 1354 c-22 -25 -47 -54 -55 -63 -49 -52 -52 -46 51 -144 52 -51 243 -245 424 -432 182 -186 400 -409 485 -495 l155 -156 -2 184 -2 184 -138 130 c-76 72 -176 170 -223 217 -173 176 -630 616 -643 619 -7 1 -31 -18 -52 -44z"/>
 <path d="M813 1019 c-58 -97 -525 -980 -520 -985 5 -5 1006 527 1007 536 0 3 -105 113 -233 244 l-234 238 -20 -33z"/>
 </g>
<g id="layer103" fill="#4d3a5f" stroke="none">
 <path d="M1947 2453 c-2 -5 -21 -79 -42 -165 l-37 -158 -169 0 c-93 0 -169 -4 -169 -8 0 -4 35 -37 77 -72 43 -36 110 -93 150 -126 l72 -62 -227 -118 c-125 -66 -231 -118 -237 -116 -5 2 -248 131 -539 288 -291 156 -531 284 -533 284 -11 0 29 -82 149 -300 l30 -55 -36 34 c-20 19 -37 33 -38 30 -2 -2 -50 -52 -107 -111 l-104 -107 51 -53 51 -53 103 102 103 102 55 -61 54 -61 -189 -183 -190 -183 73 -73 73 -73 183 190 183 189 160 -159 c88 -88 341 -335 562 -550 l401 -390 0 -46 0 -45 283 -152 c155 -83 290 -154 301 -158 23 -9 51 -61 -299 561 -157 281 -287 512 -288 515 -1 3 59 116 133 252 128 235 136 246 155 234 19 -13 43 6 320 250 165 146 302 269 303 274 2 6 -59 10 -166 10 l-169 0 -40 163 -39 162 -201 3 c-111 1 -204 -1 -206 -5z"/>
 <path d="M105 1990 l-109 -110 49 -50 c27 -28 55 -49 62 -48 14 3 213 197 213 207 0 4 -24 30 -53 59 l-52 52 -110 -110z"/>
 <path d="M748 1322 l-67 -77 88 -90 c48 -49 296 -304 551 -565 255 -261 474 -486 487 -500 l23 -25 0 181 0 180 -499 487 c-275 268 -503 487 -508 487 -4 -1 -38 -35 -75 -78z"/>
 <path d="M813 1018 c-58 -97 -525 -979 -520 -984 6 -6 1007 529 1004 537 -1 3 -106 113 -233 243 l-232 237 -19 -33z"/>
 </g>
<g id="layer104" fill="#7ac954" stroke="none">
 <path d="M1947 2453 c-2 -5 -21 -79 -42 -165 l-37 -158 -169 0 c-93 0 -169 -4 -169 -8 0 -4 35 -37 77 -72 43 -36 110 -93 150 -126 l72 -62 -227 -118 c-125 -66 -231 -118 -237 -116 -5 2 -248 131 -539 288 -291 156 -531 284 -533 284 -11 0 29 -82 149 -300 l30 -55 -36 34 c-20 19 -37 33 -38 30 -2 -2 -50 -52 -107 -111 l-104 -107 51 -53 51 -53 103 103 103 102 55 -62 54 -61 -189 -183 -190 -183 73 -73 73 -73 183 190 184 190 313 -310 c173 -170 425 -418 562 -549 l247 -240 0 -46 0 -46 283 -152 c155 -83 290 -154 301 -158 23 -9 51 -61 -299 561 -157 281 -287 512 -288 515 -1 3 59 116 133 252 128 235 136 246 155 234 19 -13 43 6 320 250 165 146 302 269 303 274 2 6 -59 10 -166 10 l-169 0 -40 163 -39 162 -201 3 c-111 1 -204 -1 -206 -5z"/>
 <path d="M105 1990 l-109 -110 49 -50 c27 -28 55 -49 62 -48 14 3 213 197 213 207 0 4 -24 30 -53 59 l-52 52 -110 -110z"/>
 <path d="M748 1322 l-67 -77 88 -90 c48 -49 296 -304 551 -565 255 -261 474 -486 487 -500 l23 -25 0 181 0 180 -499 487 c-275 268 -503 487 -508 487 -4 -1 -38 -35 -75 -78z"/>
 <path d="M812 1017 c-58 -97 -524 -978 -519 -983 6 -7 1007 529 1004 538 -1 3 -106 112 -234 242 l-232 235 -19 -32z"/>
 </g>
<g id="layer105" fill="#b58e6d" stroke="none">
 <path d="M290 2192 c0 -8 76 -154 152 -292 l30 -55 -36 34 c-20 19 -37 33 -38 30 -2 -2 -50 -52 -107 -111 l-104 -107 51 -53 51 -53 103 103 103 102 55 -62 54 -61 -189 -183 -190 -183 73 -73 73 -73 183 190 184 190 313 -310 c173 -170 425 -418 562 -549 l247 -240 0 -46 0 -46 283 -152 c155 -83 291 -154 301 -158 22 -9 47 -55 -326 611 l-264 469 96 176 c53 96 116 209 139 251 l41 77 -144 121 c-79 66 -148 121 -152 121 -5 0 -108 -52 -229 -116 -121 -64 -225 -116 -230 -117 -6 0 -251 129 -544 286 -294 158 -536 287 -538 287 -1 0 -3 -4 -3 -8z"/>
 <path d="M105 1990 l-109 -110 49 -50 c27 -28 55 -49 62 -48 14 3 213 197 213 207 0 4 -24 30 -53 59 l-52 52 -110 -110z"/>
 <path d="M748 1322 l-67 -77 88 -90 c48 -49 296 -304 551 -565 255 -261 474 -486 487 -500 l23 -25 0 181 0 180 -499 487 c-275 268 -503 487 -508 487 -4 -1 -38 -35 -75 -78z"/>
 <path d="M812 1017 c-58 -97 -524 -978 -519 -983 6 -7 1007 529 1004 538 -1 3 -106 112 -234 242 l-232 235 -19 -32z"/>
 </g>
<g id="layer106" fill="#9470b8" stroke="none">
 <path d="M290 2192 c0 -5 41 -85 91 -178 50 -93 100 -186 111 -207 11 -20 41 -60 66 -88 l45 -50 94 93 93 93 67 -68 68 -67 -93 -93 -92 -93 288 -284 c159 -157 411 -404 561 -549 l271 -264 0 -46 0 -47 283 -152 c155 -83 291 -154 301 -158 22 -9 47 -55 -326 611 l-264 469 96 176 c53 96 116 209 139 251 l41 77 -144 121 c-79 66 -148 121 -152 121 -5 0 -108 -52 -229 -116 -121 -64 -225 -116 -230 -117 -6 0 -251 129 -544 286 -294 158 -536 287 -538 287 -1 0 -3 -4 -3 -8z"/>
 <path d="M310 1383 l-85 -88 88 85 c81 79 92 90 84 90 -1 0 -41 -39 -87 -87z"/>
 <path d="M748 1322 l-67 -77 88 -90 c48 -49 296 -304 551 -565 255 -261 474 -486 487 -500 l23 -25 0 181 0 180 -499 487 c-275 268 -503 487 -508 487 -4 -1 -38 -35 -75 -78z"/>
 <path d="M812 1017 c-58 -97 -524 -978 -519 -983 6 -7 1007 529 1004 538 -1 3 -106 112 -234 242 l-232 235 -19 -32z"/>
 </g>
<g id="layer107" fill="#c9b984" stroke="none">
 <path d="M1875 1699 c-55 -26 -191 -92 -301 -145 l-202 -96 -227 127 -227 127 -54 -53 -53 -54 56 -127 56 -127 291 -283 c160 -156 332 -323 382 -373 l90 -90 168 -73 c93 -40 170 -72 171 -70 1 2 -67 147 -151 322 -85 175 -154 324 -154 331 0 7 51 118 114 247 168 348 172 357 155 372 -12 11 -30 6 -114 -35z"/>
 <path d="M310 1383 l-85 -88 88 85 c81 79 92 90 84 90 -1 0 -41 -39 -87 -87z"/>
 <path d="M748 1322 l-67 -77 88 -90 c48 -49 296 -304 551 -565 255 -261 474 -486 487 -500 l23 -25 0 181 0 180 -499 487 c-275 268 -503 487 -508 487 -4 -1 -38 -35 -75 -78z"/>
 <path d="M812 684 c-68 -136 -122 -248 -120 -249 6 -6 508 229 506 237 -4 11 -250 258 -257 258 -3 0 -62 -111 -129 -246z"/>
 </g>
<g id="layer108" fill="#fefefe" stroke="none">
 <path d="M797 1378 c-8 -13 -37 -48 -65 -78 l-51 -55 97 -100 c53 -55 191 -197 307 -315 484 -493 654 -668 698 -715 l47 -50 0 179 0 179 -123 121 c-67 66 -262 256 -432 421 -171 165 -339 330 -374 368 -35 37 -70 67 -76 67 -7 0 -19 -10 -28 -22z"/>
 </g>

</svg>