<!DOCTYPE svg PUBLIC "-//W3C//DTD SVG 20010904//EN" "http://www.w3.org/TR/2001/REC-SVG-20010904/DTD/svg10.dtd">
<svg version="1.0" xmlns="http://www.w3.org/2000/svg" width="320px" height="320px" viewBox="0 0 3200 3200" preserveAspectRatio="xMidYMid meet">
<g id="layer101" fill="#000000" stroke="none">
 <path d="M990 2965 l0 -205 -310 0 -310 0 0 -290 0 -290 195 0 195 0 0 -715 c0 -505 -3 -715 -11 -715 -6 0 -8 -11 -4 -29 5 -24 -8 -49 -96 -177 -56 -82 -120 -167 -141 -189 -21 -22 -53 -62 -70 -90 -17 -27 -39 -62 -49 -77 -42 -60 -56 -58 364 -58 412 0 502 8 695 56 526 131 853 480 937 999 12 69 15 193 15 543 l0 452 200 0 200 0 0 290 0 290 -310 0 -310 0 0 205 0 205 -595 0 -595 0 0 -205z"/>
 </g>
<g id="layer102" fill="#b16113" stroke="none">
 <path d="M1160 2880 l0 -120 425 0 425 0 0 120 0 120 -425 0 -425 0 0 -120z"/>
 <path d="M540 2470 l0 -120 1045 0 1045 0 0 120 0 120 -1045 0 -1045 0 0 -120z"/>
 <path d="M930 1423 c0 -878 16 -760 -134 -978 l-97 -140 228 -3 c196 -2 243 0 336 18 458 88 782 344 906 715 53 160 61 255 61 724 l0 421 -650 0 -650 0 0 -757z"/>
 </g>
<g id="layer103" fill="#ffffff" stroke="none">
 <path d="M930 1423 c0 -878 16 -760 -134 -978 l-97 -140 228 -3 c196 -2 243 0 336 18 458 88 782 344 906 715 53 160 61 255 61 724 l0 421 -650 0 -650 0 0 -757z"/>
 </g>

</svg>