<!DOCTYPE svg PUBLIC "-//W3C//DTD SVG 20010904//EN" "http://www.w3.org/TR/2001/REC-SVG-20010904/DTD/svg10.dtd">
<svg version="1.0" xmlns="http://www.w3.org/2000/svg" width="216px" height="258px" viewBox="0 0 2160 2580" preserveAspectRatio="xMidYMid meet">
<g id="layer101" fill="#707154" stroke="none">
 <path d="M532 2448 c-66 -73 -212 -236 -325 -363 l-206 -230 -1 -927 0 -928 1080 0 1080 0 0 928 -1 927 -311 363 -311 362 -443 0 -443 0 -119 -132z"/>
 </g>
<g id="layer102" fill="#7ac954" stroke="none">
 <path d="M532 2448 c-66 -73 -212 -236 -325 -363 l-206 -230 -1 -927 0 -928 1080 0 1080 0 0 928 -1 927 -311 363 -311 362 -443 0 -443 0 -119 -132z m1241 -297 l297 -340 0 -860 0 -861 -990 0 -990 0 0 861 0 860 297 340 297 339 396 0 396 0 297 -339z"/>
 <path d="M482 2061 l-262 -300 2 -768 3 -768 855 0 855 0 2 770 2 770 -261 298 -262 297 -336 0 -336 0 -262 -299z m863 -411 l51 -195 172 -3 171 -2 11 -38 c5 -20 10 -48 10 -61 0 -15 -113 -169 -336 -460 -185 -240 -340 -436 -344 -436 -4 0 -166 197 -359 439 l-351 438 0 59 0 59 197 2 197 3 28 144 c15 80 32 169 38 198 l11 53 227 -2 226 -3 51 -195z"/>
 <path d="M913 1703 c-6 -21 -29 -111 -53 -200 l-43 -162 -145 -3 -145 -3 274 -342 c151 -188 276 -342 279 -342 3 0 128 154 279 342 l274 342 -159 5 -159 5 -51 195 -51 195 -145 3 -145 3 -10 -38z"/>
 </g>
<g id="layer103" fill="#a38b6f" stroke="none">
 <path d="M326 2218 l-325 -363 -1 -927 0 -928 1080 0 1080 0 0 928 -1 927 -312 363 -312 362 -442 0 -442 0 -325 -362z m1447 -67 l297 -340 0 -860 0 -861 -990 0 -990 0 0 861 0 860 297 340 297 339 396 0 396 0 297 -339z"/>
 <path d="M482 2061 l-262 -300 2 -768 3 -768 855 0 855 0 2 770 2 770 -261 298 -262 297 -336 0 -336 0 -262 -299z m863 -411 l51 -195 172 -3 171 -2 11 -38 c5 -20 10 -48 10 -61 0 -15 -113 -169 -336 -460 -185 -240 -340 -436 -344 -436 -4 0 -166 197 -359 439 l-351 438 0 59 0 59 197 2 197 3 28 144 c15 80 32 169 38 198 l11 53 227 -2 226 -3 51 -195z"/>
 </g>

</svg>