<!DOCTYPE svg PUBLIC "-//W3C//DTD SVG 20010904//EN" "http://www.w3.org/TR/2001/REC-SVG-20010904/DTD/svg10.dtd">
<svg version="1.0" xmlns="http://www.w3.org/2000/svg" width="320px" height="320px" viewBox="0 0 3200 3200" preserveAspectRatio="xMidYMid meet">
<g id="layer101" fill="#000000" stroke="none">
 <path d="M590 2872 l0 -218 -55 -54 -55 -54 0 -155 0 -156 72 -72 72 -73 -72 -73 -72 -72 0 -155 0 -155 72 -72 72 -73 -72 -73 -72 -72 0 -155 0 -156 73 -72 72 -72 58 0 c39 0 57 -4 57 -12 0 -26 99 -215 148 -284 140 -197 355 -369 617 -496 55 -26 109 -48 120 -48 11 0 65 22 120 48 262 127 477 299 617 496 49 69 148 258 148 284 0 8 18 12 58 12 l58 0 72 73 72 72 0 155 0 155 -72 72 -72 73 72 73 72 72 0 155 0 155 -72 72 -72 73 72 73 72 72 0 156 0 155 -55 54 -55 54 0 218 0 218 -1035 0 -1035 0 0 -218z"/>
 </g>
<g id="layer102" fill="#587d8b" stroke="none">
 <path d="M760 2780 l0 -140 165 0 165 0 0 140 0 140 -165 0 -165 0 0 -140z"/>
 <path d="M1430 2780 l0 -140 195 0 195 0 0 140 0 140 -195 0 -195 0 0 -140z"/>
 <path d="M2160 2780 l0 -140 165 0 165 0 0 140 0 140 -165 0 -165 0 0 -140z"/>
 <path d="M900 2080 l0 -460 725 0 725 0 0 460 0 460 -725 0 -725 0 0 -460z"/>
 <path d="M672 2497 c-19 -20 -22 -35 -22 -108 0 -76 2 -88 23 -107 18 -17 36 -22 75 -22 l52 0 0 130 0 130 -53 0 c-43 0 -58 -5 -75 -23z"/>
 <path d="M2450 2390 l0 -130 53 0 c43 0 58 5 75 23 19 20 22 35 22 114 0 111 -9 123 -93 123 l-57 0 0 -130z"/>
 <path d="M672 1897 c-19 -20 -22 -35 -22 -108 0 -76 2 -88 23 -107 18 -17 36 -22 75 -22 l52 0 0 130 0 130 -53 0 c-43 0 -58 -5 -75 -23z"/>
 <path d="M2450 1790 l0 -130 53 0 c43 0 58 5 75 23 19 20 22 35 22 114 0 111 -9 123 -93 123 l-57 0 0 -130z"/>
 <path d="M900 1435 l0 -85 725 0 725 0 0 85 0 85 -725 0 -725 0 0 -85z"/>
 <path d="M672 1297 c-19 -20 -22 -35 -22 -108 0 -76 2 -88 23 -107 18 -17 36 -22 75 -22 l52 0 0 130 0 130 -53 0 c-43 0 -58 -5 -75 -23z"/>
 <path d="M2450 1190 l0 -130 53 0 c43 0 58 5 75 23 19 20 22 35 22 114 0 111 -9 123 -93 123 l-57 0 0 -130z"/>
 <path d="M900 1160 c0 -102 18 -167 82 -294 49 -100 110 -178 216 -283 97 -96 168 -151 294 -229 142 -88 122 -86 241 -15 139 84 218 144 318 243 107 106 167 184 217 284 64 127 82 192 82 294 l0 90 -725 0 -725 0 0 -90z"/>
 </g>
<g id="layer103" fill="#98d8f0" stroke="none">
 <path d="M900 2080 l0 -460 725 0 725 0 0 460 0 460 -725 0 -725 0 0 -460z"/>
 <path d="M672 2497 c-19 -20 -22 -35 -22 -108 0 -76 2 -88 23 -107 18 -17 36 -22 75 -22 l52 0 0 130 0 130 -53 0 c-43 0 -58 -5 -75 -23z"/>
 <path d="M2450 2390 l0 -130 53 0 c43 0 58 5 75 23 19 20 22 35 22 114 0 111 -9 123 -93 123 l-57 0 0 -130z"/>
 <path d="M672 1897 c-19 -20 -22 -35 -22 -108 0 -76 2 -88 23 -107 18 -17 36 -22 75 -22 l52 0 0 130 0 130 -53 0 c-43 0 -58 -5 -75 -23z"/>
 <path d="M2450 1790 l0 -130 53 0 c43 0 58 5 75 23 19 20 22 35 22 114 0 111 -9 123 -93 123 l-57 0 0 -130z"/>
 <path d="M672 1297 c-19 -20 -22 -35 -22 -108 0 -76 2 -88 23 -107 18 -17 36 -22 75 -22 l52 0 0 130 0 130 -53 0 c-43 0 -58 -5 -75 -23z"/>
 <path d="M2450 1190 l0 -130 53 0 c43 0 58 5 75 23 19 20 22 35 22 114 0 111 -9 123 -93 123 l-57 0 0 -130z"/>
 <path d="M900 1172 c0 -130 47 -265 139 -401 97 -142 296 -322 477 -430 l107 -64 51 28 c163 91 302 200 425 331 167 179 251 358 251 536 l0 78 -725 0 -725 0 0 -78z"/>
 </g>

</svg>