<!DOCTYPE svg PUBLIC "-//W3C//DTD SVG 20010904//EN" "http://www.w3.org/TR/2001/REC-SVG-20010904/DTD/svg10.dtd">
<svg version="1.0" xmlns="http://www.w3.org/2000/svg" width="40px" height="40px" viewBox="0 0 400 400" preserveAspectRatio="xMidYMid meet">
<g id="layer101" fill="#090909" stroke="none">
 <path d="M57 364 c-13 -13 -7 -52 8 -58 18 -6 20 -47 4 -63 -6 -6 -10 -30 -7 -52 2 -29 0 -41 -10 -41 -10 0 -12 -15 -10 -58 l3 -57 53 -3 c51 -3 53 -2 63 27 16 44 62 44 78 0 10 -29 12 -30 63 -27 l53 3 3 57 c2 36 -1 58 -8 58 -5 0 -10 20 -10 44 0 25 -4 48 -10 51 -16 10 -12 53 6 63 9 5 14 18 12 33 -3 24 -4 24 -144 27 -77 1 -143 -1 -147 -4z"/>
 </g>
<g id="layer102" fill="#626262" stroke="none">
 <path d="M73 338 c3 -10 37 -13 127 -13 90 0 124 3 128 13 3 9 -27 12 -128 12 -101 0 -131 -3 -127 -12z"/>
 <path d="M138 303 c34 -2 90 -2 125 0 34 2 6 3 -63 3 -69 0 -97 -1 -62 -3z"/>
 <path d="M90 271 c0 -10 -3 -33 -6 -50 l-6 -31 122 0 123 0 -7 38 c-3 20 -6 43 -6 50 0 9 -29 12 -110 12 -101 0 -110 -2 -110 -19z m167 -8 c-4 -3 -7 0 -7 7 0 7 3 10 7 7 3 -4 3 -10 0 -14z"/>
 <path d="M110 170 c0 -5 -8 -10 -17 -10 -15 0 -14 -2 3 -14 12 -9 23 -11 29 -5 15 15 32 10 38 -11 4 -15 14 -20 41 -20 29 0 36 4 36 20 0 21 24 28 35 10 4 -6 13 -5 24 2 16 10 17 14 6 25 -16 16 -195 19 -195 3z"/>
 <path d="M60 95 l0 -45 40 0 c38 0 40 2 40 30 0 23 -7 33 -30 45 -44 23 -50 19 -50 -30z"/>
 <path d="M288 124 c-21 -11 -28 -22 -28 -44 0 -28 2 -30 39 -30 42 0 48 8 47 55 -1 35 -19 41 -58 19z"/>
 </g>
<g id="layer103" fill="#f1f1f1" stroke="none">
 <path d="M70 340 c0 -6 50 -10 130 -10 80 0 130 4 130 10 0 6 -50 10 -130 10 -80 0 -130 -4 -130 -10z"/>
 <path d="M96 278 c-3 -7 -6 -28 -9 -45 l-4 -33 117 0 116 0 -5 43 -6 42 -103 3 c-77 2 -103 -1 -106 -10z m21 -15 c-4 -3 -7 0 -7 7 0 7 3 10 7 7 3 -4 3 -10 0 -14z m43 13 c0 -3 -4 -8 -10 -11 -5 -3 -10 -1 -10 4 0 6 5 11 10 11 6 0 10 -2 10 -4z m27 -13 c-4 -3 -7 0 -7 7 0 7 3 10 7 7 3 -4 3 -10 0 -14z m43 7 c0 -5 -4 -10 -10 -10 -5 0 -10 5 -10 10 0 6 5 10 10 10 6 0 10 -4 10 -10z m27 -7 c-4 -3 -7 0 -7 7 0 7 3 10 7 7 3 -4 3 -10 0 -14z m43 7 c0 -5 -4 -10 -10 -10 -5 0 -10 5 -10 10 0 6 5 10 10 10 6 0 10 -4 10 -10z"/>
 <path d="M110 170 c0 -5 -8 -10 -17 -11 -15 0 -15 -2 2 -9 11 -4 30 -6 43 -3 18 4 25 0 29 -16 8 -30 58 -30 66 0 4 16 11 20 29 16 13 -3 32 -1 43 3 17 7 17 9 3 9 -10 1 -18 6 -18 11 0 6 -37 10 -90 10 -53 0 -90 -4 -90 -10z"/>
 <path d="M62 93 c3 -36 5 -38 41 -41 35 -3 37 -2 37 26 0 21 -7 32 -25 40 -46 21 -57 16 -53 -25z m15 -20 c-4 -3 -7 0 -7 7 0 7 3 10 7 7 3 -4 3 -10 0 -14z"/>
 <path d="M283 118 c-16 -8 -23 -20 -23 -40 0 -28 2 -29 38 -26 35 3 37 5 40 41 3 40 -10 47 -55 25z m44 -45 c-4 -3 -7 0 -7 7 0 7 3 10 7 7 3 -4 3 -10 0 -14z"/>
 </g>

</svg>