<!DOCTYPE svg PUBLIC "-//W3C//DTD SVG 20010904//EN" "http://www.w3.org/TR/2001/REC-SVG-20010904/DTD/svg10.dtd">
<svg version="1.0" xmlns="http://www.w3.org/2000/svg" width="200px" height="200px" viewBox="0 0 2000 2000" preserveAspectRatio="xMidYMid meet">
<g id="layer101" fill="#030202" stroke="none">
 <path d="M735 1685 c-232 -62 -367 -189 -419 -393 -45 -176 17 -420 149 -592 98 -128 220 -216 407 -295 170 -72 251 -90 408 -90 144 0 258 18 267 42 10 25 -23 75 -112 173 -48 52 -110 122 -137 154 l-50 60 39 20 c133 71 206 196 219 378 15 203 -68 375 -230 480 -98 63 -163 78 -340 77 -93 0 -170 -5 -201 -14z"/>
 </g>
<g id="layer102" fill="#531801" stroke="none">
 <path d="M1048 1693 c12 -2 30 -2 40 0 9 3 -1 5 -23 4 -22 0 -30 -2 -17 -4z"/>
 <path d="M1181 1666 c10 -9 89 -46 89 -41 0 5 -75 45 -86 45 -4 0 -5 -2 -3 -4z"/>
 <path d="M750 1581 c-115 -37 -200 -94 -250 -165 -123 -180 -79 -498 96 -694 123 -137 377 -271 574 -302 72 -11 200 -13 224 -4 12 5 -13 36 -100 128 -64 66 -129 140 -145 163 -34 48 -49 103 -29 103 8 0 42 14 77 31 123 60 179 178 171 362 -3 77 -9 114 -26 150 -25 57 -124 157 -183 187 -111 57 -301 76 -409 41z"/>
 <path d="M1355 1550 c27 -27 51 -50 54 -50 3 0 -17 23 -44 50 -27 28 -51 50 -54 50 -3 0 17 -22 44 -50z"/>
 <path d="M440 1525 c-24 -25 -42 -45 -39 -45 3 0 25 20 49 45 24 25 42 45 39 45 -3 0 -25 -20 -49 -45z"/>
 <path d="M306 1258 c-7 -29 -6 -163 3 -202 3 -17 6 27 6 97 0 70 -1 127 -1 127 -1 0 -4 -10 -8 -22z"/>
 <path d="M1503 1185 c0 -38 2 -53 4 -32 2 20 2 52 0 70 -2 17 -4 1 -4 -38z"/>
 <path d="M535 620 c33 -33 62 -60 64 -60 3 0 -21 27 -54 60 -33 33 -62 60 -64 60 -3 0 21 -27 54 -60z"/>
 <path d="M1340 625 c19 -19 36 -35 39 -35 3 0 -10 16 -29 35 -19 19 -36 35 -39 35 -3 0 10 -16 29 -35z"/>
 <path d="M1430 528 c41 -45 50 -53 50 -45 0 2 -21 23 -47 47 l-48 45 45 -47z"/>
 <path d="M790 440 c19 -11 40 -19 45 -19 6 0 -6 8 -25 19 -19 11 -39 19 -45 19 -5 0 6 -8 25 -19z"/>
 <path d="M1188 313 c12 -2 30 -2 40 0 9 3 -1 5 -23 4 -22 0 -30 -2 -17 -4z"/>
 <path d="M1348 313 c12 -2 30 -2 40 0 9 3 -1 5 -23 4 -22 0 -30 -2 -17 -4z"/>
 </g>
<g id="layer103" fill="#606060" stroke="none">
 <path d="M820 1593 c-76 -13 -179 -56 -233 -98 -154 -121 -195 -321 -113 -557 69 -199 253 -363 524 -468 102 -39 265 -64 349 -54 l52 6 -98 107 c-131 140 -171 189 -187 228 -22 50 -18 57 38 71 107 25 186 128 209 272 23 148 -5 252 -93 346 -33 35 -64 64 -67 64 -4 0 -2 -28 5 -62 16 -76 18 -205 4 -279 -13 -70 -51 -116 -126 -154 -55 -27 -67 -30 -164 -29 -122 1 -190 23 -240 80 -70 80 -66 220 9 295 67 67 195 76 232 15 33 -53 27 -65 -34 -63 -29 0 -58 -3 -65 -7 -41 -25 -32 -123 14 -153 36 -23 142 -23 178 1 52 33 66 71 65 176 0 52 -6 129 -12 170 l-12 75 -65 12 c-65 12 -122 14 -170 6z"/>
 <path d="M440 1525 c-24 -25 -42 -45 -39 -45 3 0 25 20 49 45 24 25 42 45 39 45 -3 0 -25 -20 -49 -45z"/>
 <path d="M304 1165 c0 -49 1 -71 3 -48 2 23 2 64 0 90 -2 26 -3 8 -3 -42z"/>
 <path d="M1503 1185 c0 -38 2 -53 4 -32 2 20 2 52 0 70 -2 17 -4 1 -4 -38z"/>
 <path d="M535 620 c33 -33 62 -60 64 -60 3 0 -21 27 -54 60 -33 33 -62 60 -64 60 -3 0 21 -27 54 -60z"/>
 <path d="M1320 647 c0 -2 15 -16 33 -33 l32 -29 -29 33 c-28 30 -36 37 -36 29z"/>
 <path d="M1435 520 c21 -22 41 -40 44 -40 3 0 -13 18 -34 40 -21 22 -41 40 -44 40 -3 0 13 -18 34 -40z"/>
 <path d="M1183 313 c9 -2 25 -2 35 0 9 3 1 5 -18 5 -19 0 -27 -2 -17 -5z"/>
 <path d="M1353 313 c9 -2 25 -2 35 0 9 3 1 5 -18 5 -19 0 -27 -2 -17 -5z"/>
 </g>
<g id="layer104" fill="#fe4902" stroke="none">
 <path d="M820 1593 c-76 -13 -179 -56 -233 -98 -154 -121 -195 -321 -113 -557 69 -199 253 -363 524 -468 102 -39 265 -64 349 -54 l52 6 -98 107 c-131 140 -171 189 -187 228 -22 50 -18 57 38 71 107 25 186 128 209 272 23 148 -5 252 -93 346 -33 35 -64 64 -67 64 -4 0 -2 -28 5 -62 16 -76 18 -205 4 -279 -13 -70 -51 -116 -126 -154 -55 -27 -67 -30 -164 -29 -122 1 -190 23 -240 80 -70 80 -66 220 9 295 67 67 195 76 232 15 33 -53 27 -65 -34 -63 -29 0 -58 -3 -65 -7 -41 -25 -32 -123 14 -153 36 -23 142 -23 178 1 52 33 66 71 65 176 0 52 -6 129 -12 170 l-12 75 -65 12 c-65 12 -122 14 -170 6z"/>
 </g>
<g id="layer105" fill="#a0a0a0" stroke="none">
 </g>
<g id="layer106" fill="#d2d2d2" stroke="none">
 </g>

</svg>