<!DOCTYPE svg PUBLIC "-//W3C//DTD SVG 20010904//EN" "http://www.w3.org/TR/2001/REC-SVG-20010904/DTD/svg10.dtd">
<svg version="1.0" xmlns="http://www.w3.org/2000/svg" width="40px" height="40px" viewBox="0 0 400 400" preserveAspectRatio="xMidYMid meet">
<g id="layer101" fill="#0b0b0b" stroke="none">
 <path d="M118 365 c-3 -4 -4 -41 -1 -84 4 -53 2 -80 -6 -85 -6 -4 -11 -33 -11 -67 0 -51 2 -59 19 -59 12 0 18 -7 17 -17 -1 -15 9 -19 57 -21 44 -2 59 0 63 12 3 9 15 16 25 16 17 0 18 9 15 153 l-4 152 -84 3 c-46 1 -87 0 -90 -3z"/>
 </g>
<g id="layer102" fill="#585858" stroke="none">
 <path d="M134 334 c3 -9 6 -31 6 -50 l0 -34 63 0 64 0 1 30 c0 17 4 39 7 50 6 19 2 20 -70 20 -66 0 -76 -2 -71 -16z m103 -1 c-20 -2 -52 -2 -70 0 -17 2 0 4 38 4 39 0 53 -2 32 -4z"/>
 <path d="M140 215 c0 -12 14 -15 65 -15 51 0 65 3 65 15 0 12 -14 15 -65 15 -51 0 -65 -3 -65 -15z"/>
 <path d="M167 182 c-11 -2 -17 -13 -17 -33 0 -29 0 -29 60 -29 60 0 60 0 60 29 0 27 -3 29 -43 32 -24 2 -51 3 -60 1z"/>
 <path d="M125 168 c-11 -38 -11 -78 2 -78 9 0 13 14 13 45 0 44 -6 58 -15 33z"/>
 <path d="M150 80 c0 -16 5 -30 10 -30 6 0 10 14 10 30 0 17 -4 30 -10 30 -5 0 -10 -13 -10 -30z"/>
 <path d="M190 80 c0 -16 5 -30 10 -30 6 0 10 14 10 30 0 17 -4 30 -10 30 -5 0 -10 -13 -10 -30z"/>
 <path d="M220 80 c0 -20 5 -30 15 -30 10 0 15 10 15 30 0 20 -5 30 -15 30 -10 0 -15 -10 -15 -30z"/>
 <path d="M260 96 c0 -8 5 -18 10 -21 6 -3 10 3 10 14 0 12 -4 21 -10 21 -5 0 -10 -6 -10 -14z"/>
 </g>
<g id="layer103" fill="#a7a7a7" stroke="none">
 <path d="M168 343 c23 -2 59 -2 80 0 20 2 1 4 -43 4 -44 0 -61 -2 -37 -4z"/>
 <path d="M140 285 l0 -35 63 0 62 0 2 35 3 35 -65 0 -65 0 0 -35z"/>
 <path d="M140 220 c0 -6 28 -10 65 -10 37 0 65 4 65 10 0 6 -28 10 -65 10 -37 0 -65 -4 -65 -10z"/>
 <path d="M126 164 c-10 -25 -7 -74 4 -74 6 0 10 20 10 45 0 47 -4 55 -14 29z"/>
 <path d="M150 150 l0 -30 60 0 60 0 0 30 0 30 -60 0 -60 0 0 -30z"/>
 <path d="M190 85 c0 -14 5 -25 10 -25 6 0 10 11 10 25 0 14 -4 25 -10 25 -5 0 -10 -11 -10 -25z"/>
 <path d="M260 95 c0 -8 5 -15 10 -15 6 0 10 7 10 15 0 8 -4 15 -10 15 -5 0 -10 -7 -10 -15z"/>
 </g>
<g id="layer104" fill="#f6f6f6" stroke="none">
 <path d="M168 343 c23 -2 59 -2 80 0 20 2 1 4 -43 4 -44 0 -61 -2 -37 -4z"/>
 <path d="M141 288 c0 -18 3 -27 6 -20 2 6 9 12 14 12 6 0 7 -4 4 -10 -3 -5 1 -10 10 -10 9 0 13 5 10 10 -3 6 -2 10 4 10 5 0 12 -6 15 -12 5 -10 7 -10 12 0 3 6 10 12 15 12 6 0 7 -4 4 -10 -3 -5 1 -10 10 -10 9 0 13 5 10 10 -3 6 -1 10 4 10 6 0 11 9 11 20 0 18 -7 20 -65 20 l-65 0 1 -32z"/>
 <path d="M140 220 c0 -6 28 -10 65 -10 37 0 65 4 65 10 0 6 -28 10 -65 10 -37 0 -65 -4 -65 -10z"/>
 <path d="M150 155 c0 -14 5 -25 10 -25 6 0 10 5 10 10 0 6 5 10 11 10 5 0 7 -4 4 -10 -3 -5 1 -10 9 -10 9 0 16 5 16 10 0 6 5 10 11 10 5 0 7 -4 4 -10 -3 -5 1 -10 10 -10 9 0 13 5 10 10 -3 6 -2 10 4 10 5 0 12 -6 14 -12 3 -7 6 -1 6 15 1 27 0 27 -59 27 -57 0 -60 -1 -60 -25z"/>
 </g>

</svg>