<!DOCTYPE svg PUBLIC "-//W3C//DTD SVG 20010904//EN" "http://www.w3.org/TR/2001/REC-SVG-20010904/DTD/svg10.dtd">
<svg version="1.0" xmlns="http://www.w3.org/2000/svg" width="320px" height="320px" viewBox="0 0 3200 3200" preserveAspectRatio="xMidYMid meet">
<g id="layer101" fill="#000000" stroke="none">
 <path d="M932 3080 c-60 -37 -72 -70 -72 -205 0 -102 3 -125 20 -153 23 -37 75 -72 108 -72 l22 0 0 -529 0 -529 -34 -12 c-56 -18 -171 -105 -210 -158 -20 -28 -48 -76 -64 -108 l-27 -59 -3 -395 c-2 -381 -2 -396 18 -428 37 -60 70 -72 203 -72 l117 0 0 -130 0 -130 525 0 525 0 0 85 0 85 135 0 135 0 -2 1190 -3 1190 25 0 c35 0 87 34 110 72 17 28 20 51 20 153 0 135 -12 168 -72 205 -32 19 -52 20 -738 20 -686 0 -706 -1 -738 -20z"/>
 </g>
<g id="layer102" fill="#949494" stroke="none">
 <path d="M1034 2916 c-3 -8 -4 -31 -2 -52 l3 -39 635 0 635 0 0 50 0 50 -633 3 c-535 2 -633 0 -638 -12z"/>
 <path d="M1180 2520 l0 -130 75 0 75 0 0 -75 0 -75 -75 0 -75 0 0 -75 0 -75 490 0 490 0 0 75 0 75 -75 0 -75 0 0 75 0 75 75 0 75 0 0 130 0 130 -490 0 -490 0 0 -130z m430 -205 l0 -75 -75 0 -75 0 0 75 0 75 75 0 75 0 0 -75z m280 0 l0 -75 -75 0 -75 0 0 75 0 75 75 0 75 0 0 -75z"/>
 <path d="M1180 1800 l0 -120 490 0 490 0 0 120 0 120 -490 0 -490 0 0 -120z"/>
 <path d="M1180 1215 l0 -295 490 0 490 0 0 295 0 295 -490 0 -490 0 0 -295z m290 -40 l0 -75 -75 0 -75 0 0 75 0 75 75 0 75 0 0 -75z m280 0 l0 -75 -75 0 -75 0 0 75 0 75 75 0 75 0 0 -75z m280 0 l0 -75 -75 0 -75 0 0 75 0 75 75 0 75 0 0 -75z"/>
 <path d="M945 1338 c-35 -35 -60 -73 -76 -113 -23 -59 -24 -67 -24 -375 l0 -315 83 -3 82 -3 0 431 c0 236 -3 430 -7 430 -3 0 -29 -24 -58 -52z"/>
 <path d="M1180 545 l0 -275 85 0 85 0 0 275 0 275 -85 0 -85 0 0 -275z"/>
 <path d="M1450 545 l0 -275 85 0 85 0 0 275 0 275 -85 0 -85 0 0 -275z"/>
 <path d="M1720 545 l0 -275 85 0 85 0 0 275 0 275 -85 0 -85 0 0 -275z"/>
 <path d="M1990 630 l0 -190 85 0 85 0 0 190 0 190 -85 0 -85 0 0 -190z"/>
 </g>
<g id="layer103" fill="#f8f8f8" stroke="none">
 <path d="M1043 2923 c-20 -7 -17 -89 3 -97 20 -8 1228 -8 1248 0 22 9 22 89 0 98 -19 7 -1233 7 -1251 -1z"/>
 <path d="M1180 2520 l0 -130 75 0 75 0 0 -75 0 -75 -75 0 -75 0 0 -75 0 -75 490 0 490 0 0 75 0 75 -75 0 -75 0 0 75 0 75 75 0 75 0 0 130 0 130 -490 0 -490 0 0 -130z m430 -205 l0 -75 -75 0 -75 0 0 75 0 75 75 0 75 0 0 -75z m280 0 l0 -75 -75 0 -75 0 0 75 0 75 75 0 75 0 0 -75z"/>
 <path d="M1180 1800 l0 -120 490 0 490 0 0 120 0 120 -490 0 -490 0 0 -120z"/>
 <path d="M1180 1215 l0 -295 490 0 490 0 0 295 0 295 -490 0 -490 0 0 -295z m290 -40 l0 -75 -75 0 -75 0 0 75 0 75 75 0 75 0 0 -75z m280 0 l0 -75 -75 0 -75 0 0 75 0 75 75 0 75 0 0 -75z m280 0 l0 -75 -75 0 -75 0 0 75 0 75 75 0 75 0 0 -75z"/>
 </g>

</svg>