<!DOCTYPE svg PUBLIC "-//W3C//DTD SVG 20010904//EN" "http://www.w3.org/TR/2001/REC-SVG-20010904/DTD/svg10.dtd">
<svg version="1.0" xmlns="http://www.w3.org/2000/svg" width="40px" height="40px" viewBox="0 0 400 400" preserveAspectRatio="xMidYMid meet">
<g id="layer101" fill="#0e0e0e" stroke="none">
 <path d="M107 374 c-4 -4 1 -19 10 -35 16 -27 16 -28 -25 -66 -23 -22 -39 -42 -35 -46 3 -4 1 -7 -5 -7 -20 0 -14 -51 6 -57 14 -3 17 -12 14 -32 -3 -23 4 -34 43 -65 44 -36 49 -38 104 -34 42 3 67 11 89 29 29 22 31 28 31 91 1 62 -2 70 -31 103 -31 36 -31 36 -15 71 10 19 17 39 17 44 0 11 -193 14 -203 4z"/>
 </g>
<g id="layer102" fill="#5f5f5f" stroke="none">
 <path d="M133 346 c5 -15 149 -15 154 0 2 7 -23 11 -77 11 -54 0 -79 -4 -77 -11z"/>
 <path d="M152 308 c7 -20 104 -23 111 -3 5 12 -4 15 -54 15 -44 0 -60 -3 -57 -12z"/>
 <path d="M96 250 c-55 -62 -50 -70 43 -70 60 0 80 -4 84 -15 5 -11 -8 -15 -65 -17 -78 -3 -92 -14 -59 -47 18 -18 29 -20 83 -15 35 4 78 15 97 26 28 16 32 16 21 3 -24 -29 -67 -45 -122 -46 -67 -1 -37 -17 34 -18 35 -1 53 5 75 23 26 22 30 32 31 83 1 52 -1 61 -30 90 -21 22 -41 33 -60 33 -15 0 -28 -4 -28 -9 0 -14 58 -69 77 -73 43 -8 20 -69 -26 -67 -25 1 -25 2 4 8 33 7 51 51 20 51 -9 0 -39 22 -67 50 -28 28 -56 50 -63 50 -7 0 -29 -18 -49 -40z"/>
 </g>
<g id="layer103" fill="#a9a9a9" stroke="none">
 <path d="M130 348 c0 -4 36 -8 80 -8 44 0 80 4 80 8 0 4 -36 8 -80 8 -44 0 -80 -4 -80 -8z"/>
 <path d="M150 309 c0 -6 7 -8 16 -5 8 3 12 2 9 -4 -4 -6 12 -10 38 -10 31 0 47 5 51 15 4 12 -5 15 -54 15 -37 0 -60 -4 -60 -11z"/>
 <path d="M98 247 c-56 -61 -52 -67 47 -67 70 0 85 -3 85 -16 0 -11 8 -14 27 -12 32 4 42 25 16 35 -10 3 -41 28 -70 55 -28 26 -55 48 -60 47 -4 -1 -25 -19 -45 -42z"/>
 <path d="M220 244 c14 -14 36 -30 50 -37 28 -14 37 -41 20 -62 -8 -10 -34 -12 -110 -8 -103 6 -116 1 -82 -30 13 -12 37 -17 85 -17 60 0 70 3 102 31 25 23 35 39 35 61 0 40 -50 88 -93 88 l-30 0 23 -26z"/>
 <path d="M282 99 c-28 -25 -40 -29 -90 -29 -40 0 -53 -3 -42 -10 8 -5 36 -10 62 -10 38 0 54 6 79 28 18 16 30 33 28 40 -2 6 -18 -2 -37 -19z"/>
 </g>
<g id="layer104" fill="#fafafa" stroke="none">
 <path d="M143 348 c-10 -3 18 -7 61 -7 44 -1 76 2 73 5 -9 9 -113 11 -134 2z"/>
 <path d="M168 313 c6 -2 10 -9 6 -14 -3 -5 16 -9 43 -8 34 0 42 3 28 8 l-20 8 20 5 c11 3 -5 6 -35 6 -30 0 -49 -2 -42 -5z"/>
 <path d="M96 240 c-20 -22 -36 -45 -36 -50 0 -6 35 -10 85 -10 69 0 85 -3 85 -15 0 -8 7 -15 15 -15 9 0 12 6 9 15 -4 10 0 15 12 16 15 0 15 2 4 6 -8 3 -36 25 -62 49 -26 24 -54 44 -61 44 -8 0 -31 -18 -51 -40z"/>
 <path d="M222 248 c15 -22 29 -32 61 -42 14 -4 17 -14 15 -38 l-3 -33 -102 4 c-86 3 -103 1 -103 -12 0 -30 28 -39 101 -35 65 3 74 6 100 36 16 18 29 41 29 52 0 30 -58 90 -87 90 -24 0 -25 -1 -11 -22z"/>
 <path d="M281 93 c-24 -16 -49 -23 -85 -24 -47 -1 -49 -1 -23 -11 37 -13 85 -3 122 26 40 32 29 39 -14 9z"/>
 </g>

</svg>