<!DOCTYPE svg PUBLIC "-//W3C//DTD SVG 20010904//EN" "http://www.w3.org/TR/2001/REC-SVG-20010904/DTD/svg10.dtd">
<svg version="1.0" xmlns="http://www.w3.org/2000/svg" width="320px" height="320px" viewBox="0 0 3200 3200" preserveAspectRatio="xMidYMid meet">
<g id="layer101" fill="#000000" stroke="none">
 <path d="M840 2938 c0 -136 3 -170 19 -203 21 -47 98 -135 135 -154 22 -12 26 -22 27 -60 1 -25 4 -57 9 -71 6 -23 -19 -51 -280 -315 -305 -309 -346 -360 -396 -502 -20 -57 -24 -87 -24 -190 l0 -123 151 0 150 0 -3 -31 c-3 -27 -9 -32 -56 -48 -65 -22 -124 -77 -159 -149 -23 -47 -25 -61 -21 -140 3 -76 9 -99 41 -166 64 -134 186 -233 337 -271 58 -15 68 -21 90 -57 75 -121 297 -259 501 -312 159 -42 233 -49 436 -44 359 10 571 82 755 257 93 88 159 189 202 309 l31 87 0 450 0 450 -28 60 c-24 50 -67 100 -273 305 l-244 246 0 150 0 151 26 14 c37 19 114 107 135 154 16 33 19 67 19 203 l0 162 -790 0 -790 0 0 -162z"/>
 </g>
<g id="layer102" fill="#a1a1a1" stroke="none">
 <path d="M1012 2834 l3 -96 37 -34 38 -34 540 0 540 0 38 34 37 34 3 96 4 96 -51 0 -51 0 0 -50 0 -50 -85 0 -85 0 0 50 0 50 -35 0 -35 0 0 -50 0 -50 -85 0 -85 0 0 50 0 50 -110 0 -110 0 0 -50 0 -50 -85 0 -85 0 0 50 0 50 -35 0 -35 0 0 -50 0 -50 -85 0 -85 0 0 50 0 50 -51 0 -51 0 4 -96z"/>
 <path d="M1194 2528 c11 -67 50 -142 90 -173 68 -52 84 -54 449 -55 l337 0 0 135 0 135 -441 0 -442 0 7 -42z"/>
 <path d="M873 2037 c-230 -232 -259 -265 -314 -367 -25 -46 -59 -141 -59 -166 0 -12 107 -14 680 -14 l680 0 0 -195 c0 -255 -16 -237 209 -233 167 3 168 3 205 32 43 33 76 100 76 156 0 90 -69 176 -149 187 -36 5 -67 34 -382 349 -333 333 -344 344 -388 349 -106 15 -235 67 -272 111 -36 43 -35 43 -286 -209z m1344 -739 c47 -44 14 -128 -51 -128 -40 0 -76 35 -76 74 0 66 78 100 127 54z"/>
 <path d="M1960 1866 c231 -230 271 -266 308 -276 67 -17 117 -47 162 -96 56 -61 81 -120 87 -210 l6 -74 48 0 49 0 0 195 c0 153 -3 204 -15 233 -10 24 -95 117 -243 265 l-227 227 -220 0 -220 0 265 -264z"/>
 <path d="M664 1026 c-37 -32 -39 -36 -38 -92 1 -100 68 -206 163 -257 l50 -28 613 3 c600 3 614 4 670 25 87 33 143 69 197 129 l50 54 85 0 c47 0 86 -4 86 -8 0 -5 -14 -29 -30 -54 -94 -142 -215 -231 -380 -281 -21 -7 -235 -13 -550 -16 l-515 -6 60 -47 c79 -63 186 -114 304 -145 87 -24 114 -26 301 -27 224 -1 290 7 425 55 127 44 208 95 288 179 168 176 193 355 69 483 l-46 47 -46 -43 c-58 -55 -93 -73 -171 -92 -75 -17 -363 -21 -421 -5 -49 14 -94 62 -107 116 l-11 44 -503 0 -504 0 -39 -34z"/>
 </g>
<g id="layer103" fill="#fdfdfd" stroke="none">
 <path d="M1010 2854 c0 -86 18 -136 59 -162 23 -15 77 -17 561 -17 484 0 538 2 561 17 41 26 59 76 59 162 l0 76 -50 0 -50 0 0 -50 0 -50 -85 0 -85 0 0 50 0 50 -35 0 -35 0 0 -50 0 -50 -85 0 -85 0 0 50 0 50 -110 0 -110 0 0 -50 0 -50 -85 0 -85 0 0 50 0 50 -35 0 -35 0 0 -50 0 -50 -85 0 -85 0 0 50 0 50 -50 0 -50 0 0 -76z"/>
 <path d="M1340 2495 l0 -75 -50 0 c-27 0 -50 -4 -50 -9 0 -5 18 -25 39 -44 69 -62 103 -67 468 -67 l323 0 0 60 0 60 -75 0 -75 0 0 75 0 75 -45 0 -45 0 0 -75 0 -75 -75 0 -75 0 0 75 0 75 -45 0 -45 0 0 -75 0 -75 -75 0 -75 0 0 75 0 75 -50 0 -50 0 0 -75z"/>
 <path d="M859 2013 c-241 -244 -258 -263 -297 -343 -23 -47 -45 -107 -48 -133 l-7 -47 677 0 676 0 0 -189 c0 -247 -8 -235 164 -239 159 -4 223 8 263 51 45 47 56 75 56 137 0 91 -52 161 -133 179 -41 9 -72 37 -389 354 l-343 344 -52 6 c-73 7 -172 43 -233 83 -29 19 -55 39 -58 44 -3 6 -10 10 -14 10 -4 0 -122 -116 -262 -257z m1361 -713 c12 -12 20 -33 20 -55 0 -22 -8 -43 -20 -55 -12 -12 -33 -20 -55 -20 -22 0 -43 8 -55 20 -12 12 -20 33 -20 55 0 22 8 43 20 55 12 12 33 20 55 20 22 0 43 -8 55 -20z"/>
 <path d="M1954 1871 c253 -253 261 -260 324 -280 157 -52 242 -163 242 -316 l0 -65 50 0 50 0 0 174 c0 274 17 240 -254 514 l-230 232 -220 0 -221 0 259 -259z"/>
 <path d="M703 1049 c-44 -13 -78 -63 -77 -115 1 -48 44 -148 82 -188 15 -16 50 -44 79 -62 l52 -34 571 0 c631 0 667 3 784 62 35 18 85 55 117 89 l57 59 86 0 c52 0 86 -4 86 -10 0 -20 -54 -96 -109 -154 -89 -93 -184 -149 -306 -181 -49 -12 -142 -15 -555 -15 l-495 -1 48 -44 c93 -86 262 -151 450 -175 247 -31 565 17 709 107 21 13 42 23 48 23 5 0 47 37 93 83 65 64 93 100 126 167 41 82 43 87 37 153 -8 86 -24 124 -76 181 l-42 46 -20 -25 c-30 -39 -99 -82 -166 -104 -54 -18 -86 -21 -252 -21 -209 0 -240 6 -279 56 -12 15 -27 48 -34 71 l-11 43 -486 -1 c-267 0 -499 -5 -517 -10z"/>
 </g>

</svg>