<!DOCTYPE svg PUBLIC "-//W3C//DTD SVG 20010904//EN" "http://www.w3.org/TR/2001/REC-SVG-20010904/DTD/svg10.dtd">
<svg version="1.0" xmlns="http://www.w3.org/2000/svg" width="320px" height="320px" viewBox="0 0 3200 3200" preserveAspectRatio="xMidYMid meet">
<g id="layer101" fill="#000000" stroke="none">
 <path d="M440 2822 l0 -127 205 -205 205 -205 205 205 205 205 0 127 0 128 -410 0 -410 0 0 -128z"/>
 <path d="M1900 2822 l0 -127 205 -205 205 -205 205 205 205 205 0 127 0 128 -410 0 -410 0 0 -128z"/>
 <path d="M857 1662 l-507 -507 0 -205 0 -205 273 -273 272 -272 685 0 685 0 273 273 272 272 0 205 0 205 -508 508 -507 507 -215 0 -215 0 -508 -508z"/>
 </g>
<g id="layer102" fill="#2f2f2f" stroke="none">
 <path d="M610 2757 c0 -15 37 -59 120 -142 l120 -120 120 120 c83 83 120 127 120 142 l0 23 -240 0 -240 0 0 -23z"/>
 <path d="M2070 2757 c0 -15 37 -59 120 -142 l120 -120 120 120 c83 83 120 127 120 142 l0 23 -240 0 -240 0 0 -23z"/>
 <path d="M983 1578 l-463 -463 0 -42 0 -43 1060 0 1060 0 0 43 0 43 -463 462 -464 462 -133 0 -134 0 -463 -462z"/>
 <path d="M520 822 c0 -35 11 -48 208 -245 l207 -207 645 0 645 0 208 208 c196 196 207 209 207 245 l0 37 -1060 0 -1060 0 0 -38z"/>
 </g>
<g id="layer103" fill="#505050" stroke="none">
 <path d="M610 2762 c0 -9 54 -71 120 -137 l120 -120 120 120 c66 66 120 128 120 137 0 17 -17 18 -240 18 -223 0 -240 -1 -240 -18z"/>
 <path d="M2070 2762 c0 -9 54 -71 120 -137 l120 -120 120 120 c66 66 120 128 120 137 0 17 -17 18 -240 18 -223 0 -240 -1 -240 -18z"/>
 <path d="M1513 2032 c-7 -4 -42 -71 -79 -147 -36 -77 -88 -185 -114 -240 -211 -442 -273 -573 -281 -592 l-9 -23 550 0 c303 0 550 2 550 4 0 6 -321 678 -456 954 l-26 52 -61 0 c-34 0 -67 -4 -74 -8z"/>
 <path d="M952 1537 c-416 -416 -432 -433 -432 -470 l0 -37 210 2 210 3 89 185 c48 102 136 284 195 404 59 120 116 240 128 265 11 25 25 54 30 64 5 9 7 17 6 17 -2 0 -198 -195 -436 -433z"/>
 <path d="M1803 1900 c19 -41 72 -151 117 -245 45 -93 106 -219 135 -280 29 -60 78 -163 109 -227 l56 -118 210 0 210 0 0 38 c0 36 -16 53 -436 472 l-435 435 34 -75z"/>
 <path d="M520 822 c0 -35 11 -48 210 -247 l210 -210 0 248 0 247 -210 0 -210 0 0 -38z"/>
 <path d="M1280 615 l245 -245 55 0 55 0 245 245 245 245 -545 0 -545 0 245 -245z"/>
 <path d="M2220 613 l0 -248 210 210 c199 199 210 212 210 247 l0 38 -210 0 -210 0 0 -247z"/>
 <path d="M1040 540 l0 -170 172 0 173 0 -170 170 c-93 94 -171 170 -172 170 -2 0 -3 -76 -3 -170z"/>
 <path d="M1945 540 l-170 -170 173 0 172 0 0 170 c0 94 -1 170 -3 170 -1 0 -79 -76 -172 -170z"/>
 </g>
<g id="layer104" fill="#888888" stroke="none">
 <path d="M1424 1843 c-53 -109 -136 -281 -184 -383 -48 -102 -113 -238 -144 -302 -31 -65 -56 -120 -56 -123 0 -3 243 -5 540 -5 297 0 540 2 540 4 0 6 -74 164 -174 370 -53 109 -96 200 -96 201 0 5 -180 379 -194 405 -13 22 -23 25 -76 28 l-61 3 -95 -198z"/>
 <path d="M520 827 c0 -29 23 -55 210 -242 l210 -210 0 243 0 242 -210 0 -210 0 0 -33z"/>
 <path d="M1280 615 l245 -245 55 0 55 0 245 245 245 245 -545 0 -545 0 245 -245z"/>
 <path d="M2220 618 l0 -243 210 210 c187 187 210 213 210 242 l0 33 -210 0 -210 0 0 -242z"/>
 </g>
<g id="layer105" fill="#ffffff" stroke="none">
 <path d="M1451 1898 c-38 -79 -89 -186 -114 -238 -25 -52 -102 -214 -171 -358 -69 -145 -126 -266 -126 -268 0 -2 243 -4 540 -4 297 0 540 2 540 5 0 3 -40 88 -88 188 -49 100 -111 229 -138 287 -27 58 -52 107 -56 108 -5 2 -8 9 -8 15 0 7 -26 66 -58 132 -33 66 -76 155 -96 198 l-37 77 -60 0 -60 0 -68 -142z"/>
 <path d="M1280 615 l245 -245 55 0 55 0 245 245 245 245 -545 0 -545 0 245 -245z"/>
 </g>

</svg>