<!DOCTYPE svg PUBLIC "-//W3C//DTD SVG 20010904//EN" "http://www.w3.org/TR/2001/REC-SVG-20010904/DTD/svg10.dtd">
<svg version="1.0" xmlns="http://www.w3.org/2000/svg" width="320px" height="320px" viewBox="0 0 3200 3200" preserveAspectRatio="xMidYMid meet">
<g id="layer101" fill="#000000" stroke="none">
 <path d="M1170 2822 l0 -127 205 -205 205 -205 205 205 205 205 0 127 0 128 -410 0 -410 0 0 -128z"/>
 <path d="M857 1662 l-507 -507 0 -205 0 -205 273 -273 272 -272 685 0 685 0 273 273 272 272 0 205 0 205 -508 508 -507 507 -215 0 -215 0 -508 -508z"/>
 </g>
<g id="layer102" fill="#626262" stroke="none">
 <path d="M1340 2762 c0 -9 54 -71 120 -137 l120 -120 120 120 c66 66 120 128 120 137 0 17 -17 18 -240 18 -223 0 -240 -1 -240 -18z"/>
 <path d="M982 1577 l-462 -462 0 -43 0 -42 1060 0 1060 0 0 43 0 42 -463 463 -462 462 -135 0 -135 0 -463 -463z"/>
 <path d="M520 822 c0 -35 11 -48 208 -245 l207 -207 645 0 645 0 208 208 c196 196 207 209 207 245 l0 37 -1060 0 -1060 0 0 -38z"/>
 </g>
<g id="layer103" fill="#a6a6a6" stroke="none">
 <path d="M984 1578 l-464 -462 0 -43 0 -43 265 0 265 0 12 28 c6 15 37 81 69 147 31 66 78 165 104 220 100 212 168 353 201 417 19 36 45 96 59 132 l25 66 -37 0 c-34 0 -58 -22 -499 -462z"/>
 <path d="M1640 2028 c0 -6 24 -61 54 -122 54 -112 87 -180 253 -531 50 -104 108 -224 129 -265 l39 -75 263 -3 262 -2 0 43 0 43 -463 462 c-443 441 -465 462 -500 462 -22 0 -37 -5 -37 -12z"/>
 <path d="M520 822 c0 -35 11 -48 208 -245 l207 -207 288 0 c158 0 287 3 287 8 0 4 -107 114 -238 245 l-237 237 -258 0 -257 0 0 -38z"/>
 <path d="M1887 622 c-130 -130 -237 -240 -237 -245 0 -4 129 -7 288 -7 l287 0 208 208 c196 196 207 209 207 245 l0 37 -258 0 -257 0 -238 -238z"/>
 </g>
<g id="layer104" fill="#eeeeee" stroke="none">
 <path d="M957 1542 c-421 -421 -437 -438 -437 -475 l0 -37 211 2 210 3 15 25 c8 14 48 97 90 185 42 88 112 234 157 325 97 200 197 410 194 410 -1 0 -199 -197 -440 -438z"/>
 <path d="M1778 1945 c11 -22 56 -117 100 -211 45 -94 135 -282 201 -417 66 -136 122 -256 126 -267 6 -19 14 -20 221 -20 l214 0 0 38 c0 36 -16 53 -441 477 -319 318 -435 429 -421 400z"/>
 <path d="M520 822 c0 -35 11 -48 210 -247 l210 -210 0 248 0 247 -210 0 -210 0 0 -38z"/>
 <path d="M2220 613 l0 -248 210 210 c199 199 210 212 210 247 l0 38 -210 0 -210 0 0 -247z"/>
 <path d="M1040 547 l0 -177 175 0 c136 0 173 3 168 13 -4 6 -82 86 -175 177 l-168 164 0 -177z"/>
 <path d="M1940 545 l-175 -175 178 0 177 0 0 175 c0 96 -1 175 -3 175 -1 0 -81 -79 -177 -175z"/>
 </g>

</svg>