<!DOCTYPE svg PUBLIC "-//W3C//DTD SVG 20010904//EN" "http://www.w3.org/TR/2001/REC-SVG-20010904/DTD/svg10.dtd">
<svg version="1.0" xmlns="http://www.w3.org/2000/svg" width="320px" height="320px" viewBox="0 0 3200 3200" preserveAspectRatio="xMidYMid meet">
<g id="layer101" fill="#080808" stroke="none">
 <path d="M190 2822 l0 -127 205 -205 205 -205 205 205 205 205 0 127 0 128 -410 0 -410 0 0 -128z"/>
 <path d="M1170 2822 l0 -127 205 -205 205 -205 205 205 205 205 0 127 0 128 -410 0 -410 0 0 -128z"/>
 <path d="M2150 2822 l0 -127 205 -205 205 -205 205 205 205 205 0 127 0 128 -410 0 -410 0 0 -128z"/>
 <path d="M857 1662 l-507 -507 0 -205 0 -205 273 -273 272 -272 685 0 685 0 273 273 272 272 0 205 0 205 -508 508 -507 507 -215 0 -215 0 -508 -508z"/>
 </g>
<g id="layer102" fill="#5a5a5a" stroke="none">
 <path d="M360 2762 c0 -9 54 -71 120 -137 l120 -120 120 120 c66 66 120 128 120 137 0 17 -17 18 -240 18 -223 0 -240 -1 -240 -18z"/>
 <path d="M1340 2762 c0 -9 54 -71 120 -137 l120 -120 120 120 c66 66 120 128 120 137 0 17 -17 18 -240 18 -223 0 -240 -1 -240 -18z"/>
 <path d="M2320 2762 c0 -9 54 -71 120 -137 l120 -120 120 120 c66 66 120 128 120 137 0 17 -17 18 -240 18 -223 0 -240 -1 -240 -18z"/>
 <path d="M1471 1938 c-74 -154 -180 -376 -303 -633 -61 -126 -114 -234 -119 -240 -33 -34 -21 -35 531 -35 297 0 540 2 540 5 0 4 -184 392 -300 630 -37 77 -93 193 -124 258 l-55 117 -60 0 -60 0 -50 -102z"/>
 <path d="M957 1542 c-420 -421 -437 -439 -437 -475 l0 -37 214 0 213 0 28 63 c16 34 76 161 135 282 153 314 291 605 287 605 -1 0 -199 -197 -440 -438z"/>
 <path d="M1803 1890 c25 -52 72 -153 106 -225 34 -71 69 -146 78 -165 9 -19 20 -44 26 -54 96 -191 186 -376 191 -393 7 -23 8 -23 222 -23 l214 0 0 38 c0 36 -16 53 -441 477 l-440 440 44 -95z"/>
 <path d="M520 822 c0 -35 11 -48 210 -247 l210 -210 0 248 0 247 -210 0 -210 0 0 -38z"/>
 <path d="M1280 615 l245 -245 55 0 55 0 245 245 245 245 -545 0 -545 0 245 -245z"/>
 <path d="M2220 613 l0 -248 210 210 c199 199 210 212 210 247 l0 38 -210 0 -210 0 0 -247z"/>
 <path d="M1040 545 l0 -175 177 0 178 0 -175 175 c-96 96 -176 175 -177 175 -2 0 -3 -79 -3 -175z"/>
 <path d="M1940 545 l-175 -175 178 0 177 0 0 175 c0 96 -1 175 -3 175 -1 0 -81 -79 -177 -175z"/>
 </g>
<g id="layer103" fill="#888888" stroke="none">
 <path d="M520 827 c0 -29 23 -55 210 -242 l210 -210 0 243 0 242 -210 0 -210 0 0 -33z"/>
 <path d="M1290 615 l245 -245 45 0 45 0 245 245 245 245 -535 0 -535 0 245 -245z"/>
 <path d="M2220 618 l0 -243 210 210 c187 187 210 213 210 242 l0 33 -210 0 -210 0 0 -242z"/>
 </g>

</svg>