<!DOCTYPE svg PUBLIC "-//W3C//DTD SVG 20010904//EN" "http://www.w3.org/TR/2001/REC-SVG-20010904/DTD/svg10.dtd">
<svg version="1.0" xmlns="http://www.w3.org/2000/svg" width="40px" height="40px" viewBox="0 0 400 400" preserveAspectRatio="xMidYMid meet">
<g id="layer101" fill="#0e0e0e" stroke="none">
 <path d="M54 346 c-3 -7 -4 -38 -2 -67 l3 -54 59 -3 59 -3 -6 -95 -5 -94 89 0 c88 0 89 0 89 25 0 14 -3 25 -7 25 -15 0 -2 148 13 161 17 14 19 90 2 107 -18 18 -287 17 -294 -2z"/>
 </g>
<g id="layer102" fill="#5f5f5f" stroke="none">
 <path d="M60 336 c0 -10 9 -16 23 -17 21 -1 21 -1 -3 -9 l-25 -8 25 -2 c25 -1 25 -1 3 -10 -13 -5 -23 -14 -23 -20 0 -5 10 -10 23 -11 21 -1 21 -1 -3 -9 -24 -8 -23 -8 8 -9 l33 -1 -3 53 c-3 48 -5 52 -30 55 -20 2 -28 -1 -28 -12z"/>
 <path d="M130 295 c0 -52 1 -55 25 -55 24 0 25 3 25 55 0 52 -1 55 -25 55 -24 0 -25 -3 -25 -55z"/>
 <path d="M190 320 c0 -16 5 -30 10 -30 6 0 10 14 10 30 0 17 -4 30 -10 30 -5 0 -10 -13 -10 -30z"/>
 <path d="M224 336 c-4 -9 -4 -25 -1 -36 4 -15 0 -20 -14 -20 -14 0 -19 -7 -19 -25 0 -24 3 -25 60 -25 64 0 79 15 42 42 -11 8 -18 25 -18 43 1 24 -4 31 -22 33 -13 2 -25 -3 -28 -12z m36 -21 c0 -8 -4 -15 -10 -15 -5 0 -10 7 -10 15 0 8 5 15 10 15 6 0 10 -7 10 -15z"/>
 <path d="M290 315 c0 -19 4 -35 9 -35 5 0 13 -9 16 -20 10 -31 25 -13 25 29 0 38 -14 61 -37 61 -8 0 -13 -13 -13 -35z"/>
 <path d="M190 185 c0 -24 3 -25 60 -25 57 0 60 1 60 25 0 24 -3 25 -60 25 -57 0 -60 -1 -60 -25z"/>
 <path d="M190 103 l0 -33 60 0 c60 0 60 0 60 29 0 29 -1 29 -60 33 l-60 3 0 -32z"/>
 <path d="M213 53 c20 -2 54 -2 75 0 20 2 3 4 -38 4 -41 0 -58 -2 -37 -4z"/>
 </g>
<g id="layer103" fill="#a1a1a1" stroke="none">
 <path d="M130 296 c0 -53 1 -56 26 -56 24 0 25 2 22 53 -3 45 -6 52 -25 55 -22 3 -23 0 -23 -52z m27 17 c-4 -3 -10 -3 -14 0 -3 4 0 7 7 7 7 0 10 -3 7 -7z m0 -30 c-4 -3 -10 -3 -14 0 -3 4 0 7 7 7 7 0 10 -3 7 -7z m0 -30 c-4 -3 -10 -3 -14 0 -3 4 0 7 7 7 7 0 10 -3 7 -7z"/>
 <path d="M230 314 c0 -27 -5 -37 -20 -41 -11 -3 -20 -14 -20 -24 0 -17 8 -19 60 -19 46 0 60 3 60 15 0 8 -9 19 -20 25 -14 8 -20 21 -20 45 0 28 -4 35 -20 35 -16 0 -20 -7 -20 -36z m30 1 c0 -8 -4 -15 -10 -15 -5 0 -10 7 -10 15 0 8 5 15 10 15 6 0 10 -7 10 -15z"/>
 <path d="M78 333 c12 -2 22 -8 22 -13 0 -5 -10 -11 -22 -13 l-23 -4 23 -2 c12 0 22 -5 22 -10 0 -5 -10 -12 -22 -14 l-23 -4 23 -2 c26 -1 29 -18 5 -24 -14 -4 -12 -5 5 -6 20 -1 22 3 22 49 0 48 -1 50 -27 49 -24 -2 -25 -2 -5 -6z"/>
 <path d="M190 315 c0 -14 5 -25 10 -25 6 0 10 11 10 25 0 14 -4 25 -10 25 -5 0 -10 -11 -10 -25z"/>
 <path d="M290 318 c1 -21 31 -68 44 -68 11 0 6 66 -6 78 -19 19 -38 14 -38 -10z"/>
 <path d="M190 180 c0 -18 7 -20 60 -20 53 0 60 2 60 20 0 18 -7 20 -60 20 -53 0 -60 -2 -60 -20z m47 3 c-4 -3 -10 -3 -14 0 -3 4 0 7 7 7 7 0 10 -3 7 -7z m30 0 c-4 -3 -10 -3 -14 0 -3 4 0 7 7 7 7 0 10 -3 7 -7z m30 0 c-4 -3 -10 -3 -14 0 -3 4 0 7 7 7 7 0 10 -3 7 -7z"/>
 <path d="M190 105 c0 -24 3 -25 60 -25 57 0 60 1 60 25 0 24 -3 25 -60 25 -57 0 -60 -1 -60 -25z m47 8 c-4 -3 -10 -3 -14 0 -3 4 0 7 7 7 7 0 10 -3 7 -7z m30 0 c-4 -3 -10 -3 -14 0 -3 4 0 7 7 7 7 0 10 -3 7 -7z m30 0 c-4 -3 -10 -3 -14 0 -3 4 0 7 7 7 7 0 10 -3 7 -7z"/>
 <path d="M213 53 c20 -2 54 -2 75 0 20 2 3 4 -38 4 -41 0 -58 -2 -37 -4z"/>
 </g>
<g id="layer104" fill="#fbfbfb" stroke="none">
 <path d="M237 344 c-4 -4 -7 -22 -7 -41 0 -26 -4 -33 -20 -33 -13 0 -20 -7 -20 -20 0 -18 7 -20 60 -20 62 0 74 9 41 32 -11 8 -21 28 -23 48 -3 32 -17 48 -31 34z m23 -29 c0 -8 -4 -15 -10 -15 -5 0 -10 7 -10 15 0 8 5 15 10 15 6 0 10 -7 10 -15z"/>
 <path d="M132 293 c3 -40 6 -48 23 -48 17 0 20 8 23 48 3 45 2 47 -23 47 -25 0 -26 -2 -23 -47z m23 27 c3 -5 1 -10 -4 -10 -6 0 -11 5 -11 10 0 6 2 10 4 10 3 0 8 -4 11 -10z m0 -30 c3 -5 1 -10 -4 -10 -6 0 -11 5 -11 10 0 6 2 10 4 10 3 0 8 -4 11 -10z m0 -30 c3 -5 1 -10 -4 -10 -6 0 -11 5 -11 10 0 6 2 10 4 10 3 0 8 -4 11 -10z"/>
 <path d="M198 193 c6 -2 12 -9 12 -14 0 -6 -4 -7 -10 -4 -5 3 -10 1 -10 -4 0 -7 24 -11 60 -11 53 0 60 2 60 20 0 18 -6 20 -62 19 -35 0 -57 -3 -50 -6z m42 -13 c0 -5 -2 -10 -4 -10 -3 0 -8 5 -11 10 -3 6 -1 10 4 10 6 0 11 -4 11 -10z m30 0 c0 -5 -2 -10 -4 -10 -3 0 -8 5 -11 10 -3 6 -1 10 4 10 6 0 11 -4 11 -10z m30 0 c0 -5 -2 -10 -4 -10 -3 0 -8 5 -11 10 -3 6 -1 10 4 10 6 0 11 -4 11 -10z"/>
 <path d="M198 123 c6 -2 12 -9 12 -14 0 -6 -4 -7 -10 -4 -5 3 -10 -1 -10 -9 0 -13 12 -16 60 -16 57 0 60 1 60 25 0 24 -2 25 -62 24 -35 0 -57 -3 -50 -6z m42 -13 c0 -5 -2 -10 -4 -10 -3 0 -8 5 -11 10 -3 6 -1 10 4 10 6 0 11 -4 11 -10z m30 0 c0 -5 -2 -10 -4 -10 -3 0 -8 5 -11 10 -3 6 -1 10 4 10 6 0 11 -4 11 -10z m30 0 c0 -5 -2 -10 -4 -10 -3 0 -8 5 -11 10 -3 6 -1 10 4 10 6 0 11 -4 11 -10z"/>
 <path d="M213 53 c20 -2 54 -2 75 0 20 2 3 4 -38 4 -41 0 -58 -2 -37 -4z"/>
 </g>

</svg>