<!DOCTYPE svg PUBLIC "-//W3C//DTD SVG 20010904//EN" "http://www.w3.org/TR/2001/REC-SVG-20010904/DTD/svg10.dtd">
<svg version="1.0" xmlns="http://www.w3.org/2000/svg" width="320px" height="320px" viewBox="0 0 3200 3200" preserveAspectRatio="xMidYMid meet">
<g id="layer101" fill="#000000" stroke="none">
 <path d="M315 3086 c-99 -32 -155 -75 -197 -156 l-23 -45 0 -490 0 -490 23 -45 c34 -65 76 -104 146 -137 l61 -28 473 -3 472 -3 0 -554 0 -555 -80 0 -80 0 0 -245 0 -245 845 0 845 0 0 245 0 245 -70 0 -70 0 0 504 0 504 63 30 c176 83 286 213 349 412 21 69 23 92 23 290 0 197 -2 221 -23 290 -68 216 -205 363 -409 437 -150 54 -121 53 -1256 52 -821 0 -1061 -3 -1092 -13z"/>
 </g>
<g id="layer102" fill="#949494" stroke="none">
 <path d="M344 2916 c-35 -15 -69 -58 -79 -99 l-7 -27 151 0 151 0 0 -75 0 -75 -150 0 -150 0 0 -80 0 -80 150 0 150 0 0 -75 0 -75 -150 0 -150 0 0 -80 0 -80 150 0 150 0 0 -75 0 -75 -151 0 -152 0 6 -35 c3 -19 16 -49 28 -66 35 -50 71 -59 234 -59 l145 0 0 535 0 535 -147 0 c-102 -1 -158 -5 -179 -14z"/>
 <path d="M840 2395 l0 -535 215 0 215 0 0 535 0 535 -215 0 -215 0 0 -535z m290 320 l0 -75 -75 0 -75 0 0 75 0 75 75 0 75 0 0 -75z m0 -310 l0 -75 -75 0 -75 0 0 75 0 75 75 0 75 0 0 -75z m0 -310 l0 -75 -75 0 -75 0 0 75 0 75 75 0 75 0 0 -75z"/>
 <path d="M1440 2645 l0 -285 65 0 65 0 0 285 0 285 -65 0 -65 0 0 -285z"/>
 <path d="M1740 2560 l0 -370 -150 0 -150 0 0 -215 0 -215 526 0 526 0 -4 138 c-3 131 -5 140 -35 197 -17 33 -70 102 -117 152 -47 51 -92 106 -101 122 -34 67 -45 152 -45 359 l0 202 -225 0 -225 0 0 -370z m310 80 l0 -140 -80 0 -80 0 0 140 0 140 80 0 80 0 0 -140z"/>
 <path d="M2360 2728 c0 -257 4 -272 98 -373 146 -156 191 -258 201 -449 l6 -118 50 34 c107 74 183 203 206 350 19 118 7 308 -24 397 -47 134 -124 223 -248 286 -75 38 -150 61 -231 71 l-58 6 0 -204z"/>
 <path d="M1440 1520 l0 -70 145 0 145 0 0 -75 0 -75 -145 0 -145 0 0 -65 0 -65 525 0 525 0 0 65 0 65 -75 0 -75 0 0 75 0 75 75 0 75 0 0 70 0 70 -525 0 -525 0 0 -70z m750 -145 l0 -75 -145 0 -145 0 0 75 0 75 145 0 145 0 0 -75z"/>
 <path d="M1440 790 l0 -210 525 0 525 0 0 210 0 210 -525 0 -525 0 0 -210z m300 -5 l0 -75 -75 0 -75 0 0 75 0 75 75 0 75 0 0 -75z m300 0 l0 -75 -75 0 -75 0 0 75 0 75 75 0 75 0 0 -75z m300 0 l0 -75 -75 0 -75 0 0 75 0 75 75 0 75 0 0 -75z"/>
 <path d="M1280 335 l0 -75 675 0 675 0 0 75 0 75 -675 0 -675 0 0 -75z"/>
 </g>
<g id="layer103" fill="#ffffff" stroke="none">
 <path d="M840 2395 l0 -535 215 0 215 0 0 535 0 535 -215 0 -215 0 0 -535z m290 320 l0 -75 -75 0 -75 0 0 75 0 75 75 0 75 0 0 -75z m0 -310 l0 -75 -75 0 -75 0 0 75 0 75 75 0 75 0 0 -75z m0 -310 l0 -75 -75 0 -75 0 0 75 0 75 75 0 75 0 0 -75z"/>
 <path d="M1740 2560 l0 -370 -150 0 -150 0 0 -215 0 -215 526 0 526 0 -4 128 c-3 117 -6 132 -35 193 -22 47 -58 96 -122 164 -132 143 -135 150 -139 448 l-3 237 -225 0 -224 0 0 -370z m310 80 l0 -140 -80 0 -80 0 0 140 0 140 80 0 80 0 0 -140z"/>
 <path d="M1440 1520 l0 -70 145 0 145 0 0 -75 0 -75 -145 0 -145 0 0 -65 0 -65 525 0 525 0 0 65 0 65 -75 0 -75 0 0 75 0 75 75 0 75 0 0 70 0 70 -525 0 -525 0 0 -70z m750 -145 l0 -75 -145 0 -145 0 0 75 0 75 145 0 145 0 0 -75z"/>
 <path d="M1440 790 l0 -210 525 0 525 0 0 210 0 210 -525 0 -525 0 0 -210z m300 -5 l0 -75 -75 0 -75 0 0 75 0 75 75 0 75 0 0 -75z m300 0 l0 -75 -75 0 -75 0 0 75 0 75 75 0 75 0 0 -75z m300 0 l0 -75 -75 0 -75 0 0 75 0 75 75 0 75 0 0 -75z"/>
 <path d="M1280 335 l0 -75 675 0 675 0 0 75 0 75 -675 0 -675 0 0 -75z"/>
 </g>

</svg>