<!DOCTYPE svg PUBLIC "-//W3C//DTD SVG 20010904//EN" "http://www.w3.org/TR/2001/REC-SVG-20010904/DTD/svg10.dtd">
<svg version="1.0" xmlns="http://www.w3.org/2000/svg" width="320px" height="320px" viewBox="0 0 3200 3200" preserveAspectRatio="xMidYMid meet">
<g id="layer101" fill="#000000" stroke="none">
 <path d="M1170 2475 l0 -535 -54 0 -55 0 -3 293 c-3 274 -5 296 -26 357 -46 130 -133 224 -252 272 -52 21 -72 23 -372 26 l-318 3 0 -507 c0 -493 1 -508 20 -540 12 -18 39 -41 60 -51 l39 -18 1 -207 0 -208 60 0 60 0 0 -540 0 -540 1255 0 1255 0 0 540 0 540 60 0 60 0 0 208 1 207 39 18 c21 10 48 33 60 51 19 32 20 47 20 540 l0 507 -317 -3 c-301 -3 -321 -5 -373 -26 -119 -48 -206 -142 -252 -272 -21 -61 -23 -83 -26 -357 l-3 -293 -55 0 -54 0 0 535 0 535 -415 0 -415 0 0 -535z"/>
 </g>
<g id="layer102" fill="#4c4c4c" stroke="none">
 <path d="M1340 2390 l0 -450 50 0 50 0 0 -65 0 -65 85 0 85 0 0 65 0 65 110 0 110 0 0 450 0 450 -245 0 -245 0 0 -450z m390 300 l0 -50 -145 0 -145 0 0 50 0 50 145 0 145 0 0 -50z m0 -460 l0 -50 -145 0 -145 0 0 50 0 50 145 0 145 0 0 -50z"/>
 <path d="M260 2651 l0 -71 68 0 c95 0 197 -17 240 -39 56 -29 116 -100 141 -167 26 -69 40 -218 41 -426 l0 -138 70 0 71 0 -3 348 c-3 329 -4 349 -24 393 -27 58 -85 116 -143 143 -41 19 -67 21 -253 24 l-208 3 0 -70z"/>
 <path d="M2482 2705 c-58 -18 -115 -58 -147 -105 -50 -71 -55 -111 -55 -397 l0 -263 70 0 70 0 0 73 c1 147 18 301 41 361 25 67 85 138 141 167 43 22 145 39 241 39 l67 0 0 70 0 70 -192 -1 c-132 0 -207 -5 -236 -14z"/>
 <path d="M348 2482 l-88 -3 0 -109 0 -110 190 0 c115 0 190 4 190 10 0 24 -35 108 -57 138 -49 66 -91 79 -235 74z"/>
 <path d="M2696 2479 c-43 -7 -78 -30 -109 -71 -22 -30 -57 -114 -57 -138 0 -6 75 -10 190 -10 l190 0 0 109 0 110 -89 3 c-50 2 -106 0 -125 -3z"/>
 <path d="M262 2053 l3 -108 193 -3 192 -2 0 110 0 110 -195 0 -196 0 3 -107z"/>
 <path d="M2520 2050 l0 -110 193 2 192 3 3 108 3 107 -196 0 -195 0 0 -110z"/>
 <path d="M380 1635 l0 -135 135 0 135 0 0 135 0 135 -135 0 -135 0 0 -135z"/>
 <path d="M1060 1635 l0 -135 120 0 120 0 0 135 0 135 -120 0 -120 0 0 -135z"/>
 <path d="M1740 1635 l0 -135 140 0 140 0 0 135 0 135 -140 0 -140 0 0 -135z"/>
 <path d="M2120 1635 l0 -135 150 0 150 0 0 135 0 135 -150 0 -150 0 0 -135z"/>
 <path d="M2520 1635 l0 -135 135 0 135 0 0 135 0 135 -135 0 -135 0 0 -135z"/>
 <path d="M750 1570 l0 -70 70 0 70 0 0 70 0 70 -70 0 -70 0 0 -70z"/>
 <path d="M1400 1585 l0 -55 120 0 120 0 0 55 0 55 -120 0 -120 0 0 -55z"/>
 <path d="M500 1175 l0 -225 195 0 195 0 0 225 0 225 -195 0 -195 0 0 -225z m280 -5 l0 -80 -80 0 -80 0 0 80 0 80 80 0 80 0 0 -80z"/>
 <path d="M1060 1175 l0 -225 190 0 190 0 0 225 0 225 -190 0 -190 0 0 -225z m270 -5 l0 -80 -80 0 -80 0 0 80 0 80 80 0 80 0 0 -80z"/>
 <path d="M1610 1175 l0 -225 190 0 190 0 0 225 0 225 -190 0 -190 0 0 -225z m270 -5 l0 -80 -80 0 -80 0 0 80 0 80 80 0 80 0 0 -80z"/>
 <path d="M2160 1175 l0 -225 255 0 255 0 0 225 0 225 -255 0 -255 0 0 -225z m280 -5 l0 -80 -80 0 -80 0 0 80 0 80 80 0 80 0 0 -80z"/>
 <path d="M500 790 l0 -60 80 0 80 0 0 -80 0 -80 -80 0 -80 0 0 -60 0 -60 1085 0 1085 0 0 60 0 60 -80 0 -80 0 0 80 0 80 80 0 80 0 0 60 0 60 -1085 0 -1085 0 0 -60z m510 -140 l0 -80 -80 0 -80 0 0 80 0 80 80 0 80 0 0 -80z m280 0 l0 -80 -80 0 -80 0 0 80 0 80 80 0 80 0 0 -80z m270 0 l0 -80 -80 0 -80 0 0 80 0 80 80 0 80 0 0 -80z m270 0 l0 -80 -80 0 -80 0 0 80 0 80 80 0 80 0 0 -80z m280 0 l0 -80 -80 0 -80 0 0 80 0 80 80 0 80 0 0 -80z m280 0 l0 -80 -80 0 -80 0 0 80 0 80 80 0 80 0 0 -80z"/>
 </g>
<g id="layer103" fill="#949494" stroke="none">
 <path d="M1340 2390 l0 -450 50 0 50 0 0 -65 0 -65 85 0 85 0 0 65 0 65 110 0 110 0 0 450 0 450 -245 0 -245 0 0 -450z m390 250 l0 -100 -145 0 -145 0 0 100 0 100 145 0 145 0 0 -100z m0 -460 l0 -100 -145 0 -145 0 0 100 0 100 145 0 145 0 0 -100z"/>
 <path d="M260 2652 l0 -69 123 -5 c111 -4 129 -8 182 -34 73 -36 124 -99 156 -193 20 -59 23 -91 27 -303 l4 -238 70 0 69 0 -3 343 c-3 333 -4 343 -26 393 -29 64 -82 116 -147 146 -46 21 -67 23 -252 26 l-203 4 0 -70z"/>
 <path d="M2507 2709 c-90 -21 -160 -78 -199 -164 -22 -48 -23 -62 -26 -327 l-3 -278 69 0 69 0 5 173 c5 142 9 184 28 238 31 93 82 157 155 193 53 26 71 30 182 34 l123 5 0 68 0 69 -182 -1 c-101 -1 -200 -5 -221 -10z"/>
 <path d="M260 2371 l0 -111 189 0 189 0 -10 38 c-17 62 -56 126 -95 152 -33 23 -48 25 -155 28 l-118 4 0 -111z"/>
 <path d="M2665 2466 c-58 -26 -100 -84 -123 -168 l-10 -38 189 0 189 0 0 110 0 110 -107 0 c-68 -1 -119 -6 -138 -14z"/>
 <path d="M260 2062 c0 -63 4 -102 12 -110 8 -8 66 -12 195 -12 l183 0 0 110 0 110 -195 0 -195 0 0 -98z"/>
 <path d="M2520 2050 l0 -110 183 0 c129 0 187 4 195 12 8 8 12 47 12 110 l0 98 -195 0 -195 0 0 -110z"/>
 <path d="M380 1635 l0 -135 135 0 135 0 0 135 0 135 -135 0 -135 0 0 -135z"/>
 <path d="M1060 1635 l0 -135 120 0 120 0 0 135 0 135 -120 0 -120 0 0 -135z"/>
 <path d="M1740 1635 l0 -135 140 0 140 0 0 135 0 135 -140 0 -140 0 0 -135z"/>
 <path d="M2120 1635 l0 -135 150 0 150 0 0 135 0 135 -150 0 -150 0 0 -135z"/>
 <path d="M2520 1635 l0 -135 135 0 135 0 0 135 0 135 -135 0 -135 0 0 -135z"/>
 <path d="M750 1570 l0 -70 70 0 70 0 0 70 0 70 -70 0 -70 0 0 -70z"/>
 <path d="M1400 1585 l0 -55 120 0 120 0 0 55 0 55 -120 0 -120 0 0 -55z"/>
 <path d="M500 1175 l0 -225 195 0 195 0 0 225 0 225 -195 0 -195 0 0 -225z m280 -5 l0 -80 -80 0 -80 0 0 80 0 80 80 0 80 0 0 -80z"/>
 <path d="M1060 1175 l0 -225 190 0 190 0 0 225 0 225 -190 0 -190 0 0 -225z m270 -5 l0 -80 -80 0 -80 0 0 80 0 80 80 0 80 0 0 -80z"/>
 <path d="M1610 1175 l0 -225 190 0 190 0 0 225 0 225 -190 0 -190 0 0 -225z m270 -5 l0 -80 -80 0 -80 0 0 80 0 80 80 0 80 0 0 -80z"/>
 <path d="M2160 1175 l0 -225 255 0 255 0 0 225 0 225 -255 0 -255 0 0 -225z m280 -5 l0 -80 -80 0 -80 0 0 80 0 80 80 0 80 0 0 -80z"/>
 <path d="M500 790 l0 -60 80 0 80 0 0 -80 0 -80 -80 0 -80 0 0 -60 0 -60 1085 0 1085 0 0 60 0 60 -80 0 -80 0 0 80 0 80 80 0 80 0 0 60 0 60 -1085 0 -1085 0 0 -60z m510 -140 l0 -80 -80 0 -80 0 0 80 0 80 80 0 80 0 0 -80z m280 0 l0 -80 -80 0 -80 0 0 80 0 80 80 0 80 0 0 -80z m270 0 l0 -80 -80 0 -80 0 0 80 0 80 80 0 80 0 0 -80z m270 0 l0 -80 -80 0 -80 0 0 80 0 80 80 0 80 0 0 -80z m280 0 l0 -80 -80 0 -80 0 0 80 0 80 80 0 80 0 0 -80z m280 0 l0 -80 -80 0 -80 0 0 80 0 80 80 0 80 0 0 -80z"/>
 </g>
<g id="layer104" fill="#f2f2f2" stroke="none">
 <path d="M1340 2390 l0 -450 50 0 50 0 0 400 0 400 145 0 145 0 0 -400 0 -400 50 0 50 0 0 450 0 450 -245 0 -245 0 0 -450z"/>
 <path d="M260 2652 l0 -70 128 -4 c112 -4 133 -7 177 -30 90 -47 142 -120 170 -240 11 -45 15 -124 15 -280 l0 -218 70 0 70 0 0 313 c0 245 -3 325 -15 370 -27 103 -79 163 -175 202 -37 15 -81 19 -242 23 l-198 4 0 -70z"/>
 <path d="M2540 2713 c-87 -14 -166 -61 -206 -124 -46 -74 -54 -132 -54 -401 l0 -248 70 0 70 0 0 153 c0 267 50 386 190 458 38 19 65 23 173 27 l127 4 0 69 0 69 -172 -1 c-95 -1 -184 -4 -198 -6z"/>
 <path d="M380 1635 l0 -135 135 0 135 0 0 135 0 135 -135 0 -135 0 0 -135z"/>
 <path d="M1060 1635 l0 -135 120 0 120 0 0 135 0 135 -120 0 -120 0 0 -135z"/>
 <path d="M1740 1635 l0 -135 140 0 140 0 0 135 0 135 -140 0 -140 0 0 -135z"/>
 <path d="M2120 1635 l0 -135 150 0 150 0 0 135 0 135 -150 0 -150 0 0 -135z"/>
 <path d="M2520 1635 l0 -135 135 0 135 0 0 135 0 135 -135 0 -135 0 0 -135z"/>
 <path d="M750 1570 l0 -70 70 0 70 0 0 70 0 70 -70 0 -70 0 0 -70z"/>
 <path d="M1400 1585 l0 -55 120 0 120 0 0 55 0 55 -120 0 -120 0 0 -55z"/>
 <path d="M500 1175 l0 -225 195 0 195 0 0 225 0 225 -195 0 -195 0 0 -225z m280 -5 l0 -80 -80 0 -80 0 0 80 0 80 80 0 80 0 0 -80z"/>
 <path d="M1060 1175 l0 -225 190 0 190 0 0 225 0 225 -190 0 -190 0 0 -225z m270 -5 l0 -80 -80 0 -80 0 0 80 0 80 80 0 80 0 0 -80z"/>
 <path d="M1610 1175 l0 -225 190 0 190 0 0 225 0 225 -190 0 -190 0 0 -225z m270 -5 l0 -80 -80 0 -80 0 0 80 0 80 80 0 80 0 0 -80z"/>
 <path d="M2160 1175 l0 -225 255 0 255 0 0 225 0 225 -255 0 -255 0 0 -225z m280 -5 l0 -80 -80 0 -80 0 0 80 0 80 80 0 80 0 0 -80z"/>
 <path d="M500 790 l0 -60 80 0 80 0 0 -80 0 -80 -80 0 -80 0 0 -60 0 -60 1085 0 1085 0 0 60 0 60 -80 0 -80 0 0 80 0 80 80 0 80 0 0 60 0 60 -1085 0 -1085 0 0 -60z m510 -140 l0 -80 -80 0 -80 0 0 80 0 80 80 0 80 0 0 -80z m280 0 l0 -80 -80 0 -80 0 0 80 0 80 80 0 80 0 0 -80z m270 0 l0 -80 -80 0 -80 0 0 80 0 80 80 0 80 0 0 -80z m270 0 l0 -80 -80 0 -80 0 0 80 0 80 80 0 80 0 0 -80z m280 0 l0 -80 -80 0 -80 0 0 80 0 80 80 0 80 0 0 -80z m280 0 l0 -80 -80 0 -80 0 0 80 0 80 80 0 80 0 0 -80z"/>
 </g>

</svg>