<!DOCTYPE svg PUBLIC "-//W3C//DTD SVG 20010904//EN" "http://www.w3.org/TR/2001/REC-SVG-20010904/DTD/svg10.dtd">
<svg version="1.0" xmlns="http://www.w3.org/2000/svg" width="40px" height="40px" viewBox="0 0 400 400" preserveAspectRatio="xMidYMid meet">
<g id="layer101" fill="#0a0a0a" stroke="none">
 <path d="M157 354 c-4 -4 -7 -31 -7 -61 0 -65 -15 -70 -23 -7 -5 52 -19 65 -62 62 l-30 -3 1 -75 c1 -41 5 -106 10 -145 l9 -70 145 0 145 0 9 70 c5 39 9 104 10 145 l1 75 -30 3 c-43 3 -57 -10 -62 -62 -8 -64 -21 -58 -25 12 l-3 57 -40 3 c-23 2 -44 0 -48 -4z"/>
 </g>
<g id="layer102" fill="#636363" stroke="none">
 <path d="M167 334 c-11 -11 -8 -104 2 -104 6 0 11 19 13 43 2 29 8 42 18 42 10 0 16 -13 18 -42 2 -24 8 -43 13 -43 6 0 9 22 7 53 -3 50 -4 52 -33 55 -17 2 -34 0 -38 -4z"/>
 <path d="M50 321 c0 -5 9 -11 19 -14 13 -3 22 -17 26 -41 8 -41 25 -49 25 -11 0 41 -21 75 -47 75 -12 0 -23 -4 -23 -9z"/>
 <path d="M292 305 c-14 -31 -16 -75 -3 -75 5 0 12 16 16 36 4 24 13 38 26 41 27 7 24 23 -4 23 -16 0 -28 -9 -35 -25z"/>
 <path d="M190 295 c0 -8 5 -15 10 -15 6 0 10 7 10 15 0 8 -4 15 -10 15 -5 0 -10 -7 -10 -15z"/>
 <path d="M50 290 c0 -5 7 -10 15 -10 8 0 15 5 15 10 0 6 -7 10 -15 10 -8 0 -15 -4 -15 -10z"/>
 <path d="M320 290 c0 -5 7 -10 15 -10 8 0 15 5 15 10 0 6 -7 10 -15 10 -8 0 -15 -4 -15 -10z"/>
 <path d="M50 250 c0 -13 7 -20 20 -20 13 0 20 7 20 20 0 13 -7 20 -20 20 -13 0 -20 -7 -20 -20z"/>
 <path d="M310 250 c0 -13 7 -20 20 -20 13 0 20 7 20 20 0 13 -7 20 -20 20 -13 0 -20 -7 -20 -20z"/>
 <path d="M190 240 c0 -11 5 -20 10 -20 6 0 10 9 10 20 0 11 -4 20 -10 20 -5 0 -10 -9 -10 -20z"/>
 <path d="M60 196 c0 -14 8 -30 18 -35 15 -9 15 -12 2 -20 -18 -12 -7 -26 15 -18 24 10 19 47 -7 48 l-23 0 23 10 c28 11 24 33 -6 37 -18 3 -22 -2 -22 -22z"/>
 <path d="M140 200 c0 -13 7 -20 20 -20 13 0 20 7 20 20 0 13 -7 20 -20 20 -13 0 -20 -7 -20 -20z"/>
 <path d="M220 200 c0 -13 7 -20 20 -20 13 0 20 7 20 20 0 13 -7 20 -20 20 -13 0 -20 -7 -20 -20z"/>
 <path d="M297 213 c-13 -12 -7 -24 16 -33 l22 -9 -22 0 c-27 -1 -32 -38 -8 -48 22 -8 33 6 15 18 -13 8 -13 11 3 20 24 14 23 59 -1 59 -10 0 -22 -3 -25 -7z"/>
 <path d="M190 195 c0 -8 5 -15 10 -15 6 0 10 7 10 15 0 8 -4 15 -10 15 -5 0 -10 -7 -10 -15z"/>
 <path d="M120 144 c0 -21 4 -25 23 -22 14 2 23 11 25 26 3 18 -1 22 -22 22 -21 0 -26 -5 -26 -26z"/>
 <path d="M180 145 c0 -18 5 -25 20 -25 15 0 20 7 20 25 0 18 -5 25 -20 25 -15 0 -20 -7 -20 -25z"/>
 <path d="M232 148 c2 -15 11 -24 26 -26 18 -3 22 1 22 22 0 21 -5 26 -26 26 -21 0 -25 -4 -22 -22z"/>
 <path d="M73 90 c-2 -19 4 -20 128 -20 122 0 129 1 129 20 0 19 -7 20 -128 20 -121 0 -128 -1 -129 -20z"/>
 </g>
<g id="layer103" fill="#9d9d9d" stroke="none">
 <path d="M167 334 c-10 -11 -9 -92 2 -99 6 -3 11 14 13 37 4 61 31 59 39 -2 6 -55 22 -32 17 26 -3 35 -6 39 -33 42 -17 2 -34 0 -38 -4z"/>
 <path d="M50 320 c0 -5 8 -10 18 -10 13 0 23 -12 31 -41 15 -49 26 -45 17 5 -6 33 -29 56 -55 56 -6 0 -11 -4 -11 -10z"/>
 <path d="M308 319 c-17 -9 -36 -75 -25 -85 3 -3 11 12 18 35 8 29 18 41 31 41 10 0 18 5 18 10 0 13 -20 12 -42 -1z"/>
 <path d="M190 295 c0 -8 5 -15 10 -15 6 0 10 7 10 15 0 8 -4 15 -10 15 -5 0 -10 -7 -10 -15z"/>
 <path d="M50 290 c0 -5 7 -10 15 -10 8 0 15 5 15 10 0 6 -7 10 -15 10 -8 0 -15 -4 -15 -10z"/>
 <path d="M320 290 c0 -5 7 -10 15 -10 8 0 15 5 15 10 0 6 -7 10 -15 10 -8 0 -15 -4 -15 -10z"/>
 <path d="M50 245 c0 -8 9 -15 20 -15 11 0 20 7 20 15 0 8 -9 15 -20 15 -11 0 -20 -7 -20 -15z"/>
 <path d="M190 240 c0 -11 5 -20 10 -20 6 0 10 9 10 20 0 11 -4 20 -10 20 -5 0 -10 -9 -10 -20z"/>
 <path d="M310 245 c0 -8 9 -15 20 -15 11 0 20 7 20 15 0 8 -9 15 -20 15 -11 0 -20 -7 -20 -15z"/>
 <path d="M60 202 c0 -11 7 -18 20 -18 13 0 20 7 20 18 0 11 -7 18 -20 18 -13 0 -20 -7 -20 -18z"/>
 <path d="M145 210 c-7 -12 2 -30 16 -30 5 0 9 9 9 20 0 21 -15 27 -25 10z"/>
 <path d="M230 200 c0 -13 5 -20 13 -17 6 2 12 10 12 17 0 7 -6 15 -12 18 -8 2 -13 -5 -13 -18z"/>
 <path d="M300 202 c0 -11 7 -18 20 -18 13 0 20 7 20 18 0 11 -7 18 -20 18 -13 0 -20 -7 -20 -18z"/>
 <path d="M80 160 c13 -9 13 -11 0 -19 -18 -12 -7 -26 15 -18 25 10 19 47 -7 47 -19 0 -20 -2 -8 -10z"/>
 <path d="M120 145 c0 -18 5 -25 20 -25 15 0 20 7 20 25 0 18 -5 25 -20 25 -15 0 -20 -7 -20 -25z"/>
 <path d="M180 145 c0 -18 5 -25 20 -25 15 0 20 7 20 25 0 18 -5 25 -20 25 -15 0 -20 -7 -20 -25z"/>
 <path d="M240 145 c0 -18 5 -25 20 -25 15 0 20 7 20 25 0 18 -5 25 -20 25 -15 0 -20 -7 -20 -25z"/>
 <path d="M290 150 c0 -11 7 -23 15 -27 22 -8 33 6 15 18 -13 8 -13 10 0 19 12 8 11 10 -7 10 -16 0 -23 -6 -23 -20z"/>
 <path d="M73 90 c-2 -19 4 -20 128 -20 122 0 129 1 129 20 0 19 -7 20 -128 20 -121 0 -128 -1 -129 -20z"/>
 </g>
<g id="layer104" fill="#f7f7f7" stroke="none">
 <path d="M174 327 c-3 -8 -4 -34 -1 -58 l4 -44 1 48 c2 39 5 47 21 47 16 0 21 -9 24 -47 4 -45 4 -44 3 7 -1 49 -3 55 -24 58 -12 2 -24 -3 -28 -11z"/>
 <path d="M67 313 c15 -3 26 -17 37 -46 8 -23 15 -35 15 -26 1 9 -4 30 -10 48 -9 25 -16 31 -37 30 -23 -2 -24 -2 -5 -6z"/>
 <path d="M291 289 c-6 -18 -11 -39 -10 -48 0 -9 7 3 15 26 11 29 22 43 37 46 19 4 18 4 -5 6 -21 1 -28 -5 -37 -30z"/>
 <path d="M60 201 c0 -14 5 -18 20 -14 11 3 20 12 20 19 0 8 -9 14 -20 14 -13 0 -20 -7 -20 -19z"/>
 <path d="M150 205 c0 -8 5 -15 10 -15 6 0 10 7 10 15 0 8 -4 15 -10 15 -5 0 -10 -7 -10 -15z"/>
 <path d="M230 205 c0 -8 5 -15 10 -15 6 0 10 7 10 15 0 8 -4 15 -10 15 -5 0 -10 -7 -10 -15z"/>
 <path d="M300 206 c0 -7 9 -16 20 -19 15 -4 20 0 20 14 0 12 -7 19 -20 19 -11 0 -20 -6 -20 -14z"/>
 <path d="M80 160 c13 -9 13 -11 0 -19 -18 -12 -8 -24 14 -15 25 10 20 44 -6 44 -19 0 -20 -2 -8 -10z"/>
 <path d="M122 148 c2 -13 10 -23 18 -23 8 0 16 10 18 23 3 17 -2 22 -18 22 -16 0 -21 -5 -18 -22z"/>
 <path d="M182 148 c2 -13 10 -23 18 -23 8 0 16 10 18 23 3 17 -2 22 -18 22 -16 0 -21 -5 -18 -22z"/>
 <path d="M242 148 c2 -13 10 -23 18 -23 8 0 16 10 18 23 3 17 -2 22 -18 22 -16 0 -21 -5 -18 -22z"/>
 <path d="M290 151 c0 -10 7 -22 16 -25 22 -9 32 3 14 15 -13 8 -13 10 0 19 12 8 11 10 -7 10 -16 0 -23 -6 -23 -19z"/>
 <path d="M74 90 c0 -19 7 -20 128 -20 121 0 128 1 128 20 0 19 -7 20 -128 20 -121 0 -128 -1 -128 -20z"/>
 </g>

</svg>