<!DOCTYPE svg PUBLIC "-//W3C//DTD SVG 20010904//EN" "http://www.w3.org/TR/2001/REC-SVG-20010904/DTD/svg10.dtd">
<svg version="1.0" xmlns="http://www.w3.org/2000/svg" width="200px" height="200px" viewBox="0 0 2000 2000" preserveAspectRatio="xMidYMid meet">
<g id="layer101" fill="#030304" stroke="none">
 <path d="M820 1680 c-173 -14 -290 -113 -336 -285 -28 -103 -11 -234 41 -314 13 -20 69 -81 125 -136 56 -55 110 -116 120 -135 24 -47 44 -117 80 -283 31 -146 50 -186 100 -212 39 -20 69 -19 107 5 43 26 57 56 82 182 25 127 64 254 98 322 15 30 66 89 128 150 120 118 155 180 163 287 6 84 -11 155 -56 242 -56 109 -139 161 -284 177 -92 11 -238 11 -368 0z"/>
 </g>
<g id="layer102" fill="#3f413e" stroke="none">
 <path d="M958 1683 c34 -2 90 -2 125 0 34 2 6 3 -63 3 -69 0 -97 -1 -62 -3z"/>
 <path d="M778 1673 c12 -2 32 -2 45 0 12 2 2 4 -23 4 -25 0 -35 -2 -22 -4z"/>
 <path d="M1188 1673 c12 -2 30 -2 40 0 9 3 -1 5 -23 4 -22 0 -30 -2 -17 -4z"/>
 <path d="M1291 1656 c10 -9 89 -46 89 -41 0 5 -75 45 -86 45 -4 0 -5 -2 -3 -4z"/>
 <path d="M571 1565 c-22 -24 -41 -48 -41 -51 0 -4 1 -5 3 -3 2 2 23 25 47 52 23 26 40 47 38 47 -3 0 -24 -20 -47 -45z"/>
 <path d="M747 1582 c-68 -24 -111 -63 -144 -129 -25 -51 -28 -69 -28 -153 0 -123 11 -145 140 -280 55 -58 112 -128 127 -155 51 -96 108 -302 108 -389 0 -42 37 -90 61 -81 20 7 39 47 39 79 0 43 30 198 52 265 36 115 66 161 178 276 129 133 146 167 144 295 -1 56 -7 98 -18 123 -25 56 -85 117 -141 143 -47 23 -61 24 -260 23 -172 0 -219 -3 -258 -17z"/>
 <path d="M473 1285 c0 -44 2 -61 4 -37 2 23 2 59 0 80 -2 20 -4 1 -4 -43z"/>
 <path d="M1523 1290 c0 -41 2 -58 4 -37 2 20 2 54 0 75 -2 20 -4 3 -4 -38z"/>
 <path d="M528 1075 c6 -11 62 -69 124 -130 l113 -110 -120 125 c-66 69 -122 127 -124 130 -2 3 1 -4 7 -15z"/>
 <path d="M1385 998 l-60 -63 63 60 c34 33 62 61 62 62 0 8 -10 -1 -65 -59z"/>
 <path d="M1252 868 c-14 -19 -44 -79 -40 -83 2 -2 15 19 30 46 26 49 29 60 10 37z"/>
 <path d="M1111 409 c-1 -9 -13 -34 -27 -55 -15 -21 -19 -32 -10 -24 23 18 48 69 42 83 -2 7 -5 5 -5 -4z"/>
 <path d="M983 303 c9 -2 25 -2 35 0 9 3 1 5 -18 5 -19 0 -27 -2 -17 -5z"/>
 </g>
<g id="layer103" fill="#606364" stroke="none">
 <path d="M958 1683 c34 -2 90 -2 125 0 34 2 6 3 -63 3 -69 0 -97 -1 -62 -3z"/>
 <path d="M575 1568 l-40 -43 43 40 c39 36 47 45 39 45 -2 0 -21 -19 -42 -42z"/>
 <path d="M747 1582 c-68 -24 -111 -63 -144 -129 -25 -51 -28 -69 -28 -153 0 -123 11 -145 140 -280 55 -58 112 -128 127 -155 51 -96 108 -302 108 -389 0 -42 37 -90 61 -81 20 7 39 47 39 79 0 44 31 201 52 266 37 115 67 161 178 275 129 133 146 167 144 295 -1 56 -7 98 -18 123 -25 56 -85 117 -141 143 -47 23 -61 24 -260 23 -172 0 -219 -3 -258 -17z"/>
 <path d="M690 905 c30 -30 57 -55 59 -55 3 0 -19 25 -49 55 -30 30 -57 55 -59 55 -3 0 19 -25 49 -55z"/>
 <path d="M983 303 c9 -2 25 -2 35 0 9 3 1 5 -18 5 -19 0 -27 -2 -17 -5z"/>
 </g>
<g id="layer104" fill="#4e96a7" stroke="none">
 <path d="M958 1683 c34 -2 90 -2 125 0 34 2 6 3 -63 3 -69 0 -97 -1 -62 -3z"/>
 <path d="M747 1582 c-68 -24 -111 -63 -144 -129 -25 -51 -28 -69 -28 -153 0 -123 11 -145 140 -280 55 -58 112 -128 127 -155 51 -96 108 -302 108 -389 0 -42 37 -90 61 -81 20 7 39 47 39 79 0 44 31 201 52 266 37 115 67 161 178 275 129 133 146 167 144 295 -1 56 -7 98 -18 123 -25 56 -85 117 -141 143 -47 23 -61 24 -260 23 -172 0 -219 -3 -258 -17z"/>
 <path d="M700 895 c19 -19 36 -35 39 -35 3 0 -10 16 -29 35 -19 19 -36 35 -39 35 -3 0 10 -16 29 -35z"/>
 <path d="M983 303 c9 -2 25 -2 35 0 9 3 1 5 -18 5 -19 0 -27 -2 -17 -5z"/>
 </g>
<g id="layer105" fill="#9f9f9f" stroke="none">
 <path d="M958 1683 c34 -2 90 -2 125 0 34 2 6 3 -63 3 -69 0 -97 -1 -62 -3z"/>
 <path d="M785 1591 c-91 -16 -149 -63 -188 -151 -16 -35 -21 -67 -21 -140 0 -120 12 -147 115 -248 44 -42 97 -104 119 -138 69 -104 122 -256 140 -397 11 -93 23 -117 55 -117 29 0 37 25 54 162 15 114 62 259 108 328 20 30 74 90 120 134 106 101 138 161 138 261 -1 103 -20 166 -67 220 -73 83 -93 89 -328 91 -113 2 -223 -1 -245 -5z m361 -134 c44 -23 98 -87 119 -140 25 -67 2 -112 -25 -47 -40 97 -177 142 -331 109 -58 -13 -128 -68 -149 -119 -17 -41 -34 -27 -26 22 14 89 83 172 153 183 21 4 43 8 48 11 25 10 183 -4 211 -19z"/>
 <path d="M700 895 c19 -19 36 -35 39 -35 3 0 -10 16 -29 35 -19 19 -36 35 -39 35 -3 0 10 -16 29 -35z"/>
 <path d="M983 303 c9 -2 25 -2 35 0 9 3 1 5 -18 5 -19 0 -27 -2 -17 -5z"/>
 </g>
<g id="layer106" fill="#c1b7c0" stroke="none">
 <path d="M918 1683 c12 -2 30 -2 40 0 9 3 -1 5 -23 4 -22 0 -30 -2 -17 -4z"/>
 <path d="M785 1591 c-91 -16 -149 -63 -188 -151 -16 -35 -21 -67 -21 -140 0 -120 12 -147 115 -248 44 -42 97 -104 119 -138 69 -104 122 -256 140 -397 11 -93 23 -117 55 -117 29 0 37 25 54 162 15 114 62 259 108 328 20 30 74 90 120 134 106 101 138 161 138 261 -1 103 -20 166 -67 220 -73 83 -93 89 -328 91 -113 2 -223 -1 -245 -5z m361 -134 c44 -23 98 -87 119 -140 25 -67 2 -112 -25 -47 -40 97 -177 142 -331 109 -58 -13 -128 -68 -149 -119 -17 -41 -34 -27 -26 22 14 89 83 172 153 183 21 4 43 8 48 11 25 10 183 -4 211 -19z"/>
 </g>
<g id="layer107" fill="#d0d0d0" stroke="none">
 <path d="M913 1683 c9 -2 25 -2 35 0 9 3 1 5 -18 5 -19 0 -27 -2 -17 -5z"/>
 <path d="M785 1591 c-91 -16 -149 -63 -188 -151 -16 -35 -21 -67 -21 -140 0 -120 12 -147 115 -248 44 -42 97 -104 119 -138 69 -104 122 -256 140 -397 11 -93 23 -117 55 -117 29 0 37 25 54 162 15 114 62 259 108 328 20 30 74 90 120 134 106 101 138 161 138 261 -1 103 -20 166 -67 220 -73 83 -93 89 -328 91 -113 2 -223 -1 -245 -5z m361 -134 c44 -23 98 -87 119 -140 25 -67 2 -112 -25 -47 -40 97 -177 142 -331 109 -58 -13 -128 -68 -149 -119 -17 -41 -34 -27 -26 22 14 89 83 172 153 183 21 4 43 8 48 11 25 10 183 -4 211 -19z"/>
 </g>
<g id="layer108" fill="#93ebfe" stroke="none">
 <path d="M785 1591 c-91 -16 -149 -63 -188 -151 -16 -35 -21 -67 -21 -140 0 -120 12 -147 115 -248 44 -42 97 -104 119 -138 69 -104 122 -256 140 -397 11 -93 23 -117 55 -117 29 0 37 25 54 162 15 114 62 259 108 328 20 30 74 90 120 134 106 101 138 161 138 261 -1 103 -20 166 -67 220 -73 83 -93 89 -328 91 -113 2 -223 -1 -245 -5z m361 -134 c44 -23 98 -87 119 -140 25 -67 2 -112 -25 -47 -40 97 -177 142 -331 109 -58 -13 -128 -68 -149 -119 -17 -41 -34 -27 -26 22 14 89 83 172 153 183 21 4 43 8 48 11 25 10 183 -4 211 -19z"/>
 </g>

</svg>