<!DOCTYPE svg PUBLIC "-//W3C//DTD SVG 20010904//EN" "http://www.w3.org/TR/2001/REC-SVG-20010904/DTD/svg10.dtd">
<svg version="1.0" xmlns="http://www.w3.org/2000/svg" width="320px" height="320px" viewBox="0 0 3200 3200" preserveAspectRatio="xMidYMid meet">
<g id="layer101" fill="#000000" stroke="none">
 <path d="M450 2647 l0 -232 118 -118 c64 -64 122 -117 127 -117 13 0 455 442 455 455 0 5 -53 63 -117 127 l-118 118 -232 0 -233 0 0 -233z"/>
 <path d="M2167 2762 c-64 -64 -117 -122 -117 -127 0 -13 442 -455 455 -455 5 0 63 53 127 117 l118 118 0 232 0 233 -233 0 -232 0 -118 -118z"/>
 <path d="M997 2292 l-207 -207 0 -415 0 -415 207 -207 208 -208 395 0 395 0 208 208 207 207 0 415 0 415 -207 207 -208 208 -395 0 -395 0 -208 -208z"/>
 <path d="M325 1990 c-4 -6 -12 -7 -18 -4 -7 4 -9 3 -4 -1 10 -11 -53 -76 -66 -68 -6 3 -7 2 -4 -4 7 -11 -36 -56 -46 -48 -4 3 -5 2 -2 -2 8 -10 -37 -53 -48 -46 -6 3 -7 2 -4 -4 8 -13 -57 -76 -68 -66 -4 5 -5 3 -2 -3 7 -11 -36 -58 -44 -49 -3 2 -5 -8 -5 -25 0 -16 3 -27 6 -25 11 7 51 -41 43 -50 -5 -4 -3 -5 3 -2 14 8 77 -56 67 -68 -5 -4 -3 -5 3 -2 14 8 57 -36 47 -48 -5 -4 -3 -5 3 -2 14 8 57 -36 47 -49 -5 -5 -4 -6 1 -1 12 9 77 -53 69 -66 -3 -6 -1 -7 5 -3 6 3 13 2 17 -4 4 -6 73 -10 181 -10 l174 0 0 330 0 330 -174 0 c-108 0 -177 -4 -181 -10z"/>
 <path d="M2520 1670 l0 -330 174 0 c108 0 177 4 181 10 4 6 11 7 17 4 6 -4 8 -3 5 3 -7 11 56 76 66 68 4 -3 5 -2 2 2 -8 11 37 53 49 46 6 -3 8 -2 3 2 -10 11 33 56 46 48 6 -3 7 -2 4 4 -8 13 57 76 68 66 4 -5 5 -3 2 3 -7 11 36 58 44 49 3 -2 5 8 5 25 0 16 -3 27 -6 25 -11 -7 -51 41 -43 50 5 4 3 5 -3 2 -14 -8 -77 56 -67 68 5 4 3 5 -3 2 -10 -6 -57 34 -52 44 2 2 1 3 -1 1 -9 -5 -50 42 -44 51 3 6 2 7 -4 4 -13 -8 -76 57 -66 68 5 4 3 5 -4 1 -6 -3 -14 -2 -18 4 -4 6 -73 10 -181 10 l-174 0 0 -330z"/>
 <path d="M567 1042 l-117 -117 0 -233 0 -232 232 0 233 0 117 117 c65 65 118 122 118 128 0 13 -442 455 -455 455 -6 0 -63 -53 -128 -118z"/>
 <path d="M2272 937 c-122 -122 -222 -227 -222 -232 0 -6 53 -63 118 -128 l117 -117 233 0 232 0 0 232 0 233 -117 117 c-65 65 -122 118 -128 118 -6 0 -110 -100 -233 -223z"/>
 </g>
<g id="layer102" fill="#797b7b" stroke="none">
 <path d="M600 2597 l0 -133 48 -47 47 -47 133 133 132 133 -48 47 -48 47 -132 0 -132 0 0 -133z"/>
 <path d="M2287 2682 l-47 -47 133 -133 133 -132 47 48 47 48 0 132 0 132 -133 0 -133 0 -47 -48z"/>
 <path d="M1112 2177 l-152 -152 0 -355 0 -355 153 -153 152 -152 335 0 335 0 153 153 152 152 0 355 0 355 -153 153 -152 152 -335 0 -335 0 -153 -153z"/>
 <path d="M305 1760 l-90 -90 90 -90 90 -90 67 0 68 0 0 180 0 180 -68 0 -67 0 -90 -90z"/>
 <path d="M2670 1670 l0 -180 68 0 67 0 90 90 90 90 -90 90 -90 90 -67 0 -68 0 0 -180z"/>
 <path d="M647 922 l-47 -48 0 -132 0 -132 133 0 133 0 47 48 47 47 -133 133 -133 132 -47 -48z"/>
 <path d="M2372 837 l-132 -133 48 -47 48 -47 132 0 132 0 0 133 0 133 -48 47 -47 47 -133 -133z"/>
 </g>
<g id="layer103" fill="#acadad" stroke="none">
 <path d="M600 2602 l0 -128 48 -47 47 -47 128 128 127 128 -48 47 -48 47 -127 0 -127 0 0 -128z"/>
 <path d="M2297 2682 l-47 -47 128 -128 128 -127 47 48 47 48 0 127 0 127 -128 0 -128 0 -47 -48z"/>
 <path d="M1117 2172 l-157 -157 0 -83 0 -82 103 0 102 0 128 128 127 127 0 113 0 112 -73 0 -72 0 -158 -158z"/>
 <path d="M1780 2217 l0 -112 128 -128 127 -127 103 0 102 0 0 83 0 82 -158 158 -157 157 -73 0 -72 0 0 -113z"/>
 <path d="M1332 1937 l-82 -82 0 -185 0 -185 83 -83 82 -82 185 0 185 0 83 83 82 82 0 185 0 185 -83 83 -82 82 -185 0 -185 0 -83 -83z"/>
 <path d="M315 1760 l-90 -90 90 -90 90 -90 62 0 63 0 0 180 0 180 -63 0 -62 0 -90 -90z"/>
 <path d="M2670 1670 l0 -180 63 0 62 0 90 90 90 90 -90 90 -90 90 -62 0 -63 0 0 -180z"/>
 <path d="M960 1407 l0 -82 158 -158 157 -157 73 0 72 0 0 113 0 112 -128 128 -127 127 -103 0 -102 0 0 -83z"/>
 <path d="M1907 1362 l-127 -127 0 -113 0 -112 73 0 72 0 158 158 157 157 0 83 0 82 -103 0 -102 0 -128 -128z"/>
 <path d="M647 912 l-47 -48 0 -127 0 -127 128 0 128 0 47 48 47 47 -128 128 -128 127 -47 -48z"/>
 <path d="M2377 832 l-127 -128 48 -47 48 -47 127 0 127 0 0 128 0 128 -48 47 -47 47 -128 -128z"/>
 </g>
<g id="layer104" fill="#ebebeb" stroke="none">
 <path d="M600 2602 l0 -128 48 -47 47 -47 128 128 127 128 -48 47 -48 47 -127 0 -127 0 0 -128z"/>
 <path d="M2297 2682 l-47 -47 128 -128 128 -127 47 48 47 48 0 127 0 127 -128 0 -128 0 -47 -48z"/>
 <path d="M1337 1932 l-87 -87 0 -175 0 -175 88 -88 87 -87 175 0 175 0 87 87 88 88 0 175 0 175 -88 88 -87 87 -175 0 -175 0 -88 -88z"/>
 <path d="M315 1760 l-90 -90 90 -90 90 -90 62 0 63 0 0 180 0 180 -63 0 -62 0 -90 -90z"/>
 <path d="M2670 1670 l0 -180 63 0 62 0 90 90 90 90 -90 90 -90 90 -62 0 -63 0 0 -180z"/>
 <path d="M647 912 l-47 -48 0 -127 0 -127 128 0 128 0 47 48 47 47 -128 128 -128 127 -47 -48z"/>
 <path d="M2377 832 l-127 -128 48 -47 48 -47 127 0 127 0 0 128 0 128 -48 47 -47 47 -128 -128z"/>
 </g>

</svg>