<!DOCTYPE svg PUBLIC "-//W3C//DTD SVG 20010904//EN" "http://www.w3.org/TR/2001/REC-SVG-20010904/DTD/svg10.dtd">
<svg version="1.0" xmlns="http://www.w3.org/2000/svg" width="320px" height="320px" viewBox="0 0 3200 3200" preserveAspectRatio="xMidYMid meet">
<g id="layer101" fill="#000000" stroke="none">
 <path d="M322 2913 c3 -205 3 -209 31 -263 18 -36 68 -95 144 -171 l115 -117 -7 -53 c-10 -72 -39 -158 -85 -249 -70 -139 -70 -141 -70 -557 l0 -373 -125 0 -125 0 0 -510 0 -510 500 0 500 0 0 150 0 150 85 0 85 0 0 130 0 130 260 0 260 0 0 -130 0 -130 85 0 85 0 0 -150 0 -150 500 0 500 0 0 510 0 510 -125 0 -125 0 0 373 c0 416 0 418 -70 557 -46 91 -75 177 -85 249 l-7 53 115 117 c76 76 126 135 144 171 28 54 28 58 31 263 l3 207 -1311 0 -1311 0 3 -207z"/>
 </g>
<g id="layer102" fill="#949494" stroke="none">
 <path d="M490 2870 l0 -80 1140 0 1140 0 0 80 0 80 -1140 0 -1140 0 0 -80z"/>
 <path d="M585 2630 l59 -60 986 0 986 0 59 60 59 60 -1104 0 -1104 0 59 -60z"/>
 <path d="M780 2252 c0 -173 -14 -240 -78 -372 -46 -94 -82 -220 -82 -287 l0 -43 1010 0 1010 0 0 43 c0 67 -36 193 -82 287 -64 132 -78 199 -78 372 l0 148 -850 0 -850 0 0 -148z m410 -77 l0 -75 -75 0 -75 0 0 75 0 75 75 0 75 0 0 -75z m310 0 l0 -75 -75 0 -75 0 0 75 0 75 75 0 75 0 0 -75z m410 0 l0 -75 -75 0 -75 0 0 75 0 75 75 0 75 0 0 -75z m310 0 l0 -75 -75 0 -75 0 0 75 0 75 75 0 75 0 0 -75z"/>
 <path d="M620 1310 l0 -70 70 0 70 0 0 70 0 70 -70 0 -70 0 0 -70z"/>
 <path d="M860 1260 l0 -120 -120 0 -120 0 0 -90 0 -90 -125 0 -125 0 0 -287 c0 -270 1 -290 20 -321 11 -18 34 -41 52 -52 31 -19 51 -20 311 -20 l277 0 0 255 0 255 -205 0 -205 0 0 85 0 85 160 0 160 0 0 80 0 80 215 0 215 0 0 -140 0 -140 260 0 260 0 0 140 0 140 215 0 215 0 0 -80 0 -80 160 0 160 0 0 -85 0 -85 -205 0 -205 0 0 -255 0 -255 278 0 c259 0 279 1 310 20 18 11 41 34 52 52 19 31 20 51 20 321 l0 287 -125 0 -125 0 0 90 0 90 -120 0 -120 0 0 120 0 120 -770 0 -770 0 0 -120z m-240 -545 l0 -75 -75 0 -75 0 0 75 0 75 75 0 75 0 0 -75z m2170 0 l0 -75 -75 0 -75 0 0 75 0 75 75 0 75 0 0 -75z m-2170 -260 l0 -75 -75 0 -75 0 0 75 0 75 75 0 75 0 0 -75z m2170 0 l0 -75 -75 0 -75 0 0 75 0 75 75 0 75 0 0 -75z"/>
 <path d="M2500 1310 l0 -70 70 0 70 0 0 70 0 70 -70 0 -70 0 0 -70z"/>
 </g>
<g id="layer103" fill="#f3f3f3" stroke="none">
 <path d="M490 2870 l0 -80 1140 0 1140 0 0 80 0 80 -1140 0 -1140 0 0 -80z"/>
 <path d="M780 2238 c0 -90 -5 -181 -11 -203 -6 -22 -33 -87 -59 -145 -51 -112 -74 -188 -85 -282 l-6 -58 1011 0 1011 0 -6 58 c-11 94 -34 170 -85 282 -26 58 -53 123 -59 145 -6 22 -11 113 -11 203 l0 162 -850 0 -850 0 0 -162z m410 -63 l0 -75 -75 0 -75 0 0 75 0 75 75 0 75 0 0 -75z m310 0 l0 -75 -75 0 -75 0 0 75 0 75 75 0 75 0 0 -75z m410 0 l0 -75 -75 0 -75 0 0 75 0 75 75 0 75 0 0 -75z m310 0 l0 -75 -75 0 -75 0 0 75 0 75 75 0 75 0 0 -75z"/>
 <path d="M860 1260 l0 -120 -120 0 -120 0 0 -90 0 -90 -125 0 -125 0 0 -277 c0 -254 2 -282 20 -321 15 -33 29 -47 62 -62 39 -18 67 -20 311 -20 l267 0 0 255 0 255 -205 0 -205 0 0 85 0 85 160 0 160 0 0 80 0 80 215 0 215 0 0 -140 0 -140 260 0 260 0 0 140 0 140 215 0 215 0 0 -80 0 -80 160 0 160 0 0 -85 0 -85 -205 0 -205 0 0 -255 0 -255 268 0 c243 0 271 2 310 20 33 15 47 29 62 62 18 39 20 67 20 321 l0 277 -125 0 -125 0 0 90 0 90 -120 0 -120 0 0 120 0 120 -770 0 -770 0 0 -120z m-240 -545 l0 -75 -75 0 -75 0 0 75 0 75 75 0 75 0 0 -75z m2170 0 l0 -75 -75 0 -75 0 0 75 0 75 75 0 75 0 0 -75z m-2170 -260 l0 -75 -75 0 -75 0 0 75 0 75 75 0 75 0 0 -75z m2170 0 l0 -75 -75 0 -75 0 0 75 0 75 75 0 75 0 0 -75z"/>
 </g>

</svg>