<!DOCTYPE svg PUBLIC "-//W3C//DTD SVG 20010904//EN" "http://www.w3.org/TR/2001/REC-SVG-20010904/DTD/svg10.dtd">
<svg version="1.0" xmlns="http://www.w3.org/2000/svg" width="632px" height="720px" viewBox="0 0 6320 7200" preserveAspectRatio="xMidYMid meet">
<g id="layer101" fill="#6e3600" stroke="none">
 <path d="M1455 6300 c-741 -494 -1362 -913 -1381 -931 -33 -32 -46 -58 -22 -43 7 4 8 3 4 -5 -4 -6 -11 -9 -16 -6 -5 3 -16 -8 -24 -24 -14 -26 -16 -219 -16 -1691 0 -1753 -1 -1700 41 -1726 8 -5 9 -3 4 7 -5 8 1 5 13 -5 25 -21 31 -36 7 -16 -9 8 -15 8 -15 2 0 -13 75 -75 110 -91 21 -10 22 -9 6 1 -11 7 -31 24 -46 38 -14 14 -17 18 -5 9 11 -9 310 -182 665 -384 567 -323 745 -428 633 -371 -55 27 -37 10 25 -24 31 -18 76 -44 100 -57 23 -14 42 -22 42 -19 0 3 -29 21 -65 41 -36 20 -65 39 -65 41 0 6 -8 10 108 -56 90 -51 124 -77 60 -44 -116 58 85 -59 812 -473 l825 -471 129 0 129 0 1351 900 c743 495 1366 914 1384 931 33 32 45 60 15 36 -16 -13 -17 -12 -4 3 7 10 17 15 22 13 10 -7 43 54 35 63 -3 3 -6 1 -6 -4 0 -6 -7 -19 -16 -30 -9 -10 -6 -2 5 19 l21 38 0 1645 c0 1455 -2 1649 -16 1675 -8 16 -19 27 -23 24 -5 -2 -15 3 -22 13 -13 16 -13 16 5 2 17 -13 19 -13 14 0 -7 23 -109 101 -187 143 -99 53 -89 39 12 -18 45 -25 98 -60 117 -77 33 -28 32 -28 -15 4 -27 19 -455 266 -950 548 -495 282 -904 518 -910 523 -5 6 20 -7 58 -27 37 -20 67 -35 67 -32 0 4 -61 40 -160 94 -41 22 -39 16 7 -16 10 -7 -2 -2 -27 11 -101 55 -160 89 -160 94 0 3 29 -12 65 -32 36 -20 65 -34 65 -31 0 4 -49 33 -145 85 -55 30 -57 28 -8 -7 10 -7 -2 -2 -27 11 -101 55 -160 89 -160 94 0 3 29 -12 65 -32 36 -20 65 -34 65 -31 0 4 -61 40 -160 94 -41 22 -39 16 7 -16 10 -7 -2 -2 -27 11 -101 55 -160 89 -160 94 0 3 29 -12 65 -32 36 -20 65 -34 65 -31 0 4 -61 40 -160 94 -41 22 -39 16 7 -16 19 -14 -31 12 -129 68 -62 34 -80 51 -25 24 54 -28 16 1 -48 35 -55 30 -57 28 -8 -7 19 -14 -31 12 -129 68 -62 34 -80 51 -25 24 54 -28 16 1 -48 35 -55 30 -57 27 -8 -7 28 -20 7 -9 -112 57 -104 58 -139 84 -55 41 22 -11 40 -18 40 -15 0 2 -17 13 -37 23 -31 16 -61 19 -170 20 l-131 0 -1347 -898z m1330 862 c-67 -37 -2627 -1745 -2685 -1790 -27 -22 -37 -27 -25 -13 26 31 2725 1831 2745 1831 8 0 -7 -13 -35 -28z m3425 -5347 c0 -9 -2700 -1805 -2713 -1805 -6 0 11 13 38 29 28 17 640 423 1360 905 1400 935 1315 878 1315 871z m-4425 -958 c6 -5 -17 5 -50 23 -33 18 -64 38 -70 43 -5 6 17 -4 50 -22 33 -18 65 -38 70 -44z m780 -441 c391 -223 706 -406 701 -406 -10 0 -1446 818 -1461 833 -18 17 42 -17 760 -427z"/>
 <path d="M3150 7146 c0 -3 14 -12 30 -21 17 -9 30 -13 30 -11 0 3 -13 12 -30 21 -16 9 -30 13 -30 11z"/>
 <path d="M3360 7026 c0 -3 14 -12 30 -21 17 -9 30 -13 30 -11 0 3 -13 12 -30 21 -16 9 -30 13 -30 11z"/>
 <path d="M3570 6906 c0 -3 14 -12 30 -21 17 -9 30 -13 30 -11 0 3 -13 12 -30 21 -16 9 -30 13 -30 11z"/>
 <path d="M4480 6386 c0 -3 14 -12 30 -21 17 -9 30 -13 30 -11 0 3 -13 12 -30 21 -16 9 -30 13 -30 11z"/>
 <path d="M4555 6343 c6 -5 37 -25 70 -43 33 -18 56 -28 50 -23 -5 6 -37 26 -70 44 -33 18 -55 28 -50 22z"/>
 <path d="M4690 6266 c0 -3 14 -12 30 -21 17 -9 30 -13 30 -11 0 3 -13 12 -30 21 -16 9 -30 13 -30 11z"/>
 <path d="M4765 6223 c6 -5 37 -25 70 -43 33 -18 56 -28 50 -23 -5 6 -37 26 -70 44 -33 18 -55 28 -50 22z"/>
 <path d="M4900 6146 c0 -3 14 -12 30 -21 17 -9 30 -13 30 -11 0 3 -13 12 -30 21 -16 9 -30 13 -30 11z"/>
 <path d="M4975 6103 c6 -5 37 -25 70 -43 33 -18 56 -28 50 -23 -5 6 -37 26 -70 44 -33 18 -55 28 -50 22z"/>
 <path d="M5110 6026 c0 -3 14 -12 30 -21 17 -9 30 -13 30 -11 0 3 -13 12 -30 21 -16 9 -30 13 -30 11z"/>
 <path d="M5185 5983 c6 -5 37 -25 70 -43 33 -18 56 -28 50 -23 -5 6 -37 26 -70 44 -33 18 -55 28 -50 22z"/>
 <path d="M5320 5906 c0 -3 14 -12 30 -21 17 -9 30 -13 30 -11 0 3 -13 12 -30 21 -16 9 -30 13 -30 11z"/>
 <path d="M5395 5863 c6 -5 37 -25 70 -43 33 -18 56 -28 50 -23 -5 6 -37 26 -70 44 -33 18 -55 28 -50 22z"/>
 <path d="M5530 5786 c0 -3 14 -12 30 -21 17 -9 30 -13 30 -11 0 3 -13 12 -30 21 -16 9 -30 13 -30 11z"/>
 <path d="M5600 5746 c0 -2 26 -19 58 -36 31 -18 76 -44 100 -57 23 -14 42 -23 42 -20 0 3 -35 25 -77 50 -100 57 -123 69 -123 63z"/>
 <path d="M5810 5626 c0 -2 26 -19 58 -36 31 -18 76 -44 100 -57 23 -14 42 -23 42 -20 0 3 -35 25 -77 50 -100 57 -123 69 -123 63z"/>
 <path d="M195 1753 c6 -5 37 -25 70 -43 33 -18 56 -28 50 -23 -5 6 -37 26 -70 44 -33 18 -55 28 -50 22z"/>
 <path d="M330 1676 c0 -3 14 -12 30 -21 17 -9 30 -13 30 -11 0 3 -13 12 -30 21 -16 9 -30 13 -30 11z"/>
 <path d="M405 1633 c6 -5 37 -25 70 -43 33 -18 56 -28 50 -23 -5 6 -37 26 -70 44 -33 18 -55 28 -50 22z"/>
 <path d="M540 1556 c0 -3 14 -12 30 -21 17 -9 30 -13 30 -11 0 3 -13 12 -30 21 -16 9 -30 13 -30 11z"/>
 <path d="M615 1513 c6 -5 37 -25 70 -43 33 -18 56 -28 50 -23 -5 6 -37 26 -70 44 -33 18 -55 28 -50 22z"/>
 <path d="M750 1436 c0 -3 14 -12 30 -21 17 -9 30 -13 30 -11 0 3 -13 12 -30 21 -16 9 -30 13 -30 11z"/>
 <path d="M825 1393 c6 -5 37 -25 70 -43 33 -18 56 -28 50 -23 -5 6 -37 26 -70 44 -33 18 -55 28 -50 22z"/>
 <path d="M960 1316 c0 -3 14 -12 30 -21 17 -9 30 -13 30 -11 0 3 -13 12 -30 21 -16 9 -30 13 -30 11z"/>
 <path d="M1035 1273 c6 -5 37 -25 70 -43 33 -18 56 -28 50 -23 -5 6 -37 26 -70 44 -33 18 -55 28 -50 22z"/>
 <path d="M1170 1196 c0 -3 14 -12 30 -21 17 -9 30 -13 30 -11 0 3 -13 12 -30 21 -16 9 -30 13 -30 11z"/>
 <path d="M1245 1153 c6 -5 37 -25 70 -43 33 -18 56 -28 50 -23 -5 6 -37 26 -70 44 -33 18 -55 28 -50 22z"/>
 </g>
<g id="layer102" fill="#b65100" stroke="none">
 <path d="M2936 6468 c-9 -13 -14 -16 -11 -8 4 8 -3 4 -15 -10 -12 -14 -19 -18 -15 -10 4 8 -3 4 -15 -10 -12 -14 -19 -18 -15 -10 4 8 -3 4 -15 -10 -12 -14 -19 -18 -15 -10 4 8 -3 4 -15 -10 -12 -14 -19 -18 -15 -10 4 8 -3 4 -15 -10 -12 -14 -19 -18 -15 -10 4 8 -3 4 -15 -10 -12 -14 -19 -18 -15 -10 4 8 -3 4 -15 -10 -12 -14 -19 -18 -15 -10 4 8 -3 4 -15 -10 -12 -14 -19 -18 -15 -10 4 8 -3 4 -15 -10 -12 -14 -19 -18 -15 -10 4 8 -3 4 -15 -10 -12 -14 -19 -18 -15 -10 4 8 -3 4 -15 -10 -12 -14 -19 -18 -15 -10 4 8 -3 4 -15 -10 -12 -14 -19 -18 -15 -10 4 8 -3 4 -15 -10 -12 -14 -19 -18 -15 -10 4 8 -3 4 -15 -10 -12 -14 -19 -18 -15 -10 4 8 -3 4 -15 -10 -12 -14 -19 -18 -15 -10 4 8 -3 4 -15 -10 -12 -14 -19 -18 -15 -10 4 8 -3 4 -15 -10 -12 -14 -19 -18 -15 -10 4 8 -3 4 -15 -10 -12 -14 -19 -18 -15 -10 4 8 -3 4 -15 -10 -12 -14 -19 -18 -15 -10 4 8 -3 4 -15 -10 -12 -14 -19 -18 -15 -10 4 8 -3 4 -15 -10 -12 -14 -19 -18 -15 -10 4 8 -3 4 -15 -10 -12 -14 -19 -18 -15 -10 4 8 -3 4 -15 -10 -12 -14 -19 -18 -15 -10 4 8 -3 4 -15 -10 -12 -14 -19 -18 -15 -10 4 8 -3 4 -15 -10 -12 -14 -19 -18 -15 -10 4 8 -3 4 -15 -10 -12 -14 -19 -18 -15 -10 4 8 -3 4 -15 -10 -12 -14 -19 -18 -15 -10 4 8 -3 4 -15 -10 -12 -14 -19 -18 -15 -10 4 8 -3 4 -15 -10 -12 -14 -19 -18 -15 -10 4 8 -3 4 -15 -10 -12 -14 -19 -18 -15 -10 4 8 -3 4 -15 -10 -12 -14 -19 -18 -15 -10 4 8 -3 4 -15 -10 -12 -14 -19 -18 -15 -10 4 8 -3 4 -15 -10 -12 -14 -19 -18 -15 -10 4 8 -3 4 -15 -10 -12 -14 -19 -18 -15 -10 4 8 -3 4 -15 -10 -12 -14 -19 -18 -15 -10 4 8 -3 4 -15 -10 -12 -14 -19 -18 -15 -10 4 8 -3 4 -15 -10 -12 -14 -19 -18 -15 -10 4 8 -3 4 -15 -10 -12 -14 -19 -18 -15 -10 4 8 -3 4 -15 -10 -12 -14 -19 -18 -15 -10 4 8 -3 4 -15 -10 -12 -14 -19 -18 -15 -10 4 8 -3 4 -15 -10 -12 -14 -19 -18 -15 -10 4 8 -3 4 -15 -10 -12 -14 -19 -18 -15 -10 4 8 -3 4 -15 -10 -12 -14 -19 -18 -15 -10 4 8 -3 4 -15 -10 -12 -14 -19 -18 -15 -10 4 8 -3 4 -15 -10 -12 -14 -19 -18 -15 -10 4 8 -3 4 -15 -10 -12 -14 -19 -18 -15 -10 4 8 -3 4 -15 -10 -12 -14 -19 -18 -15 -10 4 8 -3 4 -15 -10 -12 -14 -19 -18 -15 -10 4 8 -3 4 -15 -10 -12 -14 -19 -18 -15 -10 4 8 -3 4 -15 -10 -12 -14 -19 -18 -15 -10 4 8 -3 4 -15 -10 -12 -14 -19 -18 -15 -10 4 8 -3 4 -15 -10 -12 -14 -19 -18 -15 -10 4 8 -3 4 -15 -10 -12 -14 -19 -18 -15 -10 4 8 -3 4 -15 -10 -12 -14 -18 -18 -14 -10 12 22 -44 -15 -75 -49 -13 -14 -20 -19 -15 -11 12 22 -45 -15 -75 -49 -13 -14 -20 -19 -15 -11 12 22 -45 -15 -75 -49 -13 -14 -20 -20 -17 -13 13 22 -6 12 -37 -20 -17 -18 -27 -26 -23 -18 4 8 -2 4 -14 -10 -12 -14 -18 -18 -14 -10 12 22 -44 -15 -75 -49 -13 -14 -20 -19 -15 -11 8 15 9 16 -129 -75 l-77 -50 3 -1355 2 -1355 1300 -742 c715 -408 1323 -755 1350 -769 l51 -27 1157 772 1157 771 -2 1351 -3 1352 -1345 768 c-740 423 -1350 769 -1356 769 -6 0 -19 -10 -28 -22z"/>
 </g>
<g id="layer103" fill="#d86a00" stroke="none">
 <path d="M2936 6468 c-9 -13 -14 -16 -11 -8 4 8 -3 4 -15 -10 -12 -14 -19 -18 -15 -10 4 8 -3 4 -15 -10 -12 -14 -19 -18 -15 -10 4 8 -3 4 -15 -10 -12 -14 -19 -18 -15 -10 4 8 -3 4 -15 -10 -12 -14 -19 -18 -15 -10 4 8 -3 4 -15 -10 -12 -14 -19 -18 -15 -10 4 8 -3 4 -15 -10 -12 -14 -19 -18 -15 -10 4 8 -3 4 -15 -10 -12 -14 -19 -18 -15 -10 4 8 -3 4 -15 -10 -12 -14 -19 -18 -15 -10 4 8 -3 4 -15 -10 -12 -14 -19 -18 -15 -10 4 8 -3 4 -15 -10 -12 -14 -19 -18 -15 -10 4 8 -3 4 -15 -10 -12 -14 -19 -18 -15 -10 4 8 -3 4 -15 -10 -12 -14 -19 -18 -15 -10 4 8 -3 4 -15 -10 -12 -14 -19 -18 -15 -10 4 8 -3 4 -15 -10 -12 -14 -19 -18 -15 -10 4 8 -3 4 -15 -10 -12 -14 -19 -18 -15 -10 4 8 -3 4 -15 -10 -12 -14 -19 -18 -15 -10 4 8 -3 4 -15 -10 -12 -14 -19 -18 -15 -10 4 8 -3 4 -15 -10 -12 -14 -19 -18 -15 -10 4 8 -3 4 -15 -10 -12 -14 -19 -18 -15 -10 4 8 -3 4 -15 -10 -12 -14 -19 -18 -15 -10 4 8 -3 4 -15 -10 -12 -14 -19 -18 -15 -10 4 8 -3 4 -15 -10 -12 -14 -19 -18 -15 -10 4 8 -3 4 -15 -10 -12 -14 -19 -18 -15 -10 4 8 -3 4 -15 -10 -12 -14 -19 -18 -15 -10 4 8 -3 4 -15 -10 -12 -14 -19 -18 -15 -10 4 8 -3 4 -15 -10 -12 -14 -19 -18 -15 -10 4 8 -3 4 -15 -10 -12 -14 -19 -18 -15 -10 4 8 -3 4 -15 -10 -12 -14 -19 -18 -15 -10 4 8 -3 4 -15 -10 -12 -14 -19 -18 -15 -10 4 8 -3 4 -15 -10 -12 -14 -19 -18 -15 -10 4 8 -3 4 -15 -10 -12 -14 -19 -18 -15 -10 4 8 -3 4 -15 -10 -12 -14 -19 -18 -15 -10 4 8 -3 4 -15 -10 -12 -14 -19 -18 -15 -10 4 8 -3 4 -15 -10 -12 -14 -19 -18 -15 -10 4 8 -3 4 -15 -10 -12 -14 -19 -18 -15 -10 4 8 -3 4 -15 -10 -12 -14 -19 -18 -15 -10 4 8 -3 4 -15 -10 -12 -14 -19 -18 -15 -10 4 8 -3 4 -15 -10 -12 -14 -19 -18 -15 -10 4 8 -3 4 -15 -10 -12 -14 -19 -18 -15 -10 4 8 -3 4 -15 -10 -12 -14 -19 -18 -15 -10 4 8 -3 4 -15 -10 -12 -14 -19 -18 -15 -10 4 8 -3 4 -15 -10 -12 -14 -19 -18 -15 -10 4 8 -3 4 -15 -10 -12 -14 -19 -18 -15 -10 4 8 -3 4 -15 -10 -12 -14 -19 -18 -15 -10 4 8 -3 4 -15 -10 -12 -14 -19 -18 -15 -10 4 8 -3 4 -15 -10 -12 -14 -19 -18 -15 -10 4 8 -3 4 -15 -10 -12 -14 -19 -18 -15 -10 4 8 -3 4 -15 -10 -12 -14 -19 -18 -15 -10 4 8 -3 4 -15 -10 -12 -14 -19 -18 -15 -10 4 8 -3 4 -15 -10 -12 -14 -19 -18 -15 -10 4 8 -3 4 -15 -10 -12 -14 -19 -18 -15 -10 4 8 -3 4 -15 -10 -12 -14 -19 -18 -15 -10 4 8 -3 4 -15 -10 -12 -14 -19 -18 -15 -10 4 8 -3 4 -15 -10 -12 -14 -19 -18 -15 -10 4 8 -3 4 -15 -10 -12 -14 -19 -18 -15 -10 4 8 -3 4 -15 -10 -12 -14 -19 -18 -15 -10 4 8 -3 4 -15 -10 -12 -14 -19 -18 -15 -10 4 8 -3 4 -15 -10 -12 -14 -19 -18 -15 -10 4 8 -3 4 -15 -10 -12 -14 -19 -18 -15 -10 4 8 -3 4 -15 -10 -12 -14 -19 -18 -15 -10 4 8 -3 4 -15 -10 -12 -14 -19 -18 -15 -10 4 8 -3 4 -15 -10 -12 -14 -19 -18 -15 -10 4 8 -3 4 -15 -10 -12 -14 -19 -18 -15 -10 4 8 -3 4 -15 -10 -12 -14 -19 -18 -15 -10 4 8 -3 4 -15 -10 -12 -14 -19 -18 -15 -10 4 8 -3 4 -15 -10 -12 -14 -19 -18 -15 -10 4 8 -3 4 -15 -10 -12 -14 -19 -18 -15 -10 4 8 -3 4 -15 -10 -12 -14 -19 -18 -15 -10 4 8 -3 4 -15 -10 -12 -14 -19 -18 -15 -10 4 8 -3 4 -15 -10 -12 -14 -19 -18 -15 -10 4 8 -3 4 -15 -10 -12 -14 -19 -18 -15 -10 4 8 -3 4 -15 -10 -12 -14 -19 -18 -15 -10 4 8 -3 4 -15 -10 -12 -14 -19 -18 -15 -10 4 8 -3 4 -15 -10 -12 -14 -19 -18 -15 -10 4 8 -3 4 -16 -10 -13 -14 -19 -19 -14 -10 9 13 8 13 -7 1 -17 -13 -18 -90 -18 -1362 l0 -1348 1351 -771 1351 -772 1155 770 1155 770 -1034 590 c-568 325 -1172 671 -1343 769 l-310 179 -3 1352 c-1 763 -6 1352 -11 1352 -5 0 -16 -10 -25 -22z"/>
 </g>
<g id="layer104" fill="#fcaf3e" stroke="none">
 <path d="M2940 6470 c-6 -11 -15 -18 -19 -15 -5 3 -12 -2 -15 -11 -3 -8 -10 -13 -15 -10 -5 3 -12 -1 -15 -10 -3 -8 -10 -13 -15 -10 -5 3 -12 -1 -15 -10 -3 -8 -10 -13 -15 -10 -5 3 -12 -1 -15 -10 -3 -8 -10 -13 -15 -10 -5 3 -12 -1 -15 -10 -3 -8 -10 -13 -15 -10 -5 3 -12 -1 -15 -10 -3 -8 -10 -13 -15 -10 -5 3 -12 -1 -15 -10 -3 -8 -10 -13 -15 -10 -5 3 -12 -1 -15 -10 -3 -8 -10 -13 -15 -10 -5 3 -12 -1 -15 -10 -3 -8 -10 -13 -15 -10 -5 3 -12 -1 -15 -10 -3 -8 -10 -13 -15 -10 -5 3 -12 -1 -15 -10 -3 -8 -10 -13 -15 -10 -5 3 -12 -1 -15 -10 -3 -8 -10 -13 -15 -10 -5 3 -12 -1 -15 -10 -3 -8 -10 -13 -15 -10 -5 3 -12 -1 -15 -10 -3 -8 -10 -13 -15 -10 -5 3 -12 -1 -15 -10 -3 -8 -10 -13 -15 -10 -5 3 -12 -1 -15 -10 -3 -8 -10 -13 -15 -10 -5 3 -12 -1 -15 -10 -3 -8 -10 -13 -15 -10 -5 3 -12 -1 -15 -10 -3 -8 -10 -13 -15 -10 -5 3 -12 -1 -15 -10 -3 -8 -10 -13 -15 -10 -5 3 -12 -1 -15 -10 -3 -8 -10 -13 -15 -10 -5 3 -12 -1 -15 -10 -3 -8 -10 -13 -15 -10 -5 3 -12 -1 -15 -10 -3 -8 -10 -13 -15 -10 -5 3 -12 -1 -15 -10 -3 -8 -10 -13 -15 -10 -5 3 -12 -1 -15 -10 -3 -8 -10 -13 -15 -10 -5 3 -12 -1 -15 -10 -3 -8 -10 -13 -15 -10 -5 3 -12 -1 -15 -10 -3 -8 -10 -13 -15 -10 -5 3 -12 -1 -15 -10 -3 -8 -10 -13 -15 -10 -5 3 -12 -1 -15 -10 -3 -8 -10 -13 -15 -10 -5 3 -12 -1 -15 -10 -3 -8 -10 -13 -15 -10 -5 3 -12 -1 -15 -10 -3 -8 -10 -13 -15 -10 -5 3 -12 -1 -15 -10 -3 -8 -10 -13 -15 -10 -5 3 -12 -1 -15 -10 -3 -8 -10 -13 -15 -10 -5 3 -12 -1 -15 -10 -3 -8 -10 -13 -15 -10 -5 3 -12 -1 -15 -10 -3 -8 -10 -13 -15 -10 -5 3 -12 -1 -15 -10 -3 -8 -10 -13 -15 -10 -5 3 -12 -1 -15 -10 -3 -8 -10 -13 -15 -10 -5 3 -12 -1 -15 -10 -3 -8 -10 -13 -15 -10 -5 3 -12 -1 -15 -10 -3 -8 -10 -13 -15 -10 -5 3 -12 -1 -15 -10 -3 -8 -10 -13 -15 -10 -5 3 -12 -1 -15 -10 -3 -8 -10 -13 -15 -10 -5 3 -12 -1 -15 -10 -3 -8 -10 -13 -15 -10 -5 3 -12 -1 -15 -10 -3 -8 -10 -13 -15 -10 -5 3 -12 -1 -15 -10 -3 -8 -10 -13 -15 -10 -5 3 -12 -1 -15 -10 -3 -8 -10 -13 -15 -10 -5 3 -12 -1 -15 -10 -3 -8 -10 -13 -15 -10 -5 3 -12 -1 -15 -10 -3 -8 -10 -13 -15 -10 -5 3 -12 -1 -15 -10 -3 -8 -10 -13 -15 -10 -5 3 -12 -1 -15 -10 -3 -8 -10 -13 -15 -10 -5 3 -12 -1 -15 -10 -3 -8 -10 -13 -15 -10 -5 3 -12 -1 -15 -10 -3 -8 -10 -13 -15 -10 -5 3 -12 -1 -15 -10 -3 -8 -10 -13 -15 -10 -5 3 -12 -1 -15 -10 -3 -8 -10 -13 -15 -10 -5 3 -12 -1 -15 -10 -3 -8 -10 -13 -15 -10 -5 3 -12 -1 -15 -10 -3 -8 -10 -13 -15 -10 -5 3 -12 -1 -15 -10 -3 -8 -10 -13 -15 -10 -5 3 -12 -1 -15 -10 -3 -8 -10 -13 -15 -10 -5 3 -12 -1 -15 -10 -3 -8 -10 -13 -15 -10 -5 3 -12 -1 -15 -10 -3 -8 -10 -13 -15 -10 -5 3 -12 -1 -15 -10 -3 -8 -10 -13 -15 -10 -5 3 -12 -1 -15 -10 -3 -8 -10 -13 -15 -10 -5 3 -12 -1 -15 -10 -3 -8 -10 -13 -15 -10 -5 3 -12 -1 -15 -10 -3 -8 -10 -13 -15 -10 -5 3 -12 -1 -15 -10 -3 -8 -10 -13 -15 -10 -5 3 -12 -1 -15 -10 -3 -8 -10 -13 -15 -10 -5 3 -12 -1 -15 -10 -3 -8 -10 -13 -15 -10 -5 3 -12 -1 -15 -10 -3 -8 -10 -13 -15 -10 -5 3 -12 -1 -15 -10 -3 -8 -10 -13 -15 -10 -5 3 -12 -1 -15 -10 -3 -8 -10 -13 -15 -10 -5 3 -12 -1 -15 -10 -3 -8 -10 -13 -15 -10 -5 3 -12 -1 -15 -10 -3 -8 -10 -13 -15 -10 -5 3 -12 -1 -15 -10 -3 -8 -10 -13 -15 -10 -5 3 -12 -1 -15 -10 -3 -8 -10 -13 -15 -10 -5 3 -12 -1 -15 -10 -3 -8 -10 -13 -15 -10 -5 3 -12 -1 -15 -10 -4 -9 -9 -14 -12 -11 -4 3 -15 -4 -26 -16 -11 -12 -16 -16 -12 -8 5 9 3 12 -4 7 -9 -5 -12 -347 -12 -1357 l0 -1349 1143 761 c628 419 1147 767 1153 775 6 7 14 11 17 7 4 -3 7 602 7 1345 0 862 -3 1352 -10 1352 -5 0 -14 -9 -20 -20z"/>
 </g>

</svg>