<!DOCTYPE svg PUBLIC "-//W3C//DTD SVG 20010904//EN" "http://www.w3.org/TR/2001/REC-SVG-20010904/DTD/svg10.dtd">
<svg version="1.0" xmlns="http://www.w3.org/2000/svg" width="320px" height="320px" viewBox="0 0 3200 3200" preserveAspectRatio="xMidYMid meet">
<g id="layer101" fill="#000000" stroke="none">
 <path d="M640 3141 c-133 -41 -213 -175 -180 -299 12 -41 35 -68 172 -208 l158 -160 0 -115 c1 -73 6 -128 15 -154 8 -22 15 -43 15 -46 0 -4 -25 -9 -55 -11 -62 -5 -97 -26 -132 -78 -19 -27 -23 -47 -23 -106 l0 -74 -177 0 c-98 0 -194 -5 -213 -10 -62 -17 -126 -65 -157 -117 -26 -45 -28 -55 -28 -163 0 -108 2 -118 28 -163 31 -52 95 -100 157 -117 19 -5 115 -10 213 -10 l177 0 0 -74 c0 -59 4 -79 23 -106 35 -52 70 -73 132 -78 30 -2 55 -7 55 -11 0 -3 -7 -24 -15 -46 -9 -26 -14 -81 -15 -154 l0 -115 -158 -160 c-137 -140 -160 -167 -172 -208 -47 -172 126 -345 298 -297 40 11 67 33 184 147 l136 134 199 -1 c140 -1 213 3 250 13 l51 14 4 -83 c3 -71 7 -87 32 -123 19 -27 47 -51 82 -68 52 -25 59 -26 191 -22 103 3 149 9 183 23 164 67 230 183 230 405 0 222 -64 335 -230 406 -40 17 -77 19 -358 22 l-313 3 25 29 c13 16 27 43 31 59 6 29 7 29 90 32 92 4 121 18 163 79 20 31 22 44 22 191 l0 159 38 0 c35 0 49 -12 267 -230 l230 -230 447 0 448 0 0 113 0 112 -170 170 c-93 93 -170 177 -170 185 0 8 77 92 170 185 l170 170 0 112 0 113 -448 0 -447 0 -230 -230 c-218 -218 -232 -230 -267 -230 l-38 0 0 159 c0 147 -2 160 -22 191 -42 61 -71 75 -163 79 -83 3 -84 3 -90 32 -4 16 -18 43 -31 59 l-25 29 313 3 c281 3 318 5 358 22 166 71 230 184 230 406 0 222 -66 338 -230 405 -34 14 -80 20 -183 23 -132 4 -139 3 -191 -22 -35 -17 -63 -41 -82 -68 -25 -36 -29 -52 -32 -123 l-4 -83 -51 14 c-37 10 -110 14 -250 13 l-199 -1 -136 134 c-106 104 -146 137 -178 146 -46 13 -86 14 -124 3z"/>
 </g>
<g id="layer102" fill="#979797" stroke="none">
 <path d="M669 2965 c-31 -17 -54 -65 -45 -93 4 -11 50 -63 104 -116 96 -95 97 -96 112 -74 8 13 32 41 52 63 l37 41 -92 92 c-96 99 -123 112 -168 87z"/>
 <path d="M1783 2940 c-41 -25 -45 -60 -8 -60 69 0 115 -58 115 -145 0 -63 -22 -110 -61 -131 -46 -23 -182 -15 -239 15 -22 11 -59 31 -82 44 -38 20 -60 22 -201 25 -181 4 -233 -7 -285 -61 -51 -52 -62 -93 -62 -219 1 -161 28 -212 143 -268 83 -40 91 -63 95 -257 l4 -163 44 0 44 0 0 183 c0 205 -10 244 -70 287 -57 41 -75 119 -43 187 29 61 42 63 418 63 209 0 352 4 379 11 56 14 114 62 137 113 26 58 26 214 0 272 -23 51 -81 99 -137 113 -70 18 -154 14 -191 -9z"/>
 <path d="M2170 1865 l-145 -145 70 0 70 0 145 145 145 145 -70 0 -70 0 -145 -145z"/>
 <path d="M2440 1865 l-145 -145 70 0 70 0 145 145 145 145 -70 0 -70 0 -145 -145z"/>
 <path d="M2710 1865 l-145 -145 70 0 70 0 145 145 145 145 -70 0 -70 0 -145 -145z"/>
 <path d="M792 1968 c-8 -8 -12 -52 -12 -130 l0 -118 125 0 125 0 0 130 0 130 -113 0 c-75 0 -117 -4 -125 -12z"/>
 <path d="M1460 1850 l0 -130 50 0 50 0 0 118 c0 78 -4 122 -12 130 -7 7 -29 12 -50 12 l-38 0 0 -130z"/>
 <path d="M258 1704 c-53 -28 -73 -105 -43 -164 25 -49 60 -60 185 -60 l110 0 0 120 0 120 -112 0 c-80 -1 -121 -5 -140 -16z"/>
 <path d="M780 1362 c0 -78 4 -122 12 -130 8 -8 50 -12 125 -12 l113 0 0 130 0 130 -125 0 -125 0 0 -118z"/>
 <path d="M1198 1318 c-4 -195 -12 -218 -95 -258 -115 -56 -142 -107 -143 -268 0 -126 11 -167 62 -219 52 -54 104 -65 285 -61 141 3 163 5 201 26 23 12 60 32 82 43 57 30 193 38 239 15 39 -21 61 -68 61 -131 0 -87 -46 -145 -115 -145 -37 0 -33 -35 8 -60 37 -23 121 -27 191 -9 56 14 114 62 137 113 26 58 26 214 0 272 -23 51 -81 99 -137 113 -27 7 -170 11 -379 11 -376 0 -389 2 -418 63 -32 68 -14 146 43 187 60 43 70 82 70 288 l0 182 -44 0 -44 0 -4 -162z"/>
 <path d="M1460 1350 l0 -130 38 0 c21 0 43 5 50 12 8 8 12 52 12 130 l0 118 -50 0 -50 0 0 -130z"/>
 <path d="M2170 1335 l145 -145 70 0 70 0 -145 145 -145 145 -70 0 -70 0 145 -145z"/>
 <path d="M2440 1335 l145 -145 70 0 70 0 -145 145 -145 145 -70 0 -70 0 145 -145z"/>
 <path d="M2710 1335 l145 -145 70 0 70 0 -145 145 -145 145 -70 0 -70 0 145 -145z"/>
 <path d="M728 444 c-54 -53 -100 -105 -104 -116 -15 -49 50 -117 100 -104 13 3 64 47 114 98 l91 92 -37 41 c-20 22 -44 50 -52 63 -15 22 -16 21 -112 -74z"/>
 </g>
<g id="layer103" fill="#ffffff" stroke="none">
 <path d="M652 2947 c-14 -14 -22 -36 -22 -57 0 -28 14 -47 96 -131 l97 -98 29 44 c17 25 41 53 54 64 l23 18 -93 92 c-81 79 -98 91 -128 91 -23 0 -42 -8 -56 -23z"/>
 <path d="M2170 1865 l-145 -145 70 0 70 0 145 145 145 145 -70 0 -70 0 -145 -145z"/>
 <path d="M2710 1865 l-145 -145 70 0 70 0 145 145 145 145 -70 0 -70 0 -145 -145z"/>
 <path d="M792 1968 c-8 -8 -12 -52 -12 -130 l0 -118 125 0 125 0 0 130 0 130 -113 0 c-75 0 -117 -4 -125 -12z"/>
 <path d="M1460 1850 l0 -130 50 0 50 0 0 118 c0 78 -4 122 -12 130 -7 7 -29 12 -50 12 l-38 0 0 -130z"/>
 <path d="M780 1362 c0 -78 4 -122 12 -130 8 -8 50 -12 125 -12 l113 0 0 130 0 130 -125 0 -125 0 0 -118z"/>
 <path d="M1460 1350 l0 -130 38 0 c21 0 43 5 50 12 8 8 12 52 12 130 l0 118 -50 0 -50 0 0 -130z"/>
 <path d="M2170 1335 l145 -145 70 0 70 0 -145 145 -145 145 -70 0 -70 0 145 -145z"/>
 <path d="M2710 1335 l145 -145 70 0 70 0 -145 145 -145 145 -70 0 -70 0 145 -145z"/>
 <path d="M726 441 c-84 -86 -96 -102 -96 -133 0 -45 34 -78 79 -78 29 0 47 13 127 91 l93 92 -23 18 c-13 11 -37 39 -54 64 l-29 44 -97 -98z"/>
 </g>

</svg>