<!DOCTYPE svg PUBLIC "-//W3C//DTD SVG 20010904//EN" "http://www.w3.org/TR/2001/REC-SVG-20010904/DTD/svg10.dtd">
<svg version="1.0" xmlns="http://www.w3.org/2000/svg" width="289px" height="302px" viewBox="0 0 2890 3020" preserveAspectRatio="xMidYMid meet">
<g id="layer101" fill="#0a0506" stroke="none">
 <path d="M1180 2885 l0 -135 60 0 60 0 0 -55 0 -55 -130 0 -130 0 0 -330 0 -330 -197 -1 -198 -1 -261 -266 -262 -267 -20 -560 -21 -560 -40 -150 c-23 -82 -41 -156 -41 -162 0 -10 125 -13 593 -13 l593 0 134 128 134 128 124 -128 124 -128 594 0 c469 0 594 3 594 13 0 6 -20 85 -44 174 l-44 161 -17 549 -17 548 -267 268 -266 267 -197 0 -198 0 0 265 0 265 -65 0 -65 0 0 65 0 65 -65 0 -65 0 0 60 0 60 65 0 65 0 0 130 0 130 -265 0 -265 0 0 -135z m0 -1094 l0 -179 -54 -46 c-30 -25 -57 -46 -60 -46 -3 0 -6 101 -6 225 l0 225 60 0 60 0 0 -179z m660 -126 l0 -165 -65 52 -65 53 0 113 0 112 65 0 65 0 0 -165z"/>
 </g>
<g id="layer102" fill="#747474" stroke="none">
 <path d="M1310 2890 l0 -60 130 0 130 0 0 60 0 60 -130 0 -130 0 0 -60z"/>
 <path d="M1493 2632 l-63 -3 0 -59 0 -60 65 0 65 0 0 -70 0 -70 -60 0 -60 0 0 -200 0 -200 60 0 60 0 0 -65 0 -65 -65 0 -65 0 0 65 0 65 -60 0 -60 0 0 -130 0 -130 130 0 130 0 0 55 c0 50 2 56 26 65 14 6 43 10 65 10 l39 0 0 65 0 65 -65 0 -65 0 0 65 0 65 65 0 65 0 0 70 0 70 -65 0 -65 0 0 65 0 65 65 0 65 0 0 70 0 70 -65 0 -65 0 0 59 c0 33 -3 61 -7 63 -5 2 -36 2 -70 0z"/>
 <path d="M1180 2429 l0 -70 48 6 c73 10 72 9 72 75 l0 60 -60 0 -60 0 0 -71z"/>
 <path d="M1170 2165 l0 -65 65 0 65 0 0 65 0 65 -65 0 -65 0 0 -65z"/>
 <path d="M477 1628 l-217 -213 -21 -530 c-20 -513 -22 -534 -49 -645 -16 -63 -28 -115 -27 -116 1 -2 201 0 445 3 l442 6 0 129 0 128 -130 0 -130 0 0 465 0 465 65 0 65 0 0 260 0 260 -113 0 -112 0 -218 -212z"/>
 <path d="M1970 1580 l0 -260 65 0 65 0 0 -465 0 -465 -130 0 -130 0 0 -130 0 -130 440 0 c242 0 440 1 440 3 0 2 -14 43 -31 93 l-31 89 -13 548 -13 549 -73 76 c-40 42 -134 139 -208 215 l-136 137 -122 0 -123 0 0 -260z"/>
 <path d="M1183 1377 l-262 -192 -1 -332 0 -333 525 0 525 0 0 330 0 329 -255 193 c-140 106 -259 194 -263 195 -4 2 -125 -84 -269 -190z"/>
 </g>
<g id="layer103" fill="#c1c0c0" stroke="none">
 <path d="M1310 2890 l0 -60 125 0 126 0 -3 58 -3 57 -122 3 -123 3 0 -61z"/>
 <path d="M1430 2570 l0 -60 65 0 65 0 0 60 0 60 -65 0 -65 0 0 -60z"/>
 <path d="M1567 2503 c-4 -3 -7 -35 -7 -70 l0 -63 -60 0 -60 0 0 -200 0 -200 60 0 60 0 0 -65 0 -65 -65 0 -65 0 0 65 0 65 -60 0 -60 0 0 -130 0 -130 130 0 130 0 0 65 0 65 65 0 65 0 0 65 0 65 -65 0 -65 0 0 65 0 65 65 0 65 0 0 70 0 70 -65 0 -65 0 0 65 0 65 65 0 65 0 0 70 0 70 -63 0 c-35 0 -67 -3 -70 -7z"/>
 <path d="M1180 2432 l0 -69 48 8 c26 4 53 8 60 8 8 1 12 20 12 61 l0 60 -60 0 -60 0 0 -68z"/>
 <path d="M1170 2171 l0 -58 38 -7 c20 -3 49 -6 65 -6 27 0 27 1 27 65 l0 65 -65 0 -65 0 0 -59z"/>
 <path d="M478 1627 l-217 -212 -21 -540 c-20 -500 -23 -547 -46 -638 -14 -54 -22 -102 -19 -107 7 -11 184 -14 209 -4 9 3 16 11 16 18 0 33 25 91 53 123 17 20 63 51 101 69 88 42 106 59 106 99 0 47 -25 70 -108 99 -92 33 -121 52 -138 93 -18 42 -18 125 0 166 18 44 51 71 127 108 84 40 99 55 99 95 0 39 -28 64 -98 90 -164 60 -189 200 -61 339 88 96 272 219 390 261 l49 18 0 68 0 68 -112 0 -113 -1 -217 -212z"/>
 <path d="M1970 1777 l0 -63 58 -18 c182 -58 424 -234 487 -355 13 -27 18 -60 16 -118 -2 -50 -58 -106 -139 -138 -84 -33 -102 -50 -102 -90 0 -40 17 -56 100 -93 107 -48 141 -94 141 -188 0 -101 -37 -147 -145 -178 -65 -19 -116 -61 -116 -96 0 -40 21 -61 97 -98 90 -43 139 -90 154 -146 5 -23 12 -47 14 -53 7 -20 164 -18 171 2 4 8 -8 57 -24 108 l-31 92 -10 534 -11 533 -207 214 -206 214 -124 0 -123 0 0 -63z"/>
 <path d="M1305 1466 c-77 -57 -176 -130 -220 -163 -44 -33 -99 -73 -122 -89 l-43 -29 0 -327 0 -328 525 0 525 0 0 323 0 324 -78 59 c-248 188 -443 334 -445 334 -1 0 -65 -47 -142 -104z m328 -277 c100 -67 188 -129 195 -137 13 -17 18 -344 6 -376 -5 -14 -50 -16 -395 -16 l-389 0 0 195 0 195 193 129 c105 71 196 130 200 130 5 1 91 -54 190 -120z"/>
 <path d="M1313 1099 l-133 -80 0 -130 0 -129 265 0 265 0 0 129 0 130 -112 67 c-62 37 -122 73 -133 80 -18 11 -35 3 -152 -67z"/>
 </g>
<g id="layer104" fill="#f3f3f3" stroke="none">
 <path d="M1567 2503 c-4 -3 -7 -35 -7 -70 l0 -63 -60 0 -60 0 0 -195 0 -196 63 3 62 3 1 60 1 60 61 3 62 3 0 64 0 65 -60 0 -60 0 0 65 0 65 60 0 60 0 0 70 0 70 -58 0 c-32 0 -62 -3 -65 -7z"/>
 <path d="M1564 1956 c-3 -7 -4 -35 -2 -62 l3 -49 39 -3 c22 -2 50 -1 63 2 21 6 23 12 23 66 l0 60 -60 0 c-42 0 -62 -4 -66 -14z"/>
 <path d="M527 1675 c-95 -92 -193 -191 -220 -221 -47 -56 -47 -56 -48 -132 0 -42 -2 -111 -4 -152 -3 -71 -10 -226 -20 -475 -14 -341 -16 -360 -41 -457 -13 -54 -22 -103 -19 -108 7 -12 195 -13 211 -2 6 4 14 25 17 47 11 69 53 115 149 163 108 55 130 91 87 145 -13 18 -42 33 -88 47 -116 34 -154 81 -155 187 0 91 28 127 143 187 67 35 92 53 97 71 12 47 -4 64 -101 110 -111 53 -137 85 -139 169 -1 92 84 201 238 306 81 54 215 124 259 135 26 7 27 9 27 76 l0 69 -110 0 -111 0 -172 -165z"/>
 <path d="M1972 1779 l3 -62 45 -13 c121 -35 343 -175 428 -269 52 -57 92 -136 92 -180 0 -17 -10 -51 -22 -75 -20 -39 -33 -50 -104 -85 -45 -22 -91 -49 -103 -59 -45 -41 -19 -81 94 -139 113 -59 146 -117 130 -224 -10 -67 -58 -113 -150 -143 -88 -29 -105 -43 -105 -90 0 -44 13 -57 100 -100 36 -18 76 -42 88 -54 28 -25 62 -88 62 -114 0 -33 21 -42 97 -42 57 0 75 4 79 15 4 9 -7 55 -24 103 l-31 87 -7 325 c-8 397 -11 514 -13 650 l-1 105 -210 213 -211 212 -120 0 -120 0 3 -61z"/>
 <path d="M1183 1372 l-253 -186 0 -328 0 -328 514 0 513 0 7 92 c3 50 6 195 6 322 l-1 231 -251 190 c-139 105 -259 191 -267 192 -9 1 -130 -82 -268 -185z m471 -192 l185 -125 1 -197 0 -198 -395 0 -395 0 0 198 0 199 197 131 c117 78 202 128 209 124 7 -4 96 -63 198 -132z"/>
 </g>

</svg>