<!DOCTYPE svg PUBLIC "-//W3C//DTD SVG 20010904//EN" "http://www.w3.org/TR/2001/REC-SVG-20010904/DTD/svg10.dtd">
<svg version="1.0" xmlns="http://www.w3.org/2000/svg" width="320px" height="320px" viewBox="0 0 3200 3200" preserveAspectRatio="xMidYMid meet">
<g id="layer101" fill="#010101" stroke="none">
 <path d="M1110 3091 c-89 -29 -146 -78 -182 -156 -29 -63 -32 -218 -6 -276 15 -35 15 -39 -4 -69 l-19 -32 -22 19 c-67 59 -165 93 -272 93 -101 0 -164 -20 -204 -66 -38 -42 -44 -78 -39 -207 8 -172 67 -266 246 -392 1 -1 -22 -63 -52 -138 -98 -243 -170 -506 -201 -727 -23 -171 -24 -477 -2 -559 28 -101 73 -175 152 -249 139 -130 351 -206 608 -219 l117 -6 0 94 c0 112 -15 152 -84 221 l-46 47 0 113 c0 442 73 854 204 1161 l16 37 139 0 c121 0 141 2 162 19 24 19 25 19 48 0 20 -17 41 -19 162 -19 l139 0 16 -37 c131 -307 204 -719 204 -1161 l0 -113 -46 -47 c-69 -69 -84 -109 -84 -221 l0 -94 118 6 c401 20 684 194 759 468 22 82 21 388 -2 559 -31 221 -103 484 -201 727 -30 75 -53 137 -52 138 116 81 179 151 219 240 17 38 23 75 27 152 5 129 -1 165 -39 207 -88 101 -349 86 -476 -27 l-22 -19 -19 32 c-19 30 -19 34 -4 69 11 25 16 66 16 131 1 144 -41 221 -149 278 -46 25 -59 27 -175 27 -116 0 -129 -2 -175 -27 -100 -53 -146 -131 -153 -264 -6 -116 12 -170 98 -285 38 -52 70 -97 70 -100 0 -4 -15 -10 -32 -13 -77 -15 -165 -72 -205 -133 -16 -24 -17 -24 -30 -7 -49 70 -133 125 -210 140 -18 3 -33 9 -33 13 0 3 32 48 70 100 86 115 104 169 98 285 -7 133 -53 212 -153 264 -44 23 -64 26 -160 29 -60 1 -121 -1 -135 -6z"/>
 </g>
<g id="layer102" fill="#5f5f5f" stroke="none">
 <path d="M1154 2914 c-37 -18 -74 -80 -74 -124 0 -40 35 -104 66 -121 22 -12 24 -18 24 -97 l0 -85 -45 6 c-37 6 -46 3 -55 -12 -9 -17 -3 -21 57 -37 l67 -18 17 25 c10 13 46 62 80 109 66 90 89 146 89 218 0 57 -33 116 -76 137 -41 19 -110 19 -150 -1z"/>
 <path d="M1995 2921 c-49 -22 -85 -85 -85 -150 0 -65 25 -124 89 -211 34 -47 70 -96 80 -109 l17 -25 67 18 c60 16 66 20 57 37 -9 15 -18 18 -55 12 l-45 -6 0 82 c0 81 0 82 35 112 67 59 70 152 5 214 -25 24 -40 29 -87 32 -32 1 -67 -1 -78 -6z"/>
 <path d="M551 2474 c-15 -19 -21 -41 -21 -73 1 -151 166 -286 460 -375 153 -46 263 -68 371 -73 l105 -6 23 29 c20 25 22 38 19 100 -6 124 -63 171 -228 187 -187 18 -329 67 -464 159 -85 58 -133 78 -193 78 -44 0 -55 -4 -72 -26z"/>
 <path d="M2574 2481 c-22 -10 -67 -37 -100 -59 -143 -98 -262 -138 -474 -160 -156 -16 -212 -64 -218 -186 -3 -62 -1 -75 19 -100 l23 -29 105 6 c108 5 218 27 371 73 294 89 459 224 460 375 0 70 -27 99 -93 99 -29 0 -70 -9 -93 -19z"/>
 <path d="M740 1843 c-91 -218 -151 -407 -197 -618 -22 -103 -26 -152 -30 -345 -5 -211 -4 -228 16 -281 54 -143 193 -244 409 -300 108 -27 124 -25 75 10 -73 53 -78 75 -77 326 2 387 67 795 173 1084 17 47 31 88 31 92 0 4 -33 14 -74 23 -41 10 -123 32 -182 51 -59 19 -108 35 -110 35 -1 0 -17 -35 -34 -77z"/>
 <path d="M2401 1885 c-57 -19 -137 -42 -177 -51 -41 -9 -74 -19 -74 -23 0 -4 14 -45 31 -92 106 -289 171 -697 173 -1084 1 -251 -4 -273 -77 -326 -49 -35 -33 -37 75 -10 216 56 355 157 409 300 20 53 21 70 16 281 -5 244 -19 335 -87 572 -47 163 -164 469 -178 467 -4 0 -54 -16 -111 -34z"/>
 </g>
<g id="layer103" fill="#969696" stroke="none">
 <path d="M1186 2920 c-87 -16 -125 -118 -77 -208 18 -33 82 -72 119 -72 56 0 111 35 134 86 21 48 18 84 -8 136 -26 51 -88 72 -168 58z"/>
 <path d="M2016 2920 c-71 -13 -120 -103 -96 -175 14 -41 68 -91 109 -100 100 -22 197 82 169 182 -13 46 -59 93 -91 93 -14 0 -31 2 -39 4 -7 2 -31 0 -52 -4z"/>
 <path d="M560 2482 c-49 -40 -33 -147 36 -237 37 -49 153 -124 259 -169 154 -64 421 -126 545 -126 83 0 103 19 108 101 3 53 -1 72 -20 109 -34 63 -90 90 -210 101 -194 19 -307 57 -450 151 -135 89 -218 110 -268 70z"/>
 <path d="M2590 2486 c-20 -8 -77 -40 -127 -72 -205 -132 -166 -117 -388 -143 -191 -22 -240 -43 -275 -117 -30 -61 -25 -158 9 -185 43 -35 199 -19 427 41 204 54 395 152 458 235 69 90 85 197 36 237 -26 21 -88 23 -140 4z"/>
 <path d="M712 1768 c-100 -252 -167 -501 -192 -708 -6 -52 -10 -169 -8 -260 3 -156 4 -168 31 -226 33 -71 97 -138 182 -189 58 -35 200 -85 278 -99 l39 -7 -45 43 c-59 56 -67 90 -67 274 0 398 78 883 184 1144 14 35 26 67 26 70 0 4 -28 13 -62 20 -50 9 -235 64 -294 87 -7 2 -37 -60 -72 -149z"/>
 <path d="M2407 1885 c-54 -19 -132 -41 -175 -51 -42 -9 -79 -18 -80 -20 -2 -1 10 -39 27 -82 108 -280 181 -740 181 -1136 0 -184 -8 -218 -67 -274 l-45 -43 39 7 c78 14 220 64 278 99 85 51 149 118 182 189 27 58 28 70 31 226 5 242 -23 427 -105 699 -38 127 -152 421 -162 420 -3 0 -50 -16 -104 -34z"/>
 </g>
<g id="layer104" fill="#fefefe" stroke="none">
 <path d="M573 2490 c-36 -15 -49 -76 -29 -143 30 -102 148 -203 321 -272 204 -81 526 -144 597 -116 54 21 62 141 15 213 -33 50 -100 78 -209 88 -186 17 -303 58 -473 169 -44 29 -96 54 -126 60 -58 13 -66 13 -96 1z"/>
 <path d="M2608 2486 c-26 -7 -82 -35 -125 -63 -205 -132 -233 -142 -466 -163 -103 -9 -171 -39 -204 -88 -47 -72 -39 -192 15 -213 71 -28 393 35 597 116 173 69 291 170 321 272 13 46 14 63 5 95 -18 57 -53 68 -143 44z"/>
 <path d="M712 1758 c-147 -376 -209 -679 -200 -979 5 -170 24 -225 107 -308 80 -80 230 -154 361 -176 l43 -7 -36 35 c-57 58 -60 79 -54 366 9 401 65 736 171 1029 19 51 31 94 27 96 -3 2 -41 11 -84 21 -43 9 -111 28 -150 42 -133 46 -117 56 -185 -119z"/>
 <path d="M2415 1884 c-33 -13 -100 -32 -150 -44 -49 -11 -95 -23 -102 -25 -7 -2 0 -34 23 -97 106 -293 162 -627 171 -1029 6 -287 3 -308 -54 -366 l-36 -35 43 7 c131 22 281 96 361 176 83 83 102 138 107 308 9 300 -53 603 -200 978 -67 173 -58 165 -163 127z"/>
 </g>

</svg>