<!DOCTYPE svg PUBLIC "-//W3C//DTD SVG 20010904//EN" "http://www.w3.org/TR/2001/REC-SVG-20010904/DTD/svg10.dtd">
<svg version="1.0" xmlns="http://www.w3.org/2000/svg" width="320px" height="319px" viewBox="0 0 3200 3190" preserveAspectRatio="xMidYMid meet">
<g id="layer101" fill="#010101" stroke="none">
 <path d="M2100 3089 c-158 -7 -191 -15 -292 -64 -119 -59 -189 -116 -401 -323 -114 -112 -214 -202 -220 -200 -7 2 -161 103 -343 225 l-331 221 -6 -496 c-3 -274 -2 -688 3 -922 7 -405 9 -430 33 -531 107 -452 386 -726 854 -843 54 -13 139 -29 188 -36 127 -16 352 -14 460 5 214 38 479 152 714 309 l136 91 -70 3 c-235 8 -399 45 -508 115 -131 84 -239 218 -296 366 -60 156 -89 355 -71 489 14 107 45 233 69 281 10 20 26 59 36 86 21 64 53 281 47 328 l-4 37 -53 0 c-29 0 -66 3 -83 6 l-31 6 21 41 c28 57 205 232 253 253 29 12 79 18 178 22 l137 5 1 131 c0 181 -2 390 -4 392 -7 6 -295 8 -417 3z"/>
 </g>
<g id="layer102" fill="#949494" stroke="none">
 <path d="M1951 2914 c-61 -13 -80 -21 -70 -26 3 -2 55 -52 116 -112 l111 -108 66 37 c36 20 66 40 66 43 0 4 -39 46 -87 94 -97 97 -93 96 -202 72z"/>
 <path d="M2258 2868 l63 -63 19 25 c11 14 20 41 20 63 l0 37 -82 0 -83 0 63 -62z"/>
 <path d="M1744 2821 c-21 -16 -68 -58 -103 -95 l-65 -65 115 -118 c62 -65 122 -124 133 -132 17 -13 27 -5 116 90 l98 104 -121 123 c-67 67 -124 122 -128 122 -3 0 -24 -13 -45 -29z"/>
 <path d="M673 1873 c3 -700 4 -731 25 -815 42 -174 123 -327 236 -445 150 -159 341 -257 610 -315 147 -32 433 -32 557 -1 106 27 211 63 264 91 l40 21 -200 1 c-354 1 -558 50 -755 181 -224 150 -344 367 -380 684 -5 50 -10 309 -10 577 l0 487 -137 92 c-76 50 -158 106 -183 124 -25 17 -51 35 -58 39 -11 6 -12 -124 -9 -721z"/>
 <path d="M1414 2500 l-91 -90 76 -49 c42 -26 96 -58 120 -70 47 -25 156 -51 211 -51 32 0 36 4 47 38 l12 37 -137 138 c-75 75 -139 137 -142 137 -3 0 -46 -41 -96 -90z"/>
 <path d="M1162 1733 c4 -510 4 -531 26 -608 112 -402 429 -615 918 -615 l119 0 -54 36 c-169 114 -296 313 -359 564 -23 93 -26 124 -26 275 0 195 19 294 78 418 29 60 66 202 66 253 0 11 -29 14 -156 14 -260 0 -348 21 -505 125 -55 36 -102 65 -105 65 -3 0 -3 -237 -2 -527z m478 165 c132 -67 132 -249 0 -315 -24 -13 -60 -23 -80 -23 -20 0 -56 10 -80 23 -132 66 -132 248 0 315 24 12 60 22 80 22 20 0 56 -10 80 -22z m0 -560 c132 -67 132 -249 0 -315 -56 -29 -104 -29 -160 0 -132 66 -132 248 0 315 24 12 60 22 80 22 20 0 56 -10 80 -22z"/>
 <path d="M1530 1853 c-24 -9 -61 -46 -77 -76 -31 -60 34 -152 107 -152 33 0 47 7 77 38 31 30 38 44 38 77 0 32 -7 47 -35 75 -34 34 -80 50 -110 38z"/>
 <path d="M1525 1291 c-33 -14 -74 -64 -81 -97 -5 -26 0 -38 26 -68 40 -45 92 -69 123 -57 12 5 35 23 52 40 23 24 30 41 30 71 0 70 -91 137 -150 111z"/>
 </g>
<g id="layer103" fill="#ffffff" stroke="none">
 <path d="M1981 2915 c-40 -8 -77 -17 -82 -22 -5 -5 39 -56 99 -116 l108 -108 58 35 c32 19 63 37 70 39 10 4 -162 188 -174 186 -3 0 -38 -7 -79 -14z"/>
 <path d="M2255 2870 c33 -33 63 -60 68 -60 12 0 37 65 37 95 0 25 -1 25 -82 25 l-82 0 59 -60z"/>
 <path d="M1740 2816 c-25 -19 -72 -61 -105 -95 l-60 -61 131 -131 130 -130 102 103 101 103 -122 123 c-67 67 -124 122 -127 122 -3 0 -25 -16 -50 -34z"/>
 <path d="M673 1888 c3 -585 7 -716 20 -780 77 -383 297 -630 673 -756 330 -111 659 -103 957 22 l82 35 -215 1 c-246 0 -366 15 -500 60 -360 120 -565 373 -619 765 -7 46 -11 281 -11 588 l0 512 -189 128 c-104 70 -192 127 -196 127 -3 0 -4 -316 -2 -702z"/>
 <path d="M1416 2501 l-89 -89 85 -56 c92 -60 199 -100 293 -110 l61 -7 10 40 11 39 -136 136 c-75 75 -139 136 -141 136 -3 0 -45 -40 -94 -89z"/>
 <path d="M1514 1841 c-40 -25 -64 -59 -64 -91 0 -40 34 -92 73 -113 32 -16 39 -17 69 -4 88 38 110 120 48 182 -44 44 -85 52 -126 26z"/>
 <path d="M1525 1290 c-27 -11 -71 -60 -79 -87 -15 -48 49 -122 112 -130 35 -5 44 -1 76 28 45 43 54 83 26 127 -21 34 -75 72 -100 71 -8 0 -24 -4 -35 -9z"/>
 </g>

</svg>