<!DOCTYPE svg PUBLIC "-//W3C//DTD SVG 20010904//EN" "http://www.w3.org/TR/2001/REC-SVG-20010904/DTD/svg10.dtd">
<svg version="1.0" xmlns="http://www.w3.org/2000/svg" width="320px" height="320px" viewBox="0 0 3200 3200" preserveAspectRatio="xMidYMid meet">
<g id="layer101" fill="#000000" stroke="none">
 <path d="M363 3008 c6 -123 35 -221 82 -275 52 -61 65 -96 72 -193 l6 -90 -197 0 c-108 0 -196 -3 -196 -6 0 -3 56 -100 125 -214 69 -114 125 -211 125 -214 0 -3 -56 -6 -125 -6 l-125 0 0 -350 0 -350 195 0 195 0 0 -60 0 -60 -195 0 -195 0 0 -328 c0 -360 3 -382 62 -494 38 -73 127 -157 205 -197 75 -37 193 -71 250 -71 l43 0 0 115 0 115 330 0 330 0 0 240 0 240 -60 0 -60 0 0 250 0 250 109 0 109 0 -24 -64 c-33 -91 -53 -210 -60 -356 l-7 -127 24 -6 c13 -4 40 -7 60 -7 48 0 180 -35 243 -63 29 -13 74 -40 102 -60 63 -45 137 -78 229 -103 100 -27 380 -27 480 0 92 25 166 58 229 103 28 20 73 47 102 60 63 28 195 63 243 63 20 0 47 3 60 7 l24 6 -7 131 c-11 229 -59 397 -150 535 -27 39 -66 86 -87 103 l-39 31 0 436 0 435 -42 86 c-32 65 -60 103 -118 160 -132 132 -211 160 -455 160 -244 0 -323 -28 -455 -160 -58 -57 -86 -95 -118 -160 l-42 -86 0 -436 0 -437 -30 -21 -30 -21 0 245 0 246 -125 0 c-69 0 -125 3 -125 6 0 3 56 100 125 214 69 114 125 211 125 214 0 3 -79 6 -175 6 l-175 0 0 163 c0 179 -12 248 -56 322 -34 58 -94 112 -163 144 l-56 26 -299 3 -299 3 6 -103z"/>
 </g>
<g id="layer102" fill="#e8e8e8" stroke="none">
 <path d="M530 2928 c1 -26 41 -101 81 -151 59 -75 71 -109 77 -224 l5 -103 183 0 184 0 0 148 c0 167 -8 208 -52 258 -62 71 -91 79 -295 82 -147 3 -183 1 -183 -10z"/>
 <path d="M2053 2651 c-98 -33 -173 -100 -222 -198 -20 -41 -21 -55 -21 -428 l0 -385 180 0 180 0 0 515 0 515 -32 0 c-18 -1 -56 -9 -85 -19z m17 -741 l0 -170 -85 0 -85 0 0 170 0 170 85 0 85 0 0 -170z"/>
 <path d="M2340 2156 l0 -516 180 0 180 0 0 385 0 386 -25 48 c-33 65 -119 151 -179 180 -27 12 -74 25 -103 28 l-53 6 0 -517z m270 -246 l0 -170 -85 0 -85 0 0 170 0 170 85 0 85 0 0 -170z"/>
 <path d="M450 2273 c1 -5 34 -64 74 -133 l73 -125 259 -2 259 -3 70 126 c39 69 72 130 73 135 2 5 -166 9 -402 9 -223 0 -406 -3 -406 -7z"/>
 <path d="M300 1660 l0 -180 100 0 100 0 0 100 0 100 125 0 125 0 0 -100 0 -100 105 0 105 0 0 100 0 100 125 0 125 0 0 -100 0 -100 100 0 100 0 0 180 0 180 -555 0 -555 0 0 -180z"/>
 <path d="M1726 1398 c-114 -117 -186 -280 -186 -421 l0 -74 65 -18 c75 -20 168 -62 229 -104 68 -47 186 -88 299 -104 l37 -6 0 400 0 399 -186 0 -187 0 -71 -72z m344 -228 l0 -170 -85 0 -85 0 0 170 0 170 85 0 85 0 0 -170z"/>
 <path d="M2340 1075 l0 -395 38 0 c56 0 179 37 247 74 33 18 89 49 125 69 36 20 100 46 142 58 l78 23 0 74 c0 140 -76 309 -191 425 l-67 67 -186 0 -186 0 0 -395z m270 95 l0 -170 -85 0 -85 0 0 170 0 170 85 0 85 0 0 -170z"/>
 <path d="M690 1060 l0 -250 185 0 185 0 0 250 0 250 -185 0 -185 0 0 -250z"/>
 <path d="M302 788 l3 -233 34 -73 c35 -74 90 -136 150 -166 l31 -17 0 361 0 360 -111 0 -111 0 4 -232z"/>
 <path d="M690 570 l0 -70 245 0 245 0 0 70 0 70 -245 0 -245 0 0 -70z"/>
 </g>

</svg>