<!DOCTYPE svg PUBLIC "-//W3C//DTD SVG 20010904//EN" "http://www.w3.org/TR/2001/REC-SVG-20010904/DTD/svg10.dtd">
<svg version="1.0" xmlns="http://www.w3.org/2000/svg" width="320px" height="320px" viewBox="0 0 3200 3200" preserveAspectRatio="xMidYMid meet">
<g id="layer101" fill="#000000" stroke="none">
 <path d="M1354 3076 c-17 -8 -42 -29 -55 -47 l-24 -34 -3 -602 -2 -603 -168 0 c-154 0 -171 -2 -212 -22 -26 -14 -57 -41 -75 -66 -26 -38 -30 -54 -34 -125 l-3 -82 -214 -175 c-117 -96 -213 -179 -213 -185 0 -5 96 -89 213 -185 l214 -175 3 -82 c4 -71 8 -87 34 -125 51 -73 95 -88 255 -89 l135 0 175 -214 c96 -118 180 -214 185 -214 6 0 89 96 185 214 l175 214 135 0 c160 1 204 16 255 89 26 38 30 54 34 125 l3 82 214 175 c117 96 213 180 213 185 0 6 -96 89 -213 185 l-214 175 -3 82 c-4 71 -8 87 -34 125 -18 25 -49 52 -75 66 -41 20 -58 22 -212 22 l-168 0 0 593 c0 557 -1 594 -19 627 -38 71 -50 75 -264 77 -146 2 -199 0 -223 -11z"/>
 </g>
<g id="layer102" fill="#afafaf" stroke="none">
 <path d="M1447 2914 c-4 -4 -7 -54 -7 -111 l0 -103 125 0 126 0 -3 108 -3 107 -116 3 c-63 1 -118 -1 -122 -4z"/>
 <path d="M1440 2515 l0 -85 125 0 125 0 0 85 0 85 -125 0 -125 0 0 -85z"/>
 <path d="M1440 2245 l0 -85 125 0 125 0 0 85 0 85 -125 0 -125 0 0 -85z"/>
 <path d="M1440 1975 l0 -85 125 0 125 0 0 85 0 85 -125 0 -125 0 0 -85z"/>
 <path d="M990 1613 c-39 -14 -40 -22 -40 -478 0 -365 2 -445 14 -461 14 -18 32 -19 601 -19 569 0 587 1 601 19 21 29 21 893 0 922 -14 18 -33 19 -588 21 -315 1 -580 -1 -588 -4z m852 -165 c47 -14 93 -63 107 -115 14 -49 14 -347 0 -396 -14 -52 -60 -101 -107 -115 -54 -16 -500 -16 -554 0 -47 14 -93 63 -107 115 -14 49 -14 347 0 396 13 49 60 101 101 114 47 16 510 16 560 1z"/>
 <path d="M1295 1335 c-25 -24 -25 -27 -25 -200 0 -173 0 -176 25 -200 l24 -25 246 0 246 0 24 25 c25 24 25 27 25 200 0 173 0 176 -25 200 l-24 25 -246 0 -246 0 -24 -25z m385 -195 l0 -80 -115 0 -115 0 0 80 0 80 115 0 115 0 0 -80z"/>
 <path d="M692 1210 c-46 -37 -84 -70 -85 -74 -1 -3 36 -37 83 -75 l85 -69 3 74 c2 41 2 106 0 144 l-3 68 -83 -68z"/>
 <path d="M2350 1134 c0 -139 1 -146 18 -132 9 8 46 39 82 68 36 29 68 55 73 59 6 6 -20 29 -150 134 l-23 18 0 -147z"/>
 <path d="M1437 457 c105 -130 128 -156 134 -150 4 5 30 37 59 73 29 36 60 73 68 83 14 16 7 17 -132 17 l-147 0 18 -23z"/>
 </g>
<g id="layer103" fill="#fefefe" stroke="none">
 <path d="M1452 2908 c-8 -8 -12 -47 -12 -110 l0 -98 125 0 125 0 0 98 c0 63 -4 102 -12 110 -8 8 -48 12 -113 12 -65 0 -105 -4 -113 -12z"/>
 <path d="M1440 1975 l0 -85 125 0 125 0 0 85 0 85 -125 0 -125 0 0 -85z"/>
 <path d="M1296 1329 c-26 -30 -26 -33 -26 -194 0 -161 0 -164 26 -194 l26 -31 243 0 243 0 26 31 c26 30 26 33 26 194 0 161 0 164 -26 194 l-26 31 -243 0 -243 0 -26 -31z m384 -189 l0 -80 -115 0 -115 0 0 80 0 80 115 0 115 0 0 -80z"/>
 <path d="M695 1209 c-38 -33 -73 -64 -78 -68 -6 -6 143 -141 158 -141 3 0 5 61 5 135 0 74 -3 135 -7 134 -5 0 -39 -27 -78 -60z"/>
 <path d="M2350 1135 c0 -74 2 -135 5 -135 5 0 165 131 165 135 0 4 -160 135 -165 135 -3 0 -5 -61 -5 -135z"/>
 <path d="M1430 475 c0 -5 131 -165 135 -165 4 0 135 160 135 165 0 3 -61 5 -135 5 -74 0 -135 -2 -135 -5z"/>
 </g>

</svg>