<!DOCTYPE svg PUBLIC "-//W3C//DTD SVG 20010904//EN" "http://www.w3.org/TR/2001/REC-SVG-20010904/DTD/svg10.dtd">
<svg version="1.0" xmlns="http://www.w3.org/2000/svg" width="320px" height="320px" viewBox="0 0 3200 3200" preserveAspectRatio="xMidYMid meet">
<g id="layer101" fill="#000000" stroke="none">
 <path d="M960 2550 l0 -530 70 0 70 0 0 -320 0 -320 70 0 70 0 0 -55 0 -55 -85 0 c-99 0 -187 -27 -269 -84 -28 -19 -68 -42 -88 -51 l-38 -15 0 333 c0 268 -3 343 -15 384 -20 68 -88 143 -157 174 -50 22 -66 24 -286 27 l-232 4 0 -226 0 -226 22 -4 c13 -3 41 -7 62 -10 48 -6 84 -38 92 -81 4 -24 -3 -52 -27 -106 -45 -104 -55 -193 -51 -476 l4 -242 46 -29 c163 -98 415 -149 790 -159 l222 -6 0 -133 0 -134 350 0 350 0 0 134 0 133 223 6 c374 10 626 61 789 159 l46 29 4 242 c4 283 -6 372 -51 476 -24 54 -31 82 -27 106 8 43 44 75 92 81 21 3 49 7 62 10 l22 4 0 225 0 225 -208 0 c-142 0 -224 -4 -260 -14 l-52 -13 0 63 0 64 110 0 110 0 0 220 0 220 -295 0 -295 0 0 250 0 250 -620 0 -620 0 0 -530z m1170 -575 c0 -45 0 -45 -35 -45 -35 0 -35 0 -35 45 0 45 0 45 35 45 35 0 35 0 35 -45z m270 -670 l0 -185 -37 15 c-21 9 -61 32 -89 51 -82 57 -170 84 -269 84 l-85 0 0 55 0 55 70 0 70 0 0 55 0 55 170 0 170 0 0 -185z"/>
 </g>
<g id="layer102" fill="#737373" stroke="none">
 <path d="M1130 2550 l0 -360 130 0 130 0 0 105 0 105 190 0 190 0 0 -105 0 -105 130 0 130 0 0 360 0 360 -450 0 -450 0 0 -360z"/>
 <path d="M2300 2085 l0 -325 -120 0 -120 0 0 -50 0 -50 170 0 170 0 0 325 0 325 110 0 110 0 0 50 0 50 -160 0 -160 0 0 -325z"/>
 <path d="M1490 2245 l0 -55 90 0 90 0 0 55 0 55 -90 0 -90 0 0 -55z"/>
 <path d="M1270 1785 l0 -235 310 0 310 0 0 235 0 235 -60 0 -60 0 0 -63 0 -62 -95 -95 -95 -95 -95 95 -95 95 0 62 0 63 -60 0 -60 0 0 -235z"/>
 <path d="M1490 1972 c0 -44 4 -52 45 -92 l45 -44 45 44 c41 40 45 48 45 92 l0 48 -90 0 -90 0 0 -48z"/>
 <path d="M240 1815 c0 -52 1 -55 36 -71 87 -41 149 -147 147 -249 -1 -59 -7 -80 -57 -220 -24 -67 -25 -81 -26 -286 l0 -217 50 -21 c109 -47 373 -91 544 -91 88 0 93 1 118 28 14 15 31 37 37 49 13 26 15 373 2 373 -26 0 -105 -37 -171 -80 -86 -56 -140 -72 -224 -68 -51 3 -62 7 -80 31 -20 27 -21 42 -26 406 -6 425 -4 416 -83 452 -33 15 -66 19 -154 19 l-113 0 0 -55z"/>
 <path d="M2653 1851 c-79 -36 -77 -27 -83 -452 -5 -364 -6 -379 -26 -406 -18 -24 -29 -28 -80 -31 -84 -4 -138 12 -224 68 -66 43 -145 80 -171 80 -13 0 -11 -347 2 -373 6 -12 23 -34 37 -49 25 -27 30 -28 118 -28 171 0 435 44 544 91 l50 21 0 217 c-1 205 -2 219 -26 286 -50 140 -56 161 -57 220 -2 102 60 208 147 249 35 16 36 19 36 71 l0 55 -112 0 c-89 0 -122 -4 -155 -19z"/>
 <path d="M1410 1325 l0 -55 170 0 170 0 0 55 0 55 -170 0 -170 0 0 -55z"/>
 <path d="M1270 875 l0 -225 310 0 310 0 0 225 0 225 -310 0 -310 0 0 -225z"/>
 <path d="M1400 430 l0 -50 180 0 180 0 0 50 0 50 -180 0 -180 0 0 -50z"/>
 </g>
<g id="layer103" fill="#afafaf" stroke="none">
 <path d="M1130 2550 l0 -360 130 0 130 0 0 105 0 105 190 0 190 0 0 -105 0 -105 130 0 130 0 0 360 0 360 -450 0 -450 0 0 -360z"/>
 <path d="M1270 1785 l0 -235 310 0 310 0 0 235 0 235 -60 0 -60 0 0 -68 0 -67 -95 -95 -95 -95 -95 95 -95 95 0 67 0 68 -60 0 -60 0 0 -235z"/>
 <path d="M240 1818 c0 -55 0 -55 41 -73 53 -24 103 -84 130 -154 26 -70 20 -155 -18 -245 -48 -112 -53 -148 -53 -367 l0 -207 69 -25 c122 -46 376 -87 532 -87 63 0 81 4 104 22 48 37 55 72 55 253 0 165 0 165 -22 165 -29 0 -103 -34 -143 -64 -83 -63 -224 -101 -285 -76 -59 24 -60 33 -60 433 0 361 0 364 -23 397 -40 61 -77 75 -209 79 l-118 3 0 -54z"/>
 <path d="M2677 1856 c-21 -8 -47 -22 -59 -33 -47 -42 -48 -50 -48 -433 0 -397 -1 -406 -60 -430 -61 -25 -202 13 -285 76 -40 30 -114 64 -142 64 -23 0 -23 0 -23 -165 0 -181 7 -216 55 -253 23 -18 41 -22 104 -22 156 0 410 41 532 87 l69 25 0 207 c0 219 -5 255 -53 367 -38 90 -44 175 -18 245 27 70 77 130 130 154 41 18 41 19 41 72 l0 53 -102 0 c-60 -1 -119 -7 -141 -14z"/>
 <path d="M1410 1325 l0 -55 170 0 170 0 0 55 0 55 -170 0 -170 0 0 -55z"/>
 <path d="M1270 875 l0 -225 310 0 310 0 0 225 0 225 -310 0 -310 0 0 -225z"/>
 <path d="M1400 430 l0 -50 180 0 180 0 0 50 0 50 -180 0 -180 0 0 -50z"/>
 </g>
<g id="layer104" fill="#ffffff" stroke="none">
 <path d="M240 1817 c0 -54 1 -56 35 -67 47 -16 120 -99 141 -162 23 -70 14 -162 -24 -254 -45 -108 -52 -158 -52 -364 l0 -189 28 -15 c86 -44 323 -91 517 -102 92 -6 116 -4 143 10 58 30 67 61 70 254 4 167 3 172 -17 172 -29 0 -65 -17 -154 -74 -122 -76 -250 -98 -304 -52 l-28 24 -5 385 c-5 370 -6 387 -26 414 -36 50 -86 66 -211 71 l-113 5 0 -56z"/>
 <path d="M2687 1856 c-48 -13 -80 -36 -100 -71 -8 -14 -14 -140 -17 -403 l-5 -384 -28 -24 c-54 -46 -182 -24 -304 52 -89 57 -125 74 -154 74 -20 0 -21 -5 -17 -172 3 -193 12 -224 70 -254 76 -39 528 24 661 92 l27 15 0 189 c0 206 -7 256 -52 364 -38 92 -47 184 -24 254 21 63 94 146 141 162 34 11 35 13 35 66 l0 54 -92 -1 c-51 0 -114 -6 -141 -13z"/>
 </g>

</svg>