<!DOCTYPE svg PUBLIC "-//W3C//DTD SVG 20010904//EN" "http://www.w3.org/TR/2001/REC-SVG-20010904/DTD/svg10.dtd">
<svg version="1.0" xmlns="http://www.w3.org/2000/svg" width="320px" height="320px" viewBox="0 0 3200 3200" preserveAspectRatio="xMidYMid meet">
<g id="layer101" fill="#000000" stroke="none">
 <path d="M1110 3030 l0 -80 -455 0 -455 0 0 -602 c0 -491 3 -613 15 -657 37 -139 120 -246 239 -307 l74 -38 -22 -46 c-18 -38 -21 -63 -20 -170 0 -93 5 -137 17 -170 27 -70 85 -147 141 -187 28 -20 53 -38 55 -40 3 -2 -43 -52 -102 -111 l-107 -107 0 -143 0 -142 244 0 c373 0 529 21 670 89 156 76 216 152 224 282 l5 79 -209 0 -208 0 67 68 67 68 0 86 c0 144 -42 293 -110 389 l-21 29 490 0 491 0 0 -363 0 -363 -70 -69 -70 -69 0 -173 0 -173 455 0 455 0 0 173 0 173 -70 69 -70 69 0 498 0 498 140 0 140 0 0 73 c-1 225 -102 406 -280 495 l-71 37 -35 90 -34 90 0 253 0 252 -248 0 c-225 0 -255 2 -308 20 -113 40 -189 50 -365 50 l-171 0 -41 34 c-98 79 -235 125 -374 126 l-73 0 0 -80z"/>
 </g>
<g id="layer102" fill="#afafaf" stroke="none">
 <path d="M1280 2815 l0 -115 130 0 c83 0 130 4 130 10 0 48 -107 166 -180 199 -80 36 -80 37 -80 -94z"/>
 <path d="M370 2735 l0 -45 100 0 100 0 0 45 0 45 -100 0 -100 0 0 -45z"/>
 <path d="M740 2650 l0 -130 -175 0 -175 0 -7 -27 c-5 -16 -8 -188 -8 -383 0 -327 2 -359 19 -405 27 -69 102 -146 179 -181 l62 -29 783 -3 784 -2 -7 32 c-4 18 -22 72 -39 119 -88 235 -246 414 -463 523 -168 84 -326 109 -651 104 l-224 -3 -29 -33 -29 -32 0 -163 c0 -254 4 -257 322 -257 l210 0 -4 55 c-4 44 -11 62 -34 86 -52 56 -94 69 -231 69 l-123 0 0 86 0 87 133 -6 c205 -8 290 -40 364 -136 46 -60 55 -98 60 -263 l5 -148 -283 0 c-323 0 -389 8 -456 54 -115 77 -136 146 -131 415 3 177 4 188 28 231 34 61 97 106 167 120 85 18 531 8 643 -14 256 -51 428 -137 596 -298 136 -130 241 -300 305 -493 32 -98 33 -105 37 -297 l4 -198 144 0 144 0 0 230 0 230 -75 0 -75 0 0 310 0 310 25 0 c27 0 31 10 15 41 -10 18 -24 19 -240 19 l-230 0 -2 232 -3 233 -65 18 c-61 18 -320 37 -320 24 0 -3 6 -32 14 -64 8 -32 18 -86 21 -120 l7 -63 -311 0 -311 0 0 125 0 125 -185 0 -185 0 0 -130z"/>
 <path d="M2250 2575 l0 -135 135 0 135 0 0 135 0 135 -135 0 -135 0 0 -135z"/>
 <path d="M2680 1900 l0 -140 126 0 126 0 -6 28 c-11 44 -56 125 -90 160 -25 28 -131 92 -151 92 -3 0 -5 -63 -5 -140z"/>
 <path d="M745 1294 c-78 -43 -111 -108 -103 -202 14 -146 124 -254 290 -285 l59 -11 -165 -165 c-146 -147 -166 -170 -166 -199 l0 -32 178 0 c305 0 477 26 547 84 l30 25 -187 1 -188 0 0 108 0 108 66 64 66 65 -5 85 c-6 112 -34 185 -99 256 -68 74 -133 106 -223 111 -52 3 -78 -1 -100 -13z"/>
 <path d="M2370 805 l0 -155 145 0 145 0 0 155 0 155 -145 0 -145 0 0 -155z"/>
 <path d="M2297 482 l-67 -68 0 -67 0 -67 125 0 125 0 0 75 0 75 75 0 75 0 0 -75 0 -75 85 0 85 0 0 68 0 68 -68 67 -68 67 -150 0 -150 0 -67 -68z"/>
 </g>
<g id="layer103" fill="#ffffff" stroke="none">
 <path d="M1280 2815 l0 -115 129 0 130 0 -12 35 c-20 58 -90 130 -158 164 -34 17 -68 31 -76 31 -10 0 -13 -26 -13 -115z"/>
 <path d="M740 2650 l0 -130 -174 0 -174 0 -11 -63 c-6 -37 -11 -187 -11 -352 0 -234 3 -301 16 -354 17 -67 52 -128 95 -167 37 -33 119 -72 177 -83 35 -7 309 -11 792 -11 720 0 740 1 740 19 0 36 -43 156 -86 242 -130 260 -363 431 -674 494 -87 18 -443 31 -543 21 -49 -6 -75 -14 -95 -31 l-27 -23 0 -176 0 -176 31 -30 c17 -17 48 -35 70 -40 21 -5 126 -10 233 -10 l194 0 -6 51 c-8 62 -44 115 -96 137 -23 10 -81 17 -163 20 l-128 5 0 83 0 84 114 0 c140 0 203 -11 284 -51 46 -22 73 -44 95 -76 56 -77 66 -122 67 -280 l0 -143 -310 0 c-285 0 -315 2 -367 20 -75 26 -119 63 -157 130 l-31 55 -3 218 -3 217 27 56 c30 61 69 96 133 119 60 21 505 21 641 0 100 -15 221 -46 280 -71 169 -73 256 -131 370 -244 133 -132 226 -285 297 -486 26 -75 28 -90 31 -286 l3 -208 145 0 144 0 0 230 0 230 -75 0 -75 0 0 310 0 310 25 0 c29 0 29 0 13 35 l-11 25 -229 0 -228 0 0 229 0 229 -79 21 c-47 13 -128 24 -194 28 l-115 6 14 -54 c8 -30 17 -87 21 -126 l6 -73 -312 0 -311 0 0 125 0 125 -185 0 -185 0 0 -130z"/>
 <path d="M2250 2575 l0 -135 135 0 135 0 0 135 0 135 -135 0 -135 0 0 -135z"/>
 <path d="M2680 1895 l0 -135 124 0 125 0 -21 60 c-14 41 -36 78 -69 115 -45 48 -117 95 -147 95 -9 0 -12 -38 -12 -135z"/>
 <path d="M765 1300 c-108 -34 -151 -175 -93 -300 52 -110 129 -162 292 -195 29 -6 26 -9 -137 -173 -147 -147 -167 -171 -167 -200 l0 -32 128 0 c154 0 393 16 459 30 53 11 127 46 144 67 10 11 -20 13 -170 13 l-181 0 0 108 0 108 66 64 66 65 -5 70 c-3 39 -15 104 -27 144 -19 62 -31 82 -79 130 -31 32 -77 68 -104 80 -53 25 -146 36 -192 21z"/>
 <path d="M2370 805 l0 -155 145 0 145 0 0 155 0 155 -145 0 -145 0 0 -155z"/>
 </g>

</svg>