<!DOCTYPE svg PUBLIC "-//W3C//DTD SVG 20010904//EN" "http://www.w3.org/TR/2001/REC-SVG-20010904/DTD/svg10.dtd">
<svg version="1.0" xmlns="http://www.w3.org/2000/svg" width="283px" height="303px" viewBox="0 0 2830 3030" preserveAspectRatio="xMidYMid meet">
<g id="layer101" fill="#0a0506" stroke="none">
 <path d="M441 3020 c-222 -47 -371 -164 -422 -332 -18 -58 -21 -88 -17 -176 5 -114 28 -185 83 -258 19 -24 27 -52 34 -114 5 -45 11 -83 12 -85 2 -1 43 -6 90 -10 l87 -7 33 56 c33 56 34 56 82 56 l48 0 27 -60 27 -59 86 -1 87 0 11 61 c6 34 27 95 48 136 40 77 43 80 140 99 28 5 33 1 78 -60 38 -51 53 -65 69 -61 12 2 55 6 97 10 l75 6 378 -367 378 -367 -4 -86 -3 -85 86 -21 c47 -12 91 -25 97 -28 15 -10 107 -233 141 -344 35 -113 85 -359 140 -688 23 -136 43 -231 50 -233 21 -7 120 77 168 141 127 173 183 373 183 652 0 211 -37 338 -144 504 -52 81 -177 215 -248 267 l-48 36 0 62 0 62 -74 24 -73 23 -260 266 c-143 146 -316 325 -384 396 l-125 130 -14 78 -13 77 -92 50 c-51 28 -97 50 -104 50 -6 0 -29 20 -51 44 -50 54 -154 110 -257 138 -63 17 -114 21 -268 24 -104 2 -210 -1 -234 -6z"/>
 <path d="M700 1934 c-92 -24 -232 -98 -277 -147 -79 -85 -114 -238 -114 -499 0 -168 11 -270 36 -318 35 -67 204 -176 304 -196 29 -6 31 -9 30 -48 0 -39 -4 -44 -70 -94 -75 -57 -99 -95 -137 -212 -17 -52 -52 -197 -52 -216 0 -2 71 -4 159 -4 l158 0 18 45 c20 55 75 115 103 115 25 0 76 -59 99 -117 l18 -43 158 0 159 0 -7 43 c-13 75 -55 210 -86 273 -17 34 -54 85 -85 115 -48 47 -54 58 -54 94 l1 40 89 44 c112 55 198 123 226 179 34 66 47 191 41 391 -5 189 -25 299 -68 367 -41 67 -203 156 -341 189 -79 18 -236 18 -308 -1z"/>
 </g>
<g id="layer102" fill="#444041" stroke="none">
 <path d="M560 2954 c-109 -18 -158 -32 -245 -74 -174 -85 -231 -160 -236 -315 -4 -98 7 -138 52 -189 33 -37 40 -54 49 -112 5 -38 10 -75 10 -81 0 -17 56 -17 67 -1 4 7 15 31 24 53 l17 40 103 -4 c57 -2 107 -8 110 -13 3 -5 12 -34 18 -64 7 -30 15 -54 19 -54 4 0 24 5 44 10 36 10 37 12 43 68 6 44 18 73 53 128 l46 71 100 34 100 34 108 134 c59 74 108 137 108 142 0 17 -105 92 -175 125 -120 56 -303 85 -415 68z m92 -157 c21 -31 20 -59 -3 -83 -27 -29 -62 -31 -89 -4 -44 44 -7 118 53 106 17 -4 35 -12 39 -19z m281 -35 c9 -8 17 -29 17 -47 0 -58 -68 -90 -114 -54 -44 35 -31 102 24 122 20 7 51 -2 73 -21z m-525 -78 c34 -39 26 -108 -17 -141 -9 -7 -33 -13 -54 -13 -62 0 -96 46 -88 120 1 8 16 28 32 43 26 23 36 27 67 21 20 -3 47 -17 60 -30z"/>
 <path d="M1183 2633 c-32 -37 -76 -87 -98 -112 -84 -96 -79 -83 -49 -130 45 -67 62 -60 187 73 89 95 107 120 113 154 6 39 5 41 -34 61 -23 12 -46 21 -51 21 -5 0 -36 -30 -68 -67z"/>
 <path d="M1311 2432 l-61 -67 92 -89 c107 -103 331 -320 534 -519 l142 -138 58 55 59 54 -175 179 c-96 98 -253 258 -349 355 -96 98 -180 187 -188 198 -34 48 -47 44 -112 -28z"/>
 <path d="M800 1843 c-65 -11 -171 -49 -230 -83 -141 -83 -154 -117 -154 -430 l-1 -225 43 -3 42 -3 0 -64 c0 -77 4 -81 167 -163 102 -50 113 -58 113 -82 0 -15 3 -61 6 -102 l7 -75 -55 -30 c-85 -48 -113 -77 -151 -155 -58 -121 -59 -118 12 -118 l60 0 27 45 c33 57 98 113 140 121 18 3 48 1 66 -5 37 -12 114 -87 144 -138 18 -32 21 -33 81 -33 40 0 63 4 63 11 0 18 -100 176 -141 222 -20 24 -54 52 -74 62 l-37 20 6 74 c3 41 6 86 6 102 0 25 9 32 103 77 56 27 119 63 140 81 35 31 37 37 37 91 l0 59 48 3 47 3 2 159 c2 172 -15 311 -46 381 -48 109 -318 222 -471 198z m270 -793 l0 -50 -210 0 -210 0 0 50 0 50 210 0 210 0 0 -50z"/>
 <path d="M2198 1648 c-42 -11 -148 -114 -148 -145 0 -10 -3 -28 -6 -40 -6 -21 -3 -23 32 -23 34 0 46 8 110 71 69 68 71 72 64 106 -5 19 -10 36 -12 37 -1 2 -20 -1 -40 -6z"/>
 <path d="M2259 1452 l-66 -67 39 -60 c94 -146 163 -313 202 -490 17 -81 62 -419 72 -547 3 -49 10 -88 14 -88 20 0 111 114 143 180 49 100 69 184 72 305 7 272 -85 526 -258 710 -65 70 -133 127 -148 124 -2 0 -34 -30 -70 -67z"/>
 </g>
<g id="layer103" fill="#979696" stroke="none">
 <path d="M560 2954 c-121 -21 -158 -32 -245 -74 -121 -59 -194 -125 -219 -196 -21 -62 -21 -202 0 -252 8 -20 28 -51 44 -67 24 -24 31 -44 40 -100 5 -39 10 -76 10 -83 0 -18 60 -11 72 8 4 8 15 32 23 53 l15 37 103 -6 c56 -4 105 -11 108 -16 3 -5 12 -34 19 -64 7 -30 16 -54 19 -54 3 0 23 5 43 10 36 10 37 12 43 68 6 44 18 73 54 129 l46 72 97 31 98 31 103 127 c57 70 106 133 110 139 13 21 -74 94 -159 134 -45 21 -110 45 -145 53 -67 16 -236 28 -279 20z m84 -150 c9 -8 19 -27 22 -40 8 -31 -29 -74 -63 -74 -30 0 -63 34 -63 65 0 52 69 85 104 49z m289 -42 c27 -24 22 -76 -9 -101 -15 -12 -34 -21 -44 -21 -33 0 -70 39 -70 74 0 65 71 93 123 48z m-532 -71 c59 -60 23 -161 -58 -161 -45 0 -69 14 -89 51 -20 40 -11 82 28 114 40 34 82 33 119 -4z"/>
 <path d="M1189 2638 c-31 -35 -84 -96 -118 -136 l-62 -72 31 -40 c44 -56 65 -48 175 68 138 145 154 187 85 222 -21 11 -43 20 -48 20 -5 0 -33 -28 -63 -62z"/>
 <path d="M1313 2432 l-60 -67 381 -371 382 -371 59 52 59 53 -378 386 c-208 212 -380 386 -381 386 -1 0 -29 -30 -62 -68z"/>
 <path d="M727 1824 c-80 -19 -181 -71 -234 -119 -66 -61 -78 -117 -78 -385 l0 -215 450 0 450 0 3 115 c4 137 -12 316 -34 391 -20 67 -66 112 -167 162 -134 66 -260 83 -390 51z"/>
 <path d="M2199 1648 c-82 -21 -188 -172 -139 -198 36 -19 55 -10 126 61 69 68 71 72 64 106 -5 19 -10 36 -12 37 -1 2 -19 -1 -39 -6z"/>
 <path d="M2264 1454 l-72 -65 56 -92 c111 -184 158 -308 197 -522 29 -158 41 -248 56 -430 6 -77 13 -142 16 -145 10 -10 111 111 142 169 67 127 92 344 61 532 -34 203 -137 398 -286 540 -92 87 -88 87 -170 13z"/>
 <path d="M500 991 c0 -21 81 -77 175 -122 95 -46 104 -49 185 -49 81 0 90 3 185 49 94 45 175 101 175 122 0 5 -154 9 -360 9 -206 0 -360 -4 -360 -9z"/>
 <path d="M790 661 l0 -49 -68 -40 c-86 -52 -141 -125 -173 -234 l-8 -28 59 0 c59 0 59 0 84 43 47 80 111 127 175 127 46 0 115 -52 157 -119 l39 -61 63 0 c34 0 62 4 62 10 0 18 -101 178 -140 222 -21 24 -54 52 -74 63 -34 18 -36 23 -36 67 l0 48 -70 0 -70 0 0 -49z"/>
 </g>
<g id="layer104" fill="#c2c0c1" stroke="none">
 <path d="M550 2949 c-81 -8 -174 -36 -255 -76 -54 -28 -151 -103 -174 -135 -22 -33 -41 -119 -41 -195 0 -81 16 -127 66 -184 27 -31 32 -47 39 -113 l7 -77 30 3 c32 3 35 6 63 71 l17 39 71 -6 c40 -3 86 -5 103 -6 34 0 47 -19 59 -84 8 -39 22 -44 68 -27 20 8 26 19 31 63 7 57 11 64 68 150 35 52 41 56 100 71 124 31 123 30 302 258 l45 56 -22 25 c-32 38 -108 86 -189 119 -104 43 -247 60 -388 48z m94 -145 c29 -28 31 -63 5 -90 -26 -28 -55 -31 -87 -8 -27 18 -30 69 -5 96 20 22 66 24 87 2z m286 -34 c45 -45 13 -130 -50 -130 -41 0 -70 31 -70 75 0 44 29 75 70 75 17 0 39 -9 50 -20z m-538 -70 c14 -10 31 -33 38 -51 12 -27 11 -36 -4 -63 -39 -73 -115 -83 -162 -20 -34 44 -27 91 17 128 36 31 77 33 111 6z"/>
 <path d="M1338 2457 c-20 -23 -47 -55 -59 -71 l-23 -29 55 -50 c109 -101 556 -533 630 -609 l75 -77 52 50 c29 27 52 54 52 59 0 9 -125 138 -560 581 l-185 188 -37 -42z"/>
 <path d="M705 1817 c-72 -25 -173 -79 -208 -111 -69 -65 -86 -149 -84 -411 l2 -190 24 -3 c49 -7 70 8 132 96 35 48 100 129 146 181 l83 93 0 179 0 179 -32 -1 c-18 -1 -46 -6 -63 -12z"/>
 <path d="M920 1654 l0 -179 86 -100 c47 -55 113 -137 147 -183 62 -83 81 -96 133 -90 l28 3 -1 150 c0 168 -10 300 -24 326 -5 10 -9 28 -9 40 0 57 -202 188 -312 204 l-48 7 0 -178z"/>
 <path d="M2295 1480 c-37 -38 -38 -40 -21 -62 103 -141 165 -260 216 -418 59 -181 74 -284 67 -469 -4 -99 -13 -187 -26 -241 -10 -47 -17 -87 -15 -89 11 -12 113 115 147 183 121 240 79 635 -92 891 -53 77 -178 212 -218 234 -17 8 -26 4 -58 -29z"/>
 <path d="M784 1272 c-53 -48 -134 -150 -134 -167 0 -3 92 -5 205 -5 124 0 205 4 205 10 0 30 -180 221 -207 220 -4 -1 -36 -27 -69 -58z"/>
 </g>
<g id="layer105" fill="#e2e1e1" stroke="none">
 <path d="M555 2949 c-168 -14 -372 -117 -407 -206 -41 -102 -47 -237 -13 -303 89 -172 402 -198 573 -46 20 18 62 40 92 49 30 10 71 22 91 28 41 13 86 72 124 165 31 75 32 136 3 194 -28 54 -59 71 -183 99 -103 23 -180 29 -280 20z m93 -145 c26 -18 29 -55 6 -89 -32 -49 -114 -22 -114 37 0 60 57 88 108 52z m282 -34 c29 -29 27 -94 -2 -114 -44 -31 -97 -16 -117 33 -10 24 -10 34 3 59 9 17 21 32 28 35 29 12 69 6 88 -13z m-545 -62 c14 -6 33 -26 41 -44 32 -67 -13 -139 -88 -139 -34 0 -45 6 -69 35 -46 54 -39 104 21 144 29 19 59 20 95 4z"/>
 <path d="M2296 1481 l-37 -38 54 -79 c108 -156 196 -369 233 -559 23 -119 22 -328 -1 -450 -10 -49 -20 -102 -22 -117 -3 -16 -1 -28 5 -28 23 0 97 100 138 185 36 76 45 108 58 204 13 101 13 129 1 230 -32 257 -114 431 -281 596 -103 102 -103 102 -148 56z"/>
 <path d="M785 1272 c-46 -43 -125 -142 -125 -156 0 -3 90 -6 200 -6 l201 0 -35 52 c-40 59 -149 158 -174 158 -9 -1 -40 -22 -67 -48z"/>
 </g>

</svg>