<!DOCTYPE svg PUBLIC "-//W3C//DTD SVG 20010904//EN" "http://www.w3.org/TR/2001/REC-SVG-20010904/DTD/svg10.dtd">
<svg version="1.0" xmlns="http://www.w3.org/2000/svg" width="320px" height="320px" viewBox="0 0 3200 3200" preserveAspectRatio="xMidYMid meet">
<g id="layer101" fill="#000000" stroke="none">
 <path d="M560 2710 l0 -250 -240 0 -240 0 0 -56 c0 -149 86 -333 229 -487 32 -34 61 -71 65 -82 4 -11 54 -267 112 -570 116 -613 163 -851 170 -877 5 -16 21 -18 144 -18 123 0 139 2 144 18 7 26 54 264 170 877 58 303 108 559 112 570 4 11 33 48 65 82 143 154 229 338 229 487 l0 56 -240 0 -240 0 0 250 0 250 -240 0 -240 0 0 -250z"/>
 <path d="M1777 2552 l-217 -217 0 -445 0 -445 -80 -80 -80 -80 0 -252 0 -253 23 -4 c12 -2 57 -9 100 -15 104 -15 203 -55 318 -129 160 -103 246 -132 399 -132 153 0 239 29 399 132 115 74 214 114 318 129 43 6 88 13 101 15 l22 4 0 253 0 252 -80 80 -80 80 0 445 0 445 -218 218 -217 217 -245 0 -245 0 -218 -218z"/>
 </g>
<g id="layer102" fill="#949494" stroke="none">
 <path d="M730 2625 l0 -165 70 0 70 0 0 165 0 165 -70 0 -70 0 0 -165z"/>
 <path d="M2007 2562 l-37 -38 0 -890 0 -889 33 -18 c34 -18 113 -47 128 -47 5 0 9 419 9 960 l0 960 -48 0 c-42 0 -52 -4 -85 -38z"/>
 <path d="M2240 1635 l0 -965 44 0 c76 0 179 40 281 110 76 52 223 114 318 135 l27 5 0 158 0 157 -80 80 -80 80 0 445 0 445 -158 158 -157 157 -98 0 -97 0 0 -965z m270 -340 l66 -65 64 65 c57 57 69 65 102 65 37 0 38 -1 38 -37 0 -33 -8 -46 -65 -103 l-65 -66 55 -54 c47 -47 55 -60 55 -92 0 -37 -1 -38 -37 -38 -32 0 -46 8 -93 55 l-56 55 -54 -55 c-47 -47 -60 -55 -92 -55 -37 0 -38 1 -38 38 0 32 8 45 55 92 l55 54 -65 66 c-57 57 -65 70 -65 103 0 36 1 37 37 37 33 0 46 -8 103 -65z"/>
 <path d="M1797 2352 l-67 -68 0 -444 0 -445 -80 -80 -80 -80 0 -157 0 -158 28 -5 c48 -11 176 -57 225 -81 l47 -24 0 805 c0 443 -1 805 -3 805 -1 0 -33 -30 -70 -68z"/>
 <path d="M260 2285 c0 -2 15 -35 33 -73 39 -80 78 -138 137 -204 l42 -48 328 0 328 0 42 48 c59 66 98 124 137 204 18 38 33 71 33 73 0 3 -243 5 -540 5 -297 0 -540 -2 -540 -5z"/>
 <path d="M550 1848 c-1 -23 245 -1298 250 -1298 5 0 251 1275 250 1298 0 9 -57 12 -250 12 -193 0 -250 -3 -250 -12z"/>
 </g>
<g id="layer103" fill="#ffffff" stroke="none">
 <path d="M730 2625 l0 -165 70 0 70 0 0 165 0 165 -70 0 -70 0 0 -165z"/>
 <path d="M2240 1634 l0 -967 54 7 c86 10 155 36 244 93 110 70 213 119 300 140 l72 18 0 155 0 155 -80 80 -80 80 0 445 0 445 -158 158 -157 157 -98 0 -97 0 0 -966z m270 -339 l66 -65 64 65 c57 57 69 65 102 65 37 0 38 -1 38 -37 0 -33 -8 -46 -65 -103 l-65 -66 55 -54 c47 -47 55 -60 55 -92 0 -37 -1 -38 -37 -38 -32 0 -46 8 -93 55 l-56 55 -54 -55 c-47 -47 -60 -55 -92 -55 -37 0 -38 1 -38 38 0 32 8 45 55 92 l55 54 -65 66 c-57 57 -65 70 -65 103 0 36 1 37 37 37 33 0 46 -8 103 -65z"/>
 <path d="M1798 2353 l-68 -69 0 -444 0 -445 -80 -80 -80 -80 0 -155 0 -155 72 -18 c39 -10 105 -33 146 -53 41 -19 76 -33 78 -31 2 2 3 362 2 801 l-3 797 -67 -68z"/>
 <path d="M275 2263 c11 -46 82 -164 143 -235 l56 -68 326 0 326 0 56 68 c61 71 132 189 143 235 l7 27 -532 0 -532 0 7 -27z"/>
 <path d="M552 1838 c3 -13 58 -301 124 -640 65 -340 121 -618 124 -618 3 0 59 278 124 618 66 339 121 627 124 640 l4 22 -252 0 -252 0 4 -22z"/>
 </g>

</svg>