<!DOCTYPE svg PUBLIC "-//W3C//DTD SVG 20010904//EN" "http://www.w3.org/TR/2001/REC-SVG-20010904/DTD/svg10.dtd">
<svg version="1.0" xmlns="http://www.w3.org/2000/svg" width="320px" height="320px" viewBox="0 0 3200 3200" preserveAspectRatio="xMidYMid meet">
<g id="layer101" fill="#000000" stroke="none">
 <path d="M1347 3096 c-56 -21 -103 -61 -126 -109 -20 -40 -21 -60 -21 -292 0 -234 1 -251 22 -293 12 -27 38 -57 65 -75 42 -30 43 -32 43 -85 0 -50 -3 -57 -44 -99 -86 -87 -158 -264 -191 -468 -11 -63 -15 -172 -15 -365 l0 -275 -20 25 c-32 39 -78 139 -96 205 -10 39 -18 133 -24 265 -8 220 -14 251 -59 322 -35 55 -83 93 -151 119 -67 25 -253 27 -329 2 -67 -21 -128 -75 -157 -137 -21 -46 -24 -65 -24 -193 l0 -143 119 0 119 0 4 -177 c4 -153 9 -192 32 -278 29 -108 94 -255 147 -332 134 -195 350 -325 608 -364 l81 -12 0 -144 0 -143 235 0 235 0 0 143 0 144 81 12 c258 39 474 169 608 364 53 77 118 224 147 332 23 86 28 125 32 278 l4 177 119 0 119 0 0 143 c0 128 -3 147 -24 193 -29 63 -91 117 -161 139 -43 13 -81 16 -177 13 -68 -2 -131 -8 -140 -12 -17 -8 -18 10 -18 303 l0 311 -229 0 -230 0 -3 188 c-3 186 -3 189 -30 230 -15 22 -49 54 -75 69 -48 28 -49 28 -243 30 -146 2 -204 -1 -233 -11z m613 -1098 l-1 -33 -14 25 c-18 32 -18 40 0 40 10 0 15 -10 15 -32z m358 -71 c-95 -73 -128 -167 -128 -369 0 -229 -27 -354 -101 -470 l-34 -53 -6 310 c-5 327 -11 377 -64 543 l-23 72 200 0 200 0 -44 -33z"/>
 </g>
<g id="layer102" fill="#959595" stroke="none">
 <path d="M1395 2915 c-25 -24 -25 -25 -25 -220 0 -195 0 -196 25 -220 18 -18 35 -25 65 -25 l40 0 0 -165 0 -165 64 0 64 0 4 189 c3 215 8 229 86 266 l41 20 1 148 c0 144 -1 149 -25 172 -23 24 -28 25 -170 25 -142 0 -147 -1 -170 -25z"/>
 <path d="M1813 2413 c-9 -3 -13 -34 -13 -103 0 -113 -3 -110 96 -110 l64 0 0 50 0 50 50 0 50 0 0 -85 0 -85 80 0 80 0 0 145 0 145 -197 -1 c-109 0 -204 -3 -210 -6z"/>
 <path d="M1429 2052 c-52 -58 -86 -122 -122 -232 -48 -147 -52 -192 -52 -570 l0 -355 55 -18 c134 -45 376 -45 510 0 l55 18 0 355 c0 378 -4 423 -52 570 -37 114 -73 180 -123 228 l-45 43 -3 -155 -3 -156 -84 0 -85 0 -2 162 -3 162 -46 -52z"/>
 <path d="M465 1808 c-49 -27 -75 -61 -75 -100 l0 -38 48 0 c66 0 118 -17 155 -50 l32 -28 7 -204 c4 -129 12 -225 22 -263 84 -328 267 -522 564 -598 79 -20 112 -22 347 -22 235 0 268 2 347 22 297 76 480 270 564 598 10 38 18 134 22 263 l7 204 32 28 c37 33 89 50 156 50 l47 0 0 38 c0 29 -7 45 -27 64 -43 40 -67 48 -137 48 -76 0 -110 -11 -149 -48 -56 -53 -61 -71 -68 -287 -9 -277 -37 -380 -145 -531 -102 -145 -261 -232 -485 -269 -119 -19 -209 -19 -328 0 -224 37 -383 124 -485 269 -108 151 -136 254 -145 531 -7 216 -12 234 -68 287 -15 15 -41 32 -56 37 -37 14 -156 14 -182 -1z"/>
 <path d="M1500 275 l0 -55 65 0 65 0 0 55 0 55 -65 0 -65 0 0 -55z"/>
 </g>
<g id="layer103" fill="#fefefe" stroke="none">
 <path d="M1433 2055 c-52 -61 -105 -167 -133 -266 -38 -137 -50 -280 -50 -594 l0 -294 63 -19 c112 -35 233 -46 343 -32 54 6 127 21 161 31 l63 20 0 297 c0 316 -12 447 -50 589 -30 112 -86 218 -137 261 l-43 35 0 -152 0 -151 -85 0 -85 0 -2 162 -3 162 -42 -49z"/>
 <path d="M476 1805 c-53 -19 -77 -45 -83 -92 l-5 -40 79 -5 c89 -5 132 -27 151 -75 6 -16 13 -109 15 -208 4 -151 9 -196 31 -279 70 -271 232 -462 462 -545 126 -46 207 -56 439 -56 232 0 313 10 439 56 230 83 392 274 462 545 22 83 27 128 31 279 2 99 9 192 15 208 19 48 62 70 151 75 l79 5 -5 41 c-7 48 -38 80 -95 95 -75 21 -168 6 -214 -36 -12 -10 -30 -38 -41 -63 -18 -38 -22 -75 -28 -250 -8 -230 -17 -277 -81 -409 -57 -119 -169 -232 -288 -290 -145 -70 -217 -85 -425 -85 -208 0 -280 15 -425 85 -119 58 -231 171 -288 290 -64 132 -73 179 -81 409 -9 262 -27 310 -128 346 -49 17 -117 17 -167 -1z"/>
 <path d="M1500 275 l0 -55 65 0 65 0 0 55 0 55 -65 0 -65 0 0 -55z"/>
 </g>

</svg>