<!DOCTYPE svg PUBLIC "-//W3C//DTD SVG 20010904//EN" "http://www.w3.org/TR/2001/REC-SVG-20010904/DTD/svg10.dtd">
<svg version="1.0" xmlns="http://www.w3.org/2000/svg" width="320px" height="320px" viewBox="0 0 3200 3200" preserveAspectRatio="xMidYMid meet">
<g id="layer101" fill="#000000" stroke="none">
 <path d="M427 3139 c-195 -46 -327 -245 -327 -496 l0 -93 168 0 c248 0 318 -20 500 -139 240 -158 572 -484 930 -915 l140 -169 -39 -29 c-48 -34 -69 -74 -69 -129 0 -33 11 -61 50 -126 27 -46 50 -88 50 -94 0 -12 -97 -6 -197 11 -74 13 -147 46 -158 73 -21 47 -65 57 -262 57 l-183 0 0 40 c0 32 -7 48 -34 78 l-34 37 -247 0 -247 0 -34 -37 -34 -38 0 -166 0 -166 40 -40 39 -40 -32 -40 c-31 -39 -32 -42 -35 -158 l-4 -119 35 -38 c34 -37 37 -38 116 -41 l81 -4 0 -72 c0 -131 50 -172 200 -164 95 6 144 20 227 69 78 46 219 187 283 284 67 101 73 105 124 93 125 -29 271 -40 573 -45 l323 -6 67 -119 c38 -65 80 -134 95 -152 31 -38 90 -59 139 -49 18 3 101 50 184 103 82 53 171 106 197 118 52 26 93 63 115 106 27 52 12 100 -68 228 -41 64 -94 151 -119 193 -25 42 -79 130 -121 194 l-77 118 39 24 c56 34 82 75 87 134 4 46 0 56 -47 132 -28 46 -51 85 -51 87 0 9 -64 101 -82 119 -46 45 -125 44 -198 -3 -37 -24 -48 -27 -61 -17 -10 7 -64 75 -122 152 -58 77 -153 199 -213 270 -139 167 -469 498 -604 605 -260 206 -495 328 -722 374 -84 17 -316 20 -381 5z"/>
 </g>
<g id="layer102" fill="#9d9d9d" stroke="none">
 <path d="M450 2971 c-99 -32 -163 -107 -176 -204 l-6 -44 128 -6 c71 -3 156 -12 189 -21 229 -62 561 -309 895 -667 188 -201 277 -306 500 -588 l25 -32 157 98 c87 54 158 102 158 107 0 13 -177 246 -290 381 -364 437 -709 741 -1005 884 -167 82 -217 94 -395 97 -85 2 -166 0 -180 -5z"/>
 <path d="M2508 1537 c-53 -34 -207 -131 -343 -216 -135 -84 -245 -160 -245 -167 0 -19 93 -164 106 -164 5 0 75 41 155 92 79 51 229 145 334 209 104 64 194 124 199 132 7 11 -3 36 -40 96 -27 45 -53 81 -59 80 -5 0 -54 -28 -107 -62z"/>
 <path d="M2540 1119 c-41 -27 -110 -71 -154 -96 -43 -26 -80 -52 -82 -58 -4 -10 73 -140 265 -445 40 -63 78 -120 84 -126 9 -9 49 12 166 86 84 54 158 103 163 108 7 7 -15 48 -60 119 -121 189 -272 432 -278 448 -9 22 -22 18 -104 -36z"/>
 <path d="M574 1067 c-3 -8 -4 -41 -2 -73 l3 -59 140 0 140 0 0 70 0 70 -138 3 c-110 2 -138 0 -143 -11z"/>
 <path d="M1034 907 c-3 -8 -4 -41 -2 -73 l3 -59 125 0 125 0 0 70 0 70 -123 3 c-97 2 -123 0 -128 -11z"/>
 <path d="M1460 795 c0 -40 2 -44 33 -54 87 -28 360 -51 610 -51 l167 0 -26 40 -27 40 -86 0 c-193 0 -508 29 -633 59 l-38 9 0 -43z"/>
 <path d="M667 731 c-90 -91 -97 -101 -97 -138 0 -54 23 -73 88 -73 73 0 92 10 187 102 l85 83 0 63 0 62 -83 0 -83 0 -97 -99z"/>
 <path d="M952 527 l-143 -144 3 -44 3 -44 48 -3 c71 -5 143 33 234 120 78 76 121 130 167 211 l28 47 -99 0 -98 0 -143 -143z"/>
 </g>
<g id="layer103" fill="#e0e0e0" stroke="none">
 <path d="M445 2962 c-28 -10 -65 -28 -82 -40 -35 -25 -78 -107 -86 -163 l-5 -37 146 -4 c139 -4 152 -6 237 -39 151 -58 300 -156 495 -324 234 -201 556 -548 776 -834 l77 -101 36 22 c20 12 55 34 78 50 23 15 45 28 49 28 4 0 35 18 70 40 35 22 68 40 74 40 5 0 10 4 10 9 0 21 -363 478 -468 589 -453 480 -764 700 -1082 768 -93 20 -263 18 -325 -4z"/>
 <path d="M2584 1577 c-12 -6 -142 -87 -288 -179 -147 -93 -269 -168 -271 -168 -7 0 -105 -71 -105 -76 0 -15 96 -154 106 -154 7 0 75 38 151 85 76 47 145 90 153 95 114 71 354 225 369 238 21 17 21 17 -26 94 -27 43 -52 78 -58 78 -5 0 -20 -6 -31 -13z"/>
 <path d="M2470 1064 c-85 -52 -158 -98 -162 -102 -4 -4 3 -19 15 -34 l22 -26 154 97 c85 53 156 101 158 107 1 5 -5 19 -15 31 l-17 23 -155 -96z"/>
 <path d="M587 1062 c-23 -26 -22 -94 1 -115 28 -26 232 -25 255 1 23 26 22 94 -1 115 -28 26 -232 25 -255 -1z"/>
 <path d="M2597 855 c-82 -51 -151 -96 -154 -99 -3 -3 7 -25 21 -50 l27 -46 82 52 c45 28 111 69 147 91 98 61 96 58 65 106 -15 22 -30 41 -34 40 -3 0 -73 -42 -154 -94z"/>
 <path d="M1047 902 c-23 -26 -22 -94 1 -115 28 -26 202 -24 225 1 23 26 22 94 -1 115 -28 26 -202 24 -225 -1z"/>
 <path d="M1460 799 c0 -21 4 -40 9 -43 18 -11 157 -36 261 -46 58 -6 201 -13 319 -17 l213 -6 -25 39 -24 39 -219 6 c-219 7 -423 28 -495 53 l-39 14 0 -39z"/>
 <path d="M677 732 c-77 -77 -99 -105 -103 -133 -5 -31 -2 -39 22 -58 25 -19 36 -22 78 -16 68 9 90 22 175 109 74 74 75 76 79 136 l4 60 -78 0 -79 0 -98 -98z"/>
 <path d="M2871 691 l-24 -18 37 -56 c19 -32 40 -57 45 -57 5 0 18 8 30 18 l22 17 -36 58 c-20 31 -40 57 -43 57 -4 0 -18 -9 -31 -19z"/>
 <path d="M957 522 c-156 -156 -169 -179 -127 -217 18 -16 26 -17 71 -7 108 25 226 125 323 274 31 47 56 89 56 92 0 3 -39 6 -88 6 l-87 0 -148 -148z"/>
 <path d="M2640 549 c-25 -16 -46 -33 -48 -38 -4 -13 58 -111 70 -111 12 0 108 59 108 67 0 10 -71 113 -77 112 -5 0 -28 -14 -53 -30z"/>
 </g>

</svg>