<!DOCTYPE svg PUBLIC "-//W3C//DTD SVG 20010904//EN" "http://www.w3.org/TR/2001/REC-SVG-20010904/DTD/svg10.dtd">
<svg version="1.0" xmlns="http://www.w3.org/2000/svg" width="294px" height="305px" viewBox="0 0 2940 3050" preserveAspectRatio="xMidYMid meet">
<g id="layer101" fill="#020202" stroke="none">
 <path d="M1190 2910 l0 -140 -60 0 -60 0 0 -300 0 -300 -70 0 -70 0 0 140 0 140 -242 0 -242 0 -61 -42 c-85 -59 -216 -162 -242 -190 -27 -28 -63 -122 -109 -281 l-34 -119 0 -749 0 -749 400 0 400 0 0 -70 0 -70 600 0 600 0 0 195 0 195 60 0 60 0 0 -202 c0 -112 3 -240 7 -285 l6 -83 403 0 404 0 0 623 0 622 -273 273 -272 272 -138 0 -137 0 0 -205 0 -205 -60 0 -60 0 0 338 0 338 -68 67 -68 67 -67 0 -67 0 0 155 0 155 70 0 70 0 0 275 0 275 -340 0 -340 0 0 -140z m-260 -965 l0 -165 70 0 70 0 0 -125 0 -125 -70 0 -70 0 0 65 0 65 -125 0 -125 0 -6 26 c-9 35 3 149 22 206 19 59 82 131 158 180 32 21 63 38 68 38 4 0 8 -74 8 -165z m1190 -960 l0 -135 -60 0 -60 0 0 135 0 135 60 0 60 0 0 -135z"/>
 </g>
<g id="layer102" fill="#4b4b4b" stroke="none">
 <path d="M1320 2780 l0 -140 70 0 70 0 0 -230 0 -230 75 0 75 0 0 230 0 230 60 0 60 0 0 140 0 140 -205 0 -205 0 0 -140z"/>
 <path d="M1200 2405 l0 -225 60 0 60 0 0 225 0 225 -60 0 -60 0 0 -225z"/>
 <path d="M428 2283 c-112 -74 -185 -148 -222 -226 -73 -149 -70 -113 -74 -900 l-3 -707 331 0 330 0 0 135 0 135 -130 0 -130 0 0 265 0 265 130 0 130 0 0 135 0 135 -131 0 -131 0 4 163 c4 150 7 169 37 261 28 84 40 106 79 145 26 26 68 60 94 76 48 30 58 51 58 121 l0 34 -158 0 -157 0 -57 -37z"/>
 <path d="M1060 1980 l0 -70 64 0 63 0 7 -37 c3 -21 6 -80 6 -130 l0 -93 335 0 335 0 0 200 0 200 -405 0 -405 0 0 -70z"/>
 <path d="M2260 912 l0 -782 275 0 275 0 0 515 0 514 -187 183 c-104 101 -227 221 -275 267 l-88 85 0 -782z"/>
 <path d="M1197 1523 c-4 -3 -7 -35 -7 -70 l0 -63 -135 0 -135 0 0 -130 0 -130 -130 0 -131 0 3 -142 3 -143 126 -3 126 -3 7 -91 c3 -50 6 -171 6 -270 l0 -178 473 2 472 3 0 610 0 610 -336 3 c-184 1 -338 -1 -342 -5z"/>
 </g>
<g id="layer103" fill="#9d9d9d" stroke="none">
 <path d="M1327 2914 c-4 -4 -7 -67 -7 -141 l0 -133 76 0 76 0 -7 -230 -7 -230 69 0 70 0 5 98 c3 53 3 157 0 230 l-5 132 67 0 67 0 -3 138 -3 137 -196 3 c-107 1 -198 -1 -202 -4z m263 -219 l0 -65 -55 0 -55 0 0 65 0 65 55 0 55 0 0 -65z"/>
 <path d="M420 2274 c-83 -58 -175 -147 -205 -199 -13 -22 -36 -80 -52 -130 l-28 -90 -3 -702 -3 -703 331 0 330 0 0 135 0 135 -130 0 -130 0 0 265 0 265 130 0 130 0 0 135 0 135 -130 0 -130 0 0 149 c0 129 3 160 25 236 41 141 74 188 188 264 42 28 47 36 47 69 0 20 3 47 6 60 l6 22 -158 0 -159 -1 -65 -45z"/>
 <path d="M1060 1985 l0 -65 70 0 70 0 0 -135 0 -135 80 0 c76 0 80 1 80 23 1 33 34 99 66 129 37 34 74 48 131 48 89 0 151 -51 179 -146 l15 -54 60 0 59 0 0 200 0 200 -405 0 -405 0 0 -65z"/>
 <path d="M1522 1733 c-13 -5 -42 -55 -42 -73 0 -6 31 -10 81 -10 79 0 80 0 74 23 -16 52 -66 79 -113 60z"/>
 <path d="M2260 905 l0 -775 270 0 270 0 0 518 0 517 -264 258 c-146 141 -267 257 -270 257 -3 0 -6 -349 -6 -775z"/>
 <path d="M1200 1455 l0 -65 -135 0 -134 0 -3 -132 -3 -133 -127 -3 -128 -3 0 -134 0 -135 130 0 130 0 0 -270 0 -270 470 0 470 0 0 605 0 605 -335 0 -335 0 0 -65z m461 -84 c90 -57 114 -186 52 -275 -37 -52 -79 -76 -146 -83 -176 -18 -282 190 -164 324 41 47 78 62 153 63 49 0 68 -5 105 -29z m0 -560 c90 -57 114 -186 52 -275 -37 -52 -79 -76 -146 -83 -176 -18 -282 190 -164 324 41 47 78 62 153 63 49 0 68 -5 105 -29z"/>
 <path d="M1496 1269 c-20 -16 -26 -29 -26 -58 0 -74 83 -109 135 -56 73 72 -28 178 -109 114z"/>
 <path d="M1496 709 c-20 -16 -26 -29 -26 -58 0 -74 83 -109 135 -56 73 72 -28 178 -109 114z"/>
 </g>
<g id="layer104" fill="#e7e7e7" stroke="none">
 <path d="M1330 2775 l0 -135 70 0 70 0 0 59 0 59 61 4 c33 1 63 1 65 -1 2 -2 4 -31 4 -63 l0 -58 60 0 60 0 0 135 0 135 -195 0 -195 0 0 -135z"/>
 <path d="M1470 2540 l0 -90 65 0 65 0 0 90 0 90 -65 0 -65 0 0 -90z"/>
 <path d="M429 2276 c-160 -108 -228 -198 -268 -356 -17 -68 -19 -138 -25 -772 l-7 -698 200 0 201 0 0 689 0 689 25 88 c36 124 66 169 158 234 l77 55 0 57 0 58 -148 0 -147 0 -66 -44z"/>
 <path d="M1470 2250 l0 -70 65 0 65 0 0 70 0 70 -65 0 -65 0 0 -70z"/>
 <path d="M2458 1371 l-67 -56 135 -135 135 -136 -136 -135 -136 -135 135 -128 c75 -70 136 -131 136 -136 0 -6 -88 -74 -269 -207 -3 -2 33 -42 79 -88 l85 -85 122 0 123 0 0 518 -1 517 -137 131 -138 131 -66 -56z"/>
 </g>

</svg>