<!DOCTYPE svg PUBLIC "-//W3C//DTD SVG 20010904//EN" "http://www.w3.org/TR/2001/REC-SVG-20010904/DTD/svg10.dtd">
<svg version="1.0" xmlns="http://www.w3.org/2000/svg" width="320px" height="320px" viewBox="0 0 3200 3200" preserveAspectRatio="xMidYMid meet">
<g id="layer101" fill="#000000" stroke="none">
 <path d="M520 2770 l0 -270 -154 0 c-142 0 -155 -2 -187 -23 -58 -39 -69 -74 -69 -227 0 -153 11 -188 69 -227 32 -21 45 -23 187 -23 l153 0 3 -762 3 -763 26 -55 c50 -107 127 -173 252 -215 64 -21 94 -25 196 -25 l121 0 0 910 0 910 99 0 c85 0 102 3 132 23 58 39 69 74 69 227 0 153 -11 188 -69 227 -30 20 -47 23 -132 23 l-99 0 0 270 0 270 -300 0 -300 0 0 -270z"/>
 <path d="M2110 2599 c-285 -74 -507 -298 -580 -583 -28 -110 -28 -292 0 -402 74 -287 297 -510 584 -584 110 -28 292 -28 402 0 287 74 510 297 584 584 28 110 28 292 0 402 -74 287 -297 510 -584 584 -108 27 -300 27 -406 -1z"/>
 </g>
<g id="layer102" fill="#959595" stroke="none">
 <path d="M690 2805 l0 -65 130 0 130 0 0 65 0 65 -130 0 -130 0 0 -65z"/>
 <path d="M690 2570 l0 -70 130 0 130 0 0 70 0 70 -130 0 -130 0 0 -70z"/>
 <path d="M2110 2407 c-36 -12 -87 -35 -115 -51 -70 -41 -194 -169 -232 -241 -33 -64 -63 -154 -63 -192 0 -21 4 -23 60 -23 l60 0 0 -85 0 -85 -60 0 c-56 0 -60 -2 -60 -23 0 -38 30 -128 63 -192 42 -79 173 -210 252 -252 64 -33 154 -63 192 -63 22 0 23 3 23 70 l0 70 85 0 85 0 0 -70 c0 -67 1 -70 23 -70 38 0 128 30 192 63 79 42 210 173 252 252 33 64 63 154 63 192 0 21 -4 23 -60 23 l-60 0 0 85 0 85 60 0 c56 0 60 2 60 23 0 38 -30 128 -63 192 -42 79 -173 210 -252 252 -64 33 -154 63 -192 63 -22 0 -23 -3 -23 -70 l0 -70 -85 0 -85 0 0 70 c0 70 0 70 -27 70 -16 0 -57 -11 -93 -23z m435 -228 c49 -14 97 -63 113 -116 16 -54 16 -402 0 -456 -16 -53 -64 -102 -113 -116 -52 -14 -408 -14 -460 0 -49 14 -97 63 -113 116 -16 53 -16 402 -1 454 16 53 57 97 104 114 50 18 410 21 470 4z"/>
 <path d="M2085 2065 c-25 -24 -25 -25 -25 -230 0 -276 -21 -255 255 -255 276 0 255 -21 255 255 0 276 21 255 -255 255 -205 0 -206 0 -230 -25z"/>
 <path d="M284 2316 c-3 -7 -4 -42 -2 -77 l3 -64 352 -3 353 -2 0 80 0 80 -350 0 c-286 0 -352 -3 -356 -14z"/>
 <path d="M1090 2250 l0 -81 78 3 77 3 0 75 0 75 -77 3 -78 3 0 -81z"/>
 <path d="M690 1281 c0 -713 0 -720 22 -776 34 -90 125 -155 217 -155 l21 0 0 825 0 825 -130 0 -130 0 0 -719z"/>
 </g>
<g id="layer103" fill="#ffffff" stroke="none">
 <path d="M2151 2414 c-213 -57 -408 -267 -445 -476 l-7 -38 61 0 60 0 0 -85 0 -85 -60 0 -61 0 7 -37 c28 -164 163 -343 320 -425 59 -31 165 -68 196 -68 4 0 8 32 8 70 l0 70 85 0 85 0 0 -70 c0 -38 4 -70 8 -70 31 0 137 37 196 68 157 82 292 261 320 425 l7 37 -61 0 -60 0 0 85 0 85 60 0 61 0 -7 38 c-28 163 -163 342 -320 424 -59 31 -165 68 -196 68 -4 0 -8 -31 -8 -70 l0 -70 -85 0 -85 0 0 70 c0 78 3 76 -79 54z m429 -247 c30 -16 51 -37 67 -67 22 -41 23 -53 23 -265 0 -212 -1 -224 -23 -265 -16 -30 -37 -51 -67 -67 -41 -22 -53 -23 -265 -23 -212 0 -224 1 -265 23 -30 16 -51 37 -67 67 -22 41 -23 53 -23 265 0 212 1 224 23 265 16 30 37 51 67 67 41 22 53 23 265 23 212 0 224 -1 265 -23z"/>
 <path d="M292 2318 c-16 -16 -16 -120 0 -136 9 -9 102 -12 355 -12 l343 0 0 80 0 80 -343 0 c-253 0 -346 -3 -355 -12z"/>
 <path d="M1090 2250 l0 -80 68 0 c40 0 73 5 80 12 16 16 16 120 0 136 -7 7 -40 12 -80 12 l-68 0 0 -80z"/>
 <path d="M692 1273 l3 -728 28 -58 c20 -39 42 -66 72 -87 37 -26 104 -49 143 -50 9 0 12 172 12 825 l0 825 -130 0 -131 0 3 -727z"/>
 </g>

</svg>