<!DOCTYPE svg PUBLIC "-//W3C//DTD SVG 20010904//EN" "http://www.w3.org/TR/2001/REC-SVG-20010904/DTD/svg10.dtd">
<svg version="1.0" xmlns="http://www.w3.org/2000/svg" width="320px" height="320px" viewBox="0 0 3200 3200" preserveAspectRatio="xMidYMid meet">
<g id="layer101" fill="#000000" stroke="none">
 <path d="M1170 2822 l0 -127 205 -205 205 -205 205 205 205 205 0 127 0 128 -410 0 -410 0 0 -128z"/>
 <path d="M857 1662 l-507 -507 0 -205 0 -205 273 -273 272 -272 685 0 685 0 273 273 272 272 0 205 0 205 -508 508 -507 507 -215 0 -215 0 -508 -508z"/>
 </g>
<g id="layer102" fill="#616161" stroke="none">
 <path d="M1340 2763 c0 -10 54 -72 120 -138 l121 -121 119 121 c66 67 120 129 120 138 0 16 -21 17 -240 17 -221 0 -240 -1 -240 -17z"/>
 <path d="M982 1577 l-462 -462 0 -43 0 -42 1060 0 1060 0 0 43 0 42 -463 463 -462 462 -135 0 -135 0 -463 -463z"/>
 <path d="M520 822 c0 -35 11 -48 208 -245 l207 -207 645 0 645 0 208 208 c196 196 207 209 207 245 l0 37 -1060 0 -1060 0 0 -38z"/>
 </g>
<g id="layer103" fill="#c9c9c9" stroke="none">
 <path d="M984 1578 l-464 -462 0 -43 0 -43 265 0 c244 0 266 1 271 18 3 9 27 62 54 117 27 55 76 159 109 230 32 72 107 229 166 350 59 121 113 237 121 258 l13 37 -36 0 c-34 0 -60 -24 -499 -462z"/>
 <path d="M1640 2029 c0 -6 6 -23 14 -37 41 -79 106 -213 211 -437 64 -137 147 -311 185 -385 l68 -135 261 -3 261 -2 0 43 0 43 -464 462 c-441 440 -465 462 -500 462 -20 0 -36 -5 -36 -11z"/>
 <path d="M520 822 c0 -35 11 -48 208 -245 l207 -207 288 0 c158 0 287 3 287 8 0 4 -107 114 -238 245 l-237 237 -258 0 -257 0 0 -38z"/>
 <path d="M1887 622 c-130 -130 -237 -240 -237 -245 0 -4 129 -7 288 -7 l287 0 208 208 c196 196 207 209 207 245 l0 37 -258 0 -257 0 -238 -238z"/>
 </g>
<g id="layer104" fill="#ffffff" stroke="none">
 <path d="M953 1548 l-433 -432 0 -43 0 -43 210 0 211 0 104 216 c58 119 105 218 105 220 0 4 210 439 235 487 8 15 11 27 8 27 -4 0 -202 -195 -440 -432z"/>
 <path d="M1789 1923 c16 -32 74 -152 129 -268 55 -115 145 -303 200 -417 l101 -208 210 0 211 0 0 43 0 42 -433 433 c-238 237 -436 432 -440 432 -4 0 6 -26 22 -57z"/>
 <path d="M520 822 c0 -35 11 -48 210 -247 l210 -210 0 248 0 247 -210 0 -210 0 0 -38z"/>
 <path d="M2220 613 l0 -248 210 210 c199 199 210 212 210 247 l0 38 -210 0 -210 0 0 -247z"/>
 <path d="M1040 545 l0 -175 177 0 178 0 -175 175 c-96 96 -176 175 -177 175 -2 0 -3 -79 -3 -175z"/>
 <path d="M1940 545 l-175 -175 178 0 177 0 0 175 c0 96 -1 175 -3 175 -1 0 -81 -79 -177 -175z"/>
 </g>

</svg>