<!DOCTYPE svg PUBLIC "-//W3C//DTD SVG 20010904//EN" "http://www.w3.org/TR/2001/REC-SVG-20010904/DTD/svg10.dtd">
<svg version="1.0" xmlns="http://www.w3.org/2000/svg" width="320px" height="320px" viewBox="0 0 3200 3200" preserveAspectRatio="xMidYMid meet">
<g id="layer101" fill="#000000" stroke="none">
 <path d="M190 2822 l0 -127 205 -205 205 -205 205 205 205 205 0 127 0 128 -410 0 -410 0 0 -128z"/>
 <path d="M1170 2822 l0 -127 205 -205 205 -205 205 205 205 205 0 127 0 128 -410 0 -410 0 0 -128z"/>
 <path d="M2150 2822 l0 -127 205 -205 205 -205 205 205 205 205 0 127 0 128 -410 0 -410 0 0 -128z"/>
 <path d="M857 1662 l-507 -507 0 -205 0 -205 273 -273 272 -272 685 0 685 0 273 273 272 272 0 205 0 205 -508 508 -507 507 -215 0 -215 0 -508 -508z"/>
 </g>
<g id="layer102" fill="#303030" stroke="none">
 <path d="M360 2757 c0 -15 37 -59 120 -142 l120 -120 120 120 c83 83 120 127 120 142 l0 23 -240 0 -240 0 0 -23z"/>
 <path d="M1340 2757 c0 -15 37 -59 120 -142 l120 -120 120 120 c83 83 120 127 120 142 l0 23 -240 0 -240 0 0 -23z"/>
 <path d="M2320 2757 c0 -15 37 -59 120 -142 l120 -120 120 120 c83 83 120 127 120 142 l0 23 -240 0 -240 0 0 -23z"/>
 <path d="M982 1577 l-462 -462 0 -43 0 -42 1060 0 1060 0 0 43 0 42 -463 463 -462 462 -135 0 -135 0 -463 -463z"/>
 <path d="M520 822 c0 -35 11 -48 208 -245 l207 -207 645 0 645 0 208 208 c196 196 207 209 207 245 l0 37 -1060 0 -1060 0 0 -38z"/>
 </g>
<g id="layer103" fill="#595959" stroke="none">
 <path d="M360 2762 c0 -9 54 -71 120 -137 l120 -120 120 120 c66 66 120 128 120 137 0 17 -17 18 -240 18 -223 0 -240 -1 -240 -18z"/>
 <path d="M1340 2762 c0 -9 54 -71 120 -137 l120 -120 120 120 c66 66 120 128 120 137 0 17 -17 18 -240 18 -223 0 -240 -1 -240 -18z"/>
 <path d="M2320 2762 c0 -9 54 -71 120 -137 l120 -120 120 120 c66 66 120 128 120 137 0 17 -17 18 -240 18 -223 0 -240 -1 -240 -18z"/>
 <path d="M1450 1888 c-214 -444 -365 -759 -386 -805 l-24 -53 540 0 539 0 -43 93 c-23 50 -132 278 -241 505 l-198 412 -57 0 -57 0 -73 -152z"/>
 <path d="M957 1542 c-420 -421 -437 -439 -437 -475 l0 -37 210 0 210 0 49 103 c60 126 156 326 248 517 138 287 159 330 159 330 -1 0 -198 -197 -439 -438z"/>
 <path d="M1784 1940 c8 -19 109 -231 225 -470 l210 -435 210 -3 211 -2 0 37 c0 37 -15 53 -435 473 -312 311 -432 425 -421 400z"/>
 <path d="M520 822 c0 -35 11 -48 210 -247 l210 -210 0 248 0 247 -210 0 -210 0 0 -38z"/>
 <path d="M1280 615 l245 -245 55 0 55 0 245 245 245 245 -545 0 -545 0 245 -245z"/>
 <path d="M2220 613 l0 -248 210 210 c199 199 210 212 210 247 l0 38 -210 0 -210 0 0 -247z"/>
 <path d="M1040 545 l0 -175 177 0 178 0 -175 175 c-96 96 -176 175 -177 175 -2 0 -3 -79 -3 -175z"/>
 <path d="M1940 545 l-175 -175 178 0 177 0 0 175 c0 96 -1 175 -3 175 -1 0 -81 -79 -177 -175z"/>
 </g>
<g id="layer104" fill="#888888" stroke="none">
 <path d="M1516 2016 c-9 -14 -16 -27 -16 -29 0 -3 -41 -89 -91 -193 -50 -104 -113 -234 -139 -289 -26 -55 -86 -182 -134 -281 -47 -100 -86 -184 -86 -188 0 -3 239 -6 530 -6 292 0 530 2 530 4 0 9 -73 164 -304 646 -80 168 -152 316 -160 330 -12 20 -24 26 -64 28 -43 3 -51 0 -66 -22z"/>
 <path d="M520 827 c0 -29 23 -55 210 -242 l210 -210 0 243 0 242 -210 0 -210 0 0 -33z"/>
 <path d="M1280 615 l245 -245 55 0 55 0 245 245 245 245 -545 0 -545 0 245 -245z"/>
 <path d="M2220 618 l0 -243 210 210 c187 187 210 213 210 242 l0 33 -210 0 -210 0 0 -242z"/>
 </g>
<g id="layer105" fill="#676767" stroke="none">
 <path d="M1516 2016 c-9 -14 -16 -27 -16 -29 0 -3 -41 -89 -91 -193 -50 -104 -113 -234 -139 -289 -26 -55 -86 -182 -134 -281 -47 -100 -86 -184 -86 -188 0 -3 239 -6 530 -6 292 0 530 2 530 4 0 9 -73 164 -304 646 -80 168 -152 316 -160 330 -12 20 -24 26 -64 28 -43 3 -51 0 -66 -22z"/>
 <path d="M1280 615 c135 -135 247 -245 250 -245 3 0 -105 110 -240 245 -135 135 -247 245 -250 245 -3 0 105 -110 240 -245z"/>
 <path d="M1870 613 l-245 -248 248 245 c136 135 247 246 247 247 0 8 -22 -15 -250 -244z"/>
 </g>

</svg>