<!DOCTYPE svg PUBLIC "-//W3C//DTD SVG 20010904//EN" "http://www.w3.org/TR/2001/REC-SVG-20010904/DTD/svg10.dtd">
<svg version="1.0" xmlns="http://www.w3.org/2000/svg" width="320px" height="320px" viewBox="0 0 3200 3200" preserveAspectRatio="xMidYMid meet">
<g id="layer101" fill="#020202" stroke="none">
 <path d="M670 2822 l0 -127 205 -205 205 -205 205 205 205 205 0 127 0 128 -410 0 -410 0 0 -128z"/>
 <path d="M1670 2822 l0 -127 205 -205 205 -205 205 205 205 205 0 127 0 128 -410 0 -410 0 0 -128z"/>
 <path d="M80 2282 l0 -127 205 -205 205 -205 205 205 205 205 0 127 0 128 -410 0 -410 0 0 -128z"/>
 <path d="M2260 2282 l0 -127 205 -205 205 -205 205 205 205 205 0 127 0 128 -410 0 -410 0 0 -128z"/>
 <path d="M857 1662 l-507 -507 0 -205 0 -205 199 -199 c110 -110 197 -204 194 -209 -3 -6 -2 -7 4 -4 5 3 41 -25 78 -63 l69 -70 686 0 685 0 273 273 272 272 0 205 0 205 -508 508 -507 507 -215 0 -215 0 -508 -508z"/>
 </g>
<g id="layer102" fill="#373737" stroke="none">
 <path d="M840 2757 c0 -15 37 -59 120 -142 l120 -120 120 120 c83 83 120 127 120 142 l0 23 -240 0 -240 0 0 -23z"/>
 <path d="M1840 2757 c0 -15 37 -59 120 -142 l120 -120 120 120 c83 83 120 127 120 142 l0 23 -240 0 -240 0 0 -23z"/>
 <path d="M250 2217 c0 -15 37 -59 120 -142 l120 -120 120 120 c83 83 120 127 120 142 l0 23 -240 0 -240 0 0 -23z"/>
 <path d="M2430 2217 c0 -15 37 -59 120 -142 l120 -120 120 120 c83 83 120 127 120 142 l0 23 -240 0 -240 0 0 -23z"/>
 <path d="M1436 2044 c-9 -8 -16 -17 -16 -20 0 -2 -54 -226 -120 -496 -67 -270 -119 -497 -116 -505 8 -19 824 -19 832 0 3 8 -47 227 -111 488 -115 469 -117 474 -153 512 l-36 37 -132 0 c-107 0 -136 -3 -148 -16z"/>
 <path d="M897 1512 c-392 -392 -397 -398 -397 -438 0 -22 5 -45 12 -52 17 -17 302 -17 316 1 18 21 482 866 482 877 0 5 -3 10 -8 10 -4 0 -186 -179 -405 -398z"/>
 <path d="M1296 1783 c-63 -100 -416 -755 -411 -763 4 -6 60 -10 126 -10 114 0 120 1 129 23 13 30 187 747 187 770 0 24 -4 22 -31 -20z"/>
 <path d="M1870 1808 c0 -21 178 -747 190 -775 9 -22 15 -23 129 -23 66 0 122 4 126 10 6 10 -405 763 -431 790 -12 12 -14 12 -14 -2z"/>
 <path d="M1940 1810 c0 -11 375 -697 416 -762 l24 -38 128 0 c86 0 132 4 140 12 7 7 12 30 12 53 0 40 -5 45 -353 393 -193 193 -355 352 -360 352 -4 0 -7 -5 -7 -10z"/>
 <path d="M512 868 c-7 -7 -12 -28 -12 -48 0 -33 15 -51 213 -248 l212 -212 118 0 c64 0 117 2 117 5 0 6 -296 483 -311 501 -15 19 -318 21 -337 2z"/>
 <path d="M906 871 c-3 -5 63 -121 148 -257 l154 -249 77 -3 c60 -2 76 0 72 10 -144 367 -192 485 -200 496 -11 14 -242 18 -251 3z"/>
 <path d="M1201 868 c0 -7 44 -123 97 -258 l98 -245 204 0 204 0 98 245 c53 135 97 251 97 258 1 9 -85 12 -399 12 -314 0 -400 -3 -399 -12z"/>
 <path d="M2043 868 c-8 -11 -56 -129 -200 -496 -4 -10 12 -12 72 -10 l77 3 154 249 c85 136 151 252 148 257 -9 15 -240 11 -251 -3z"/>
 <path d="M2351 866 c-15 -18 -311 -495 -311 -501 0 -3 42 -5 93 -5 l94 0 219 221 c206 207 219 222 219 257 l0 37 -151 3 c-122 2 -153 0 -163 -12z"/>
 </g>
<g id="layer103" fill="#5c5c5c" stroke="none">
 <path d="M840 2762 c0 -9 54 -71 120 -137 l120 -120 120 120 c66 66 120 128 120 137 0 17 -17 18 -240 18 -223 0 -240 -1 -240 -18z"/>
 <path d="M1840 2762 c0 -9 54 -71 120 -137 l120 -120 120 120 c66 66 120 128 120 137 0 17 -17 18 -240 18 -223 0 -240 -1 -240 -18z"/>
 <path d="M250 2222 c0 -9 54 -71 120 -137 l120 -120 120 120 c66 66 120 128 120 137 0 17 -17 18 -240 18 -223 0 -240 -1 -240 -18z"/>
 <path d="M2430 2222 c0 -9 54 -71 120 -137 l120 -120 120 120 c66 66 120 128 120 137 0 17 -17 18 -240 18 -223 0 -240 -1 -240 -18z"/>
 <path d="M1431 2031 c-8 -15 -251 -988 -251 -1006 0 -3 189 -5 421 -5 l421 0 -5 23 c-3 12 -56 229 -118 482 -104 426 -114 462 -142 493 l-31 32 -143 0 c-129 0 -143 -2 -152 -19z"/>
 <path d="M1112 1438 c-116 -211 -214 -391 -218 -401 -6 -16 2 -17 117 -15 l123 3 82 335 c97 391 113 460 109 460 -1 0 -97 -172 -213 -382z"/>
 <path d="M1870 1820 c1 -3 45 -183 99 -400 l98 -395 123 -3 c114 -2 122 -1 116 15 -16 42 -437 799 -436 783z"/>
 <path d="M1207 873 c-3 -5 40 -122 95 -261 l100 -252 198 0 198 0 100 253 c55 138 98 255 95 260 -2 4 -179 7 -393 7 -214 0 -391 -3 -393 -7z"/>
 <path d="M910 863 c1 -5 70 -118 154 -253 l153 -245 68 -3 c61 -3 67 -1 61 15 -4 10 -48 125 -99 255 l-92 238 -122 0 c-68 0 -123 -3 -123 -7z"/>
 <path d="M1953 632 c-51 -130 -95 -245 -99 -255 -6 -16 0 -18 61 -15 l68 3 153 245 c84 135 153 248 154 253 0 4 -55 7 -122 7 l-123 0 -92 -238z"/>
 </g>

</svg>